{"glyphs":{"0":{"ha":861,"x_min":79,"x_max":782,"o":"m 431 -14 q 242 44 321 -14 q 122 210 164 103 q 79 468 79 318 q 126 749 79 633 q 251 926 172 865 q 431 986 331 986 q 689 857 596 986 q 782 496 782 728 q 735 221 782 335 q 610 47 689 107 q 431 -14 531 -14 m 443 58 q 591 163 539 58 q 643 492 643 267 q 615 713 643 618 q 535 861 586 808 q 418 914 485 914 q 270 811 321 914 q 219 468 219 708 q 247 251 219 343 q 325 108 275 158 q 443 58 375 58 z "},"1":{"ha":533,"x_min":47,"x_max":472,"o":"m 69 0 l 69 53 l 118 57 q 205 85 186 64 q 224 149 224 106 l 224 776 q 211 835 224 818 q 161 857 199 853 q 47 861 124 861 l 47 911 l 329 982 l 349 982 l 349 124 q 367 76 349 92 q 428 57 385 61 l 472 53 l 472 0 l 69 0 z "},"2":{"ha":729,"x_min":53,"x_max":653,"o":"m 53 0 l 53 35 q 198 182 121 101 q 343 351 275 263 q 454 531 411 439 q 497 711 497 622 q 449 853 497 803 q 314 903 400 903 q 190 861 250 903 q 107 735 131 819 l 53 746 q 111 883 67 829 q 217 961 156 936 q 346 986 279 986 q 444 974 394 986 q 535 934 493 963 q 602 856 576 906 q 628 732 628 807 q 584 553 628 642 q 470 379 540 465 q 319 213 400 293 q 165 57 239 133 l 129 103 l 483 103 q 570 128 549 103 q 597 189 592 154 l 653 189 l 653 0 l 53 0 z "},"3":{"ha":728,"x_min":57,"x_max":649,"o":"m 322 -14 q 178 9 238 -14 q 88 63 118 32 q 57 118 57 94 q 78 157 57 143 q 125 172 99 171 q 169 154 151 172 l 244 85 q 280 64 260 72 q 342 56 300 56 q 472 108 424 56 q 519 250 519 160 q 441 424 519 369 q 233 453 363 478 l 233 503 q 431 591 365 532 q 497 732 497 650 q 451 856 497 810 q 328 903 406 903 q 206 861 256 903 q 126 747 157 819 l 71 764 q 176 928 103 869 q 364 986 249 986 q 502 958 443 986 q 594 878 561 929 q 628 757 628 826 q 569 611 628 675 q 394 507 511 547 l 397 529 q 581 454 513 521 q 649 278 649 388 q 606 128 649 194 q 490 24 564 63 q 322 -14 417 -14 z "},"4":{"ha":797,"x_min":46,"x_max":740,"o":"m 336 0 l 336 53 l 371 57 q 457 85 438 64 q 476 149 476 106 l 476 317 l 46 317 l 46 356 l 536 986 l 594 986 l 594 410 l 740 410 l 740 378 l 714 317 l 594 317 l 594 124 q 612 76 594 92 q 672 57 629 61 l 704 53 l 704 0 l 336 0 m 476 360 l 476 854 l 497 833 l 146 364 l 108 410 l 522 410 l 476 360 z "},"5":{"ha":732,"x_min":50,"x_max":665,"o":"m 315 -14 q 171 9 231 -14 q 81 63 111 32 q 50 118 50 94 q 71 157 50 143 q 119 172 92 171 q 164 154 146 172 l 239 85 q 273 64 253 72 q 335 56 293 56 q 483 113 432 56 q 535 265 535 171 q 433 451 535 393 q 107 506 331 508 l 104 508 l 167 972 l 458 972 q 544 984 522 972 q 572 1029 567 996 l 626 1029 l 626 869 l 178 869 l 229 931 l 181 574 l 133 615 q 528 545 390 628 q 665 297 665 463 q 622 139 665 210 q 501 27 579 68 q 315 -14 422 -14 z "},"6":{"ha":782,"x_min":75,"x_max":721,"o":"m 396 -14 q 159 89 243 -14 q 75 379 75 192 q 147 675 75 546 q 352 883 219 804 q 665 978 485 961 l 671 935 q 441 847 540 911 q 283 685 342 782 q 215 465 225 588 l 225 465 q 333 547 278 522 q 457 572 388 572 q 592 536 532 572 q 686 440 651 500 q 721 303 721 379 q 679 140 721 211 q 564 27 638 68 q 396 -14 490 -14 m 414 56 q 542 113 493 56 q 590 263 590 171 q 538 415 590 361 q 392 468 486 468 q 213 397 288 468 l 213 372 q 414 56 213 56 z "},"7":{"ha":686,"x_min":36,"x_max":660,"o":"m 142 0 l 142 39 l 600 963 l 619 869 l 206 869 q 120 845 142 869 q 92 790 99 821 l 36 790 l 36 972 l 660 972 l 660 938 l 265 0 l 142 0 z "},"8":{"ha":775,"x_min":83,"x_max":692,"o":"m 381 -14 q 226 17 293 -14 q 121 104 158 49 q 83 232 83 160 q 137 383 83 318 q 294 489 190 449 l 335 457 q 236 363 268 418 q 204 240 204 307 q 256 106 204 154 q 396 57 308 57 q 529 101 478 57 q 581 214 581 144 q 549 307 581 265 q 450 388 518 349 l 251 500 q 90 732 90 592 q 131 863 90 806 q 242 953 171 919 q 401 986 313 986 q 547 958 483 986 q 648 878 611 929 q 685 758 685 826 q 625 613 685 674 q 451 507 565 551 l 415 539 q 527 633 490 583 q 564 746 564 683 q 511 869 564 822 q 378 915 458 915 q 251 873 300 915 q 201 763 201 831 q 235 667 201 711 q 340 583 268 624 l 539 471 q 654 372 617 426 q 692 250 692 318 q 651 115 692 175 q 540 21 610 56 q 381 -14 469 -14 z "},"9":{"ha":783,"x_min":63,"x_max":708,"o":"m 118 -6 l 106 38 q 351 119 251 54 q 506 286 451 185 q 568 511 560 388 l 571 519 q 511 463 544 490 q 433 417 478 435 q 326 400 389 400 q 237 417 283 400 q 151 467 190 433 q 87 553 111 501 q 63 678 63 606 q 99 828 63 757 q 206 942 135 899 q 381 986 278 986 q 558 940 485 986 q 669 807 631 894 q 708 593 708 719 q 644 294 708 426 q 449 84 579 163 q 118 -6 318 6 m 547 507 l 547 522 l 581 522 l 581 507 l 547 507 m 567 476 q 570 525 569 497 q 571 600 571 553 q 551 766 571 694 q 486 877 531 838 q 367 917 442 917 q 281 897 315 917 q 228 844 247 876 q 201 777 208 813 q 193 711 193 742 q 247 556 193 607 q 393 504 301 504 q 497 524 451 504 q 585 588 542 544 l 567 476 z "},"A":{"ha":1008,"x_min":-3,"x_max":1011,"o":"m -3 0 l -3 53 l 29 58 q 85 78 64 65 q 123 117 107 92 q 156 183 139 142 l 476 979 l 538 979 l 850 179 q 900 92 874 122 q 985 56 926 61 l 1011 53 l 1011 0 l 604 0 l 604 53 l 651 58 q 722 94 710 64 q 713 178 735 124 l 454 849 l 493 849 l 238 181 q 235 92 215 124 q 311 56 254 61 l 351 53 l 351 0 l -3 0 m 285 367 l 285 432 l 704 432 l 704 367 l 285 367 z "},"Á":{"ha":1008,"x_min":-3,"x_max":1011,"o":"m -3 0 l -3 53 l 29 58 q 85 78 64 65 q 123 117 107 92 q 156 183 139 142 l 476 979 l 538 979 l 850 179 q 900 92 874 122 q 985 56 926 61 l 1011 53 l 1011 0 l 604 0 l 604 53 l 651 58 q 722 94 710 64 q 713 178 735 124 l 454 849 l 493 849 l 238 181 q 235 92 215 124 q 311 56 254 61 l 351 53 l 351 0 l -3 0 m 285 367 l 285 432 l 704 432 l 704 367 l 285 367 m 393 1036 l 368 1069 l 482 1206 q 510 1236 497 1222 q 538 1264 524 1250 q 581 1278 557 1281 q 622 1256 606 1276 q 637 1213 639 1236 q 615 1171 635 1189 q 584 1148 600 1157 q 549 1128 568 1139 l 393 1036 z "},"Ă":{"ha":1008,"x_min":-3,"x_max":1011,"o":"m -3 0 l -3 53 l 29 58 q 85 78 64 65 q 123 117 107 92 q 156 183 139 142 l 476 979 l 538 979 l 850 179 q 900 92 874 122 q 985 56 926 61 l 1011 53 l 1011 0 l 604 0 l 604 53 l 651 58 q 722 94 710 64 q 713 178 735 124 l 454 849 l 493 849 l 238 181 q 235 92 215 124 q 311 56 254 61 l 351 53 l 351 0 l -3 0 m 285 367 l 285 432 l 704 432 l 704 367 l 285 367 m 501 1081 q 351 1130 394 1081 q 313 1250 308 1179 l 358 1250 q 399 1194 365 1218 q 501 1169 432 1169 q 606 1194 572 1169 q 646 1250 640 1218 l 690 1250 q 651 1130 694 1179 q 501 1081 608 1081 z "},"Â":{"ha":1008,"x_min":-3,"x_max":1011,"o":"m -3 0 l -3 53 l 29 58 q 85 78 64 65 q 123 117 107 92 q 156 183 139 142 l 476 979 l 538 979 l 850 179 q 900 92 874 122 q 985 56 926 61 l 1011 53 l 1011 0 l 604 0 l 604 53 l 651 58 q 722 94 710 64 q 713 178 735 124 l 454 849 l 493 849 l 238 181 q 235 92 215 124 q 311 56 254 61 l 351 53 l 351 0 l -3 0 m 285 367 l 285 432 l 704 432 l 704 367 l 285 367 m 328 1068 l 306 1089 l 458 1269 l 546 1269 l 697 1089 l 675 1068 l 503 1169 l 500 1169 l 328 1068 z "},"Ä":{"ha":1008,"x_min":-3,"x_max":1011,"o":"m -3 0 l -3 53 l 29 58 q 85 78 64 65 q 123 117 107 92 q 156 183 139 142 l 476 979 l 538 979 l 850 179 q 900 92 874 122 q 985 56 926 61 l 1011 53 l 1011 0 l 604 0 l 604 53 l 651 58 q 722 94 710 64 q 713 178 735 124 l 454 849 l 493 849 l 238 181 q 235 92 215 124 q 311 56 254 61 l 351 53 l 351 0 l -3 0 m 285 367 l 285 432 l 704 432 l 704 367 l 285 367 m 640 1075 q 584 1097 607 1075 q 561 1154 561 1119 q 584 1210 561 1189 q 640 1232 607 1232 q 695 1210 672 1232 q 718 1154 718 1189 q 695 1097 718 1119 q 640 1075 672 1075 m 364 1075 q 308 1097 331 1075 q 285 1154 285 1119 q 308 1210 285 1189 q 364 1232 331 1232 q 419 1210 396 1232 q 442 1154 442 1189 q 419 1097 442 1119 q 364 1075 396 1075 z "},"À":{"ha":1008,"x_min":-3,"x_max":1011,"o":"m -3 0 l -3 53 l 29 58 q 85 78 64 65 q 123 117 107 92 q 156 183 139 142 l 476 979 l 538 979 l 850 179 q 900 92 874 122 q 985 56 926 61 l 1011 53 l 1011 0 l 604 0 l 604 53 l 651 58 q 722 94 710 64 q 713 178 735 124 l 454 849 l 493 849 l 238 181 q 235 92 215 124 q 311 56 254 61 l 351 53 l 351 0 l -3 0 m 285 367 l 285 432 l 704 432 l 704 367 l 285 367 m 597 1036 l 442 1128 q 407 1148 424 1139 q 375 1171 390 1157 q 352 1213 354 1189 q 368 1256 350 1236 q 409 1278 385 1276 q 451 1264 433 1281 q 481 1236 468 1250 q 507 1206 493 1222 l 622 1069 l 597 1036 z "},"Ā":{"ha":1008,"x_min":-3,"x_max":1011,"o":"m -3 0 l -3 53 l 29 58 q 85 78 64 65 q 123 117 107 92 q 156 183 139 142 l 476 979 l 538 979 l 850 179 q 900 92 874 122 q 985 56 926 61 l 1011 53 l 1011 0 l 604 0 l 604 53 l 651 58 q 722 94 710 64 q 713 178 735 124 l 454 849 l 493 849 l 238 181 q 235 92 215 124 q 311 56 254 61 l 351 53 l 351 0 l -3 0 m 285 367 l 285 432 l 704 432 l 704 367 l 285 367 m 308 1147 l 308 1228 l 694 1228 l 694 1147 l 308 1147 z "},"Ą":{"ha":1008,"x_min":-3,"x_max":1011,"o":"m -3 0 l -3 53 l 29 58 q 85 78 64 65 q 123 117 107 92 q 156 183 139 142 l 476 979 l 538 979 l 850 179 q 900 92 874 122 q 985 56 926 61 l 1011 53 l 1011 0 l 604 0 l 604 53 l 651 58 q 722 94 710 64 q 713 178 735 124 l 454 849 l 493 849 l 238 181 q 235 92 215 124 q 311 56 254 61 l 351 53 l 351 0 l -3 0 m 285 367 l 285 432 l 704 432 l 704 367 l 285 367 m 810 -357 q 713 -323 754 -357 q 672 -224 672 -289 q 702 -124 672 -169 q 775 -47 732 -79 q 856 0 818 -15 l 914 0 q 876 -21 900 -4 q 828 -63 853 -37 q 785 -124 803 -89 q 768 -199 768 -158 q 861 -287 768 -287 q 916 -279 893 -287 q 950 -265 939 -271 l 967 -286 q 911 -331 947 -306 q 810 -357 875 -357 z "},"Å":{"ha":1008,"x_min":-3,"x_max":1011,"o":"m -3 0 l -3 53 l 29 58 q 85 78 64 65 q 123 117 107 92 q 156 183 139 142 l 476 979 l 538 979 l 850 179 q 900 92 874 122 q 985 56 926 61 l 1011 53 l 1011 0 l 604 0 l 604 53 l 651 58 q 722 94 710 64 q 713 178 735 124 l 454 849 l 493 849 l 238 181 q 235 92 215 124 q 311 56 254 61 l 351 53 l 351 0 l -3 0 m 285 367 l 285 432 l 704 432 l 704 367 l 285 367 m 501 1049 q 397 1088 438 1049 q 357 1190 357 1128 q 397 1290 357 1251 q 501 1329 438 1329 q 606 1290 565 1329 q 647 1190 647 1251 q 607 1088 647 1128 q 501 1049 567 1049 m 510 1093 q 556 1114 539 1093 q 572 1174 572 1135 q 551 1254 572 1224 q 494 1285 529 1285 q 449 1263 465 1285 q 432 1203 432 1242 q 453 1123 432 1153 q 510 1093 475 1093 z "},"Ã":{"ha":1008,"x_min":-3,"x_max":1011,"o":"m -3 0 l -3 53 l 29 58 q 85 78 64 65 q 123 117 107 92 q 156 183 139 142 l 476 979 l 538 979 l 850 179 q 900 92 874 122 q 985 56 926 61 l 1011 53 l 1011 0 l 604 0 l 604 53 l 651 58 q 722 94 710 64 q 713 178 735 124 l 454 849 l 493 849 l 238 181 q 235 92 215 124 q 311 56 254 61 l 351 53 l 351 0 l -3 0 m 285 367 l 285 432 l 704 432 l 704 367 l 285 367 m 294 1107 l 253 1115 q 298 1207 272 1175 q 351 1251 324 1239 q 404 1263 379 1263 q 459 1253 433 1263 q 501 1238 485 1244 l 532 1224 q 576 1207 558 1213 q 610 1201 593 1201 q 672 1220 650 1201 q 708 1267 694 1239 l 750 1258 q 706 1167 731 1199 q 653 1123 681 1135 q 599 1111 625 1111 q 544 1120 569 1111 q 501 1136 518 1129 l 471 1150 q 427 1167 444 1161 q 393 1172 410 1172 q 331 1153 354 1172 q 294 1107 308 1135 z "},"Æ":{"ha":1356,"x_min":-12,"x_max":1276,"o":"m 1240 -8 q 1131 -2 1186 -4 q 1040 0 1076 0 l 538 0 l 538 53 l 571 56 q 663 78 639 58 q 688 149 688 97 l 688 465 l 424 465 l 253 176 q 283 46 181 54 l 333 42 l 333 0 l -12 0 l -12 42 q 62 64 33 50 q 115 107 90 78 q 171 188 139 136 l 560 825 q 577 892 590 875 q 519 914 564 910 l 463 919 l 463 972 l 1043 972 q 1143 974 1094 972 q 1239 981 1192 975 l 1260 756 l 1206 756 q 1147 872 1188 838 q 1032 907 1107 907 l 815 907 l 815 529 l 1094 529 q 1163 550 1143 529 q 1186 624 1183 571 l 1189 649 l 1242 649 l 1242 346 l 1189 346 l 1188 372 q 1164 444 1185 424 q 1094 465 1143 465 l 815 465 l 815 149 q 831 89 815 107 q 886 68 847 71 q 990 65 925 65 q 1101 85 1057 65 q 1174 149 1146 106 q 1221 265 1203 192 l 1276 265 l 1240 -8 m 461 529 l 688 529 l 688 913 l 681 913 q 651 854 667 885 q 615 790 635 824 l 461 529 z "},"B":{"ha":938,"x_min":57,"x_max":854,"o":"m 57 0 l 57 53 l 90 56 q 183 78 158 58 q 207 149 207 97 l 207 824 q 183 894 207 875 q 90 917 158 914 l 57 919 l 57 972 l 492 972 q 753 913 665 972 q 840 738 840 853 q 622 507 840 556 q 797 428 740 488 q 854 271 854 369 q 814 126 854 188 q 697 33 774 65 q 506 0 619 0 l 57 0 m 464 58 q 653 113 588 58 q 718 268 718 167 q 659 413 718 363 q 486 463 600 463 l 338 463 l 338 143 q 367 78 338 97 q 464 58 396 58 m 338 524 l 489 524 q 645 581 586 524 q 704 733 704 639 q 645 868 704 822 q 464 914 586 914 q 367 903 397 914 q 338 865 338 893 l 338 524 z "},"C":{"ha":1014,"x_min":68,"x_max":943,"o":"m 585 -14 q 311 49 428 -14 q 131 222 194 113 q 68 472 68 332 q 106 671 68 578 q 216 835 144 764 q 388 946 288 906 q 610 986 488 986 q 796 964 717 986 q 943 908 875 942 l 943 722 l 889 722 q 791 863 865 810 q 588 917 717 917 q 382 864 467 917 q 253 719 297 811 q 208 508 208 628 q 234 342 208 424 q 310 197 260 261 q 435 94 360 132 q 607 56 510 56 q 725 73 675 56 q 812 138 775 90 q 874 279 849 186 l 929 279 l 929 58 q 744 3 831 19 q 585 -14 658 -14 z "},"Ć":{"ha":1014,"x_min":68,"x_max":943,"o":"m 585 -14 q 311 49 428 -14 q 131 222 194 113 q 68 472 68 332 q 106 671 68 578 q 216 835 144 764 q 388 946 288 906 q 610 986 488 986 q 796 964 717 986 q 943 908 875 942 l 943 722 l 889 722 q 791 863 865 810 q 588 917 717 917 q 382 864 467 917 q 253 719 297 811 q 208 508 208 628 q 234 342 208 424 q 310 197 260 261 q 435 94 360 132 q 607 56 510 56 q 725 73 675 56 q 812 138 775 90 q 874 279 849 186 l 929 279 l 929 58 q 744 3 831 19 q 585 -14 658 -14 m 444 1036 l 419 1069 l 533 1206 q 562 1236 549 1222 q 589 1264 575 1250 q 633 1278 608 1281 q 674 1256 657 1276 q 688 1213 690 1236 q 667 1171 686 1189 q 635 1148 651 1157 q 600 1128 619 1139 l 444 1036 z "},"Č":{"ha":1014,"x_min":68,"x_max":943,"o":"m 585 -14 q 311 49 428 -14 q 131 222 194 113 q 68 472 68 332 q 106 671 68 578 q 216 835 144 764 q 388 946 288 906 q 610 986 488 986 q 796 964 717 986 q 943 908 875 942 l 943 722 l 889 722 q 791 863 865 810 q 588 917 717 917 q 382 864 467 917 q 253 719 297 811 q 208 508 208 628 q 234 342 208 424 q 310 197 260 261 q 435 94 360 132 q 607 56 510 56 q 725 73 675 56 q 812 138 775 90 q 874 279 849 186 l 929 279 l 929 58 q 744 3 831 19 q 585 -14 658 -14 m 511 1071 l 358 1251 l 381 1272 l 553 1171 l 556 1171 l 728 1272 l 750 1251 l 599 1071 l 511 1071 z "},"Ç":{"ha":1014,"x_min":68,"x_max":943,"o":"m 585 -14 q 311 49 428 -14 q 131 222 194 113 q 68 472 68 332 q 106 671 68 578 q 216 835 144 764 q 388 946 288 906 q 610 986 488 986 q 796 964 717 986 q 943 908 875 942 l 943 722 l 889 722 q 791 863 865 810 q 588 917 717 917 q 382 864 467 917 q 253 719 297 811 q 208 508 208 628 q 234 342 208 424 q 310 197 260 261 q 435 94 360 132 q 607 56 510 56 q 725 73 675 56 q 812 138 775 90 q 874 279 849 186 l 929 279 l 929 58 q 744 3 831 19 q 585 -14 658 -14 m 542 -357 q 468 -341 497 -357 q 439 -301 439 -325 q 458 -265 439 -279 q 500 -262 478 -251 l 532 -278 q 563 -295 551 -287 q 583 -303 574 -303 q 624 -290 603 -303 q 646 -242 646 -276 q 603 -169 646 -193 q 489 -149 561 -146 l 488 -146 l 615 13 l 663 1 l 588 -92 q 692 -126 654 -97 q 731 -211 731 -154 q 705 -283 731 -250 q 636 -337 679 -317 q 542 -357 593 -357 z "},"Ĉ":{"ha":1014,"x_min":68,"x_max":943,"o":"m 585 -14 q 311 49 428 -14 q 131 222 194 113 q 68 472 68 332 q 106 671 68 578 q 216 835 144 764 q 388 946 288 906 q 610 986 488 986 q 796 964 717 986 q 943 908 875 942 l 943 722 l 889 722 q 791 863 865 810 q 588 917 717 917 q 382 864 467 917 q 253 719 297 811 q 208 508 208 628 q 234 342 208 424 q 310 197 260 261 q 435 94 360 132 q 607 56 510 56 q 725 73 675 56 q 812 138 775 90 q 874 279 849 186 l 929 279 l 929 58 q 744 3 831 19 q 585 -14 658 -14 m 381 1068 l 358 1089 l 511 1269 l 599 1269 l 750 1089 l 728 1068 l 556 1169 l 553 1169 l 381 1068 z "},"Ċ":{"ha":1014,"x_min":68,"x_max":943,"o":"m 585 -14 q 311 49 428 -14 q 131 222 194 113 q 68 472 68 332 q 106 671 68 578 q 216 835 144 764 q 388 946 288 906 q 610 986 488 986 q 796 964 717 986 q 943 908 875 942 l 943 722 l 889 722 q 791 863 865 810 q 588 917 717 917 q 382 864 467 917 q 253 719 297 811 q 208 508 208 628 q 234 342 208 424 q 310 197 260 261 q 435 94 360 132 q 607 56 510 56 q 725 73 675 56 q 812 138 775 90 q 874 279 849 186 l 929 279 l 929 58 q 744 3 831 19 q 585 -14 658 -14 m 554 1088 q 496 1110 519 1088 q 472 1169 472 1133 q 496 1228 472 1206 q 554 1250 519 1250 q 611 1228 588 1250 q 635 1169 635 1206 q 611 1110 635 1133 q 554 1088 588 1088 z "},"D":{"ha":1133,"x_min":57,"x_max":1063,"o":"m 57 0 l 57 53 l 90 56 q 183 78 158 58 q 207 149 207 99 l 207 824 q 183 894 207 874 q 90 917 158 914 l 57 919 l 57 972 l 517 972 q 810 917 688 972 q 997 758 932 863 q 1063 500 1063 653 q 999 234 1063 346 q 813 61 935 122 q 518 0 690 0 l 57 0 m 539 65 q 819 167 717 65 q 922 461 922 269 q 870 699 922 599 q 726 854 818 799 q 515 910 633 910 q 429 908 471 910 q 338 900 388 906 l 338 161 q 355 101 338 122 q 417 73 372 81 q 539 65 461 65 z "},"Ď":{"ha":1133,"x_min":57,"x_max":1063,"o":"m 57 0 l 57 53 l 90 56 q 183 78 158 58 q 207 149 207 99 l 207 824 q 183 894 207 874 q 90 917 158 914 l 57 919 l 57 972 l 517 972 q 810 917 688 972 q 997 758 932 863 q 1063 500 1063 653 q 999 234 1063 346 q 813 61 935 122 q 518 0 690 0 l 57 0 m 539 65 q 819 167 717 65 q 922 461 922 269 q 870 699 922 599 q 726 854 818 799 q 515 910 633 910 q 429 908 471 910 q 338 900 388 906 l 338 161 q 355 101 338 122 q 417 73 372 81 q 539 65 461 65 m 522 1071 l 369 1251 l 392 1272 l 564 1171 l 567 1171 l 739 1272 l 761 1251 l 610 1071 l 522 1071 z "},"Đ":{"ha":1139,"x_min":63,"x_max":1068,"o":"m 67 463 l 67 526 l 517 526 l 517 463 l 67 463 m 63 0 l 63 53 l 96 56 q 188 78 164 58 q 213 149 213 99 l 213 824 q 188 894 213 874 q 96 917 164 914 l 63 919 l 63 972 l 522 972 q 815 917 693 972 q 1003 758 938 863 q 1068 500 1068 653 q 1004 234 1068 346 q 818 61 940 122 q 524 0 696 0 l 63 0 m 544 65 q 825 167 722 65 q 928 461 928 269 q 875 699 928 599 q 731 854 822 799 q 521 910 639 910 q 435 908 476 910 q 343 900 393 906 l 343 161 q 360 101 343 122 q 422 73 378 81 q 544 65 465 65 z "},"Ð":{"ha":1139,"x_min":63,"x_max":1068,"o":"m 67 463 l 67 526 l 517 526 l 517 463 l 67 463 m 63 0 l 63 53 l 96 56 q 188 78 164 58 q 213 149 213 99 l 213 824 q 188 894 213 874 q 96 917 164 914 l 63 919 l 63 972 l 522 972 q 815 917 693 972 q 1003 758 938 863 q 1068 500 1068 653 q 1004 234 1068 346 q 818 61 940 122 q 524 0 696 0 l 63 0 m 544 65 q 825 167 722 65 q 928 461 928 269 q 875 699 928 599 q 731 854 822 799 q 521 910 639 910 q 435 908 476 910 q 343 900 393 906 l 343 161 q 360 101 343 122 q 422 73 378 81 q 544 65 465 65 z "},"E":{"ha":878,"x_min":57,"x_max":799,"o":"m 763 -8 q 653 -2 708 -4 q 563 0 599 0 l 57 0 l 57 53 l 90 56 q 183 78 158 58 q 207 149 207 97 l 207 824 q 183 894 207 875 q 90 917 158 914 l 57 919 l 57 972 l 565 972 q 665 974 617 972 q 761 981 714 975 l 782 756 l 728 756 q 669 872 710 838 q 554 907 629 907 l 338 907 l 338 529 l 617 529 q 686 550 667 529 q 710 624 706 571 l 711 649 l 764 649 l 764 346 l 711 346 l 710 372 q 687 444 707 424 q 617 465 667 465 l 338 465 l 338 149 q 353 89 338 107 q 408 68 369 71 q 513 65 447 65 q 624 85 581 65 q 697 149 668 106 q 743 265 725 192 l 799 265 l 763 -8 z "},"É":{"ha":878,"x_min":57,"x_max":799,"o":"m 763 -8 q 653 -2 708 -4 q 563 0 599 0 l 57 0 l 57 53 l 90 56 q 183 78 158 58 q 207 149 207 97 l 207 824 q 183 894 207 875 q 90 917 158 914 l 57 919 l 57 972 l 565 972 q 665 974 617 972 q 761 981 714 975 l 782 756 l 728 756 q 669 872 710 838 q 554 907 629 907 l 338 907 l 338 529 l 617 529 q 686 550 667 529 q 710 624 706 571 l 711 649 l 764 649 l 764 346 l 711 346 l 710 372 q 687 444 707 424 q 617 465 667 465 l 338 465 l 338 149 q 353 89 338 107 q 408 68 369 71 q 513 65 447 65 q 624 85 581 65 q 697 149 668 106 q 743 265 725 192 l 799 265 l 763 -8 m 332 1036 l 307 1069 l 421 1206 q 449 1236 436 1222 q 476 1264 463 1250 q 520 1278 496 1281 q 561 1256 544 1276 q 576 1213 578 1236 q 554 1171 574 1189 q 523 1148 539 1157 q 488 1128 507 1139 l 332 1036 z "},"Ě":{"ha":878,"x_min":57,"x_max":799,"o":"m 763 -8 q 653 -2 708 -4 q 563 0 599 0 l 57 0 l 57 53 l 90 56 q 183 78 158 58 q 207 149 207 97 l 207 824 q 183 894 207 875 q 90 917 158 914 l 57 919 l 57 972 l 565 972 q 665 974 617 972 q 761 981 714 975 l 782 756 l 728 756 q 669 872 710 838 q 554 907 629 907 l 338 907 l 338 529 l 617 529 q 686 550 667 529 q 710 624 706 571 l 711 649 l 764 649 l 764 346 l 711 346 l 710 372 q 687 444 707 424 q 617 465 667 465 l 338 465 l 338 149 q 353 89 338 107 q 408 68 369 71 q 513 65 447 65 q 624 85 581 65 q 697 149 668 106 q 743 265 725 192 l 799 265 l 763 -8 m 397 1071 l 244 1251 l 267 1272 l 439 1171 l 442 1171 l 614 1272 l 636 1251 l 485 1071 l 397 1071 z "},"Ê":{"ha":878,"x_min":57,"x_max":799,"o":"m 763 -8 q 653 -2 708 -4 q 563 0 599 0 l 57 0 l 57 53 l 90 56 q 183 78 158 58 q 207 149 207 97 l 207 824 q 183 894 207 875 q 90 917 158 914 l 57 919 l 57 972 l 565 972 q 665 974 617 972 q 761 981 714 975 l 782 756 l 728 756 q 669 872 710 838 q 554 907 629 907 l 338 907 l 338 529 l 617 529 q 686 550 667 529 q 710 624 706 571 l 711 649 l 764 649 l 764 346 l 711 346 l 710 372 q 687 444 707 424 q 617 465 667 465 l 338 465 l 338 149 q 353 89 338 107 q 408 68 369 71 q 513 65 447 65 q 624 85 581 65 q 697 149 668 106 q 743 265 725 192 l 799 265 l 763 -8 m 267 1068 l 244 1089 l 397 1269 l 485 1269 l 636 1089 l 614 1068 l 442 1169 l 439 1169 l 267 1068 z "},"Ë":{"ha":878,"x_min":57,"x_max":799,"o":"m 763 -8 q 653 -2 708 -4 q 563 0 599 0 l 57 0 l 57 53 l 90 56 q 183 78 158 58 q 207 149 207 97 l 207 824 q 183 894 207 875 q 90 917 158 914 l 57 919 l 57 972 l 565 972 q 665 974 617 972 q 761 981 714 975 l 782 756 l 728 756 q 669 872 710 838 q 554 907 629 907 l 338 907 l 338 529 l 617 529 q 686 550 667 529 q 710 624 706 571 l 711 649 l 764 649 l 764 346 l 711 346 l 710 372 q 687 444 707 424 q 617 465 667 465 l 338 465 l 338 149 q 353 89 338 107 q 408 68 369 71 q 513 65 447 65 q 624 85 581 65 q 697 149 668 106 q 743 265 725 192 l 799 265 l 763 -8 m 579 1075 q 523 1097 546 1075 q 500 1154 500 1119 q 523 1210 500 1189 q 579 1232 546 1232 q 634 1210 611 1232 q 657 1154 657 1189 q 634 1097 657 1119 q 579 1075 611 1075 m 303 1075 q 247 1097 269 1075 q 224 1154 224 1119 q 247 1210 224 1189 q 303 1232 269 1232 q 358 1210 335 1232 q 381 1154 381 1189 q 358 1097 381 1119 q 303 1075 335 1075 z "},"Ė":{"ha":878,"x_min":57,"x_max":799,"o":"m 763 -8 q 653 -2 708 -4 q 563 0 599 0 l 57 0 l 57 53 l 90 56 q 183 78 158 58 q 207 149 207 97 l 207 824 q 183 894 207 875 q 90 917 158 914 l 57 919 l 57 972 l 565 972 q 665 974 617 972 q 761 981 714 975 l 782 756 l 728 756 q 669 872 710 838 q 554 907 629 907 l 338 907 l 338 529 l 617 529 q 686 550 667 529 q 710 624 706 571 l 711 649 l 764 649 l 764 346 l 711 346 l 710 372 q 687 444 707 424 q 617 465 667 465 l 338 465 l 338 149 q 353 89 338 107 q 408 68 369 71 q 513 65 447 65 q 624 85 581 65 q 697 149 668 106 q 743 265 725 192 l 799 265 l 763 -8 m 440 1088 q 382 1110 406 1088 q 358 1169 358 1133 q 382 1228 358 1206 q 440 1250 406 1250 q 497 1228 474 1250 q 521 1169 521 1206 q 497 1110 521 1133 q 440 1088 474 1088 z "},"È":{"ha":878,"x_min":57,"x_max":799,"o":"m 763 -8 q 653 -2 708 -4 q 563 0 599 0 l 57 0 l 57 53 l 90 56 q 183 78 158 58 q 207 149 207 97 l 207 824 q 183 894 207 875 q 90 917 158 914 l 57 919 l 57 972 l 565 972 q 665 974 617 972 q 761 981 714 975 l 782 756 l 728 756 q 669 872 710 838 q 554 907 629 907 l 338 907 l 338 529 l 617 529 q 686 550 667 529 q 710 624 706 571 l 711 649 l 764 649 l 764 346 l 711 346 l 710 372 q 687 444 707 424 q 617 465 667 465 l 338 465 l 338 149 q 353 89 338 107 q 408 68 369 71 q 513 65 447 65 q 624 85 581 65 q 697 149 668 106 q 743 265 725 192 l 799 265 l 763 -8 m 536 1036 l 381 1128 q 346 1148 363 1139 q 314 1171 329 1157 q 291 1213 293 1189 q 307 1256 289 1236 q 348 1278 324 1276 q 390 1264 372 1281 q 419 1236 407 1250 q 446 1206 432 1222 l 561 1069 l 536 1036 z "},"Ē":{"ha":878,"x_min":57,"x_max":799,"o":"m 763 -8 q 653 -2 708 -4 q 563 0 599 0 l 57 0 l 57 53 l 90 56 q 183 78 158 58 q 207 149 207 97 l 207 824 q 183 894 207 875 q 90 917 158 914 l 57 919 l 57 972 l 565 972 q 665 974 617 972 q 761 981 714 975 l 782 756 l 728 756 q 669 872 710 838 q 554 907 629 907 l 338 907 l 338 529 l 617 529 q 686 550 667 529 q 710 624 706 571 l 711 649 l 764 649 l 764 346 l 711 346 l 710 372 q 687 444 707 424 q 617 465 667 465 l 338 465 l 338 149 q 353 89 338 107 q 408 68 369 71 q 513 65 447 65 q 624 85 581 65 q 697 149 668 106 q 743 265 725 192 l 799 265 l 763 -8 m 247 1147 l 247 1228 l 633 1228 l 633 1147 l 247 1147 z "},"Ę":{"ha":878,"x_min":57,"x_max":799,"o":"m 763 -8 q 653 -2 708 -4 q 563 0 599 0 l 57 0 l 57 53 l 90 56 q 183 78 158 58 q 207 149 207 97 l 207 824 q 183 894 207 875 q 90 917 158 914 l 57 919 l 57 972 l 565 972 q 665 974 617 972 q 761 981 714 975 l 782 756 l 728 756 q 669 872 710 838 q 554 907 629 907 l 338 907 l 338 529 l 617 529 q 686 550 667 529 q 710 624 706 571 l 711 649 l 764 649 l 764 346 l 711 346 l 710 372 q 687 444 707 424 q 617 465 667 465 l 338 465 l 338 149 q 353 89 338 107 q 408 68 369 71 q 513 65 447 65 q 624 85 581 65 q 697 149 668 106 q 743 265 725 192 l 799 265 l 763 -8 m 526 -357 q 430 -323 471 -357 q 389 -224 389 -289 q 419 -124 389 -169 q 492 -47 449 -79 q 572 0 535 -15 l 631 0 q 593 -21 617 -4 q 544 -63 569 -37 q 502 -124 519 -89 q 485 -199 485 -158 q 578 -287 485 -287 q 633 -279 610 -287 q 667 -265 656 -271 l 683 -286 q 628 -331 664 -306 q 526 -357 592 -357 z "},"F":{"ha":839,"x_min":57,"x_max":769,"o":"m 57 0 l 57 53 l 90 56 q 183 78 158 58 q 207 149 207 97 l 207 824 q 183 894 207 875 q 90 917 158 914 l 57 919 l 57 972 l 554 972 q 654 974 606 972 q 750 981 703 975 l 769 756 l 715 756 q 657 872 697 838 q 542 907 617 907 l 338 907 l 338 511 l 604 511 q 674 532 654 511 q 697 606 694 553 l 699 638 l 751 638 l 751 321 l 699 321 l 697 354 q 675 426 696 406 q 604 447 654 447 l 338 447 l 338 151 q 365 80 338 100 q 465 56 392 60 l 501 53 l 501 0 l 57 0 z "},"G":{"ha":1049,"x_min":68,"x_max":996,"o":"m 611 986 q 797 964 718 986 q 943 908 875 942 l 943 722 l 889 722 q 791 863 865 810 q 588 917 717 917 q 383 865 468 917 q 253 721 299 813 q 208 508 208 629 q 235 340 208 421 q 314 194 261 258 q 444 92 367 129 q 622 56 521 56 q 697 62 663 56 q 753 88 732 68 q 775 146 775 107 l 775 311 q 749 367 775 347 q 638 390 722 386 l 608 392 l 608 444 l 996 444 l 996 392 l 967 389 q 913 363 926 385 q 899 297 899 342 l 899 54 q 758 7 836 28 q 583 -14 679 -14 q 310 49 426 -14 q 131 221 194 111 q 68 472 68 331 q 106 672 68 579 q 217 836 144 765 q 390 947 290 907 q 611 986 490 986 z "},"Ğ":{"ha":1049,"x_min":68,"x_max":996,"o":"m 611 986 q 797 964 718 986 q 943 908 875 942 l 943 722 l 889 722 q 791 863 865 810 q 588 917 717 917 q 383 865 468 917 q 253 721 299 813 q 208 508 208 629 q 235 340 208 421 q 314 194 261 258 q 444 92 367 129 q 622 56 521 56 q 697 62 663 56 q 753 88 732 68 q 775 146 775 107 l 775 311 q 749 367 775 347 q 638 390 722 386 l 608 392 l 608 444 l 996 444 l 996 392 l 967 389 q 913 363 926 385 q 899 297 899 342 l 899 54 q 758 7 836 28 q 583 -14 679 -14 q 310 49 426 -14 q 131 221 194 111 q 68 472 68 331 q 106 672 68 579 q 217 836 144 765 q 390 947 290 907 q 611 986 490 986 m 554 1081 q 404 1130 447 1081 q 365 1250 361 1179 l 411 1250 q 451 1194 418 1218 q 554 1169 485 1169 q 659 1194 625 1169 q 699 1250 693 1218 l 743 1250 q 704 1130 747 1179 q 554 1081 661 1081 z "},"Ĝ":{"ha":1049,"x_min":68,"x_max":996,"o":"m 611 986 q 797 964 718 986 q 943 908 875 942 l 943 722 l 889 722 q 791 863 865 810 q 588 917 717 917 q 383 865 468 917 q 253 721 299 813 q 208 508 208 629 q 235 340 208 421 q 314 194 261 258 q 444 92 367 129 q 622 56 521 56 q 697 62 663 56 q 753 88 732 68 q 775 146 775 107 l 775 311 q 749 367 775 347 q 638 390 722 386 l 608 392 l 608 444 l 996 444 l 996 392 l 967 389 q 913 363 926 385 q 899 297 899 342 l 899 54 q 758 7 836 28 q 583 -14 679 -14 q 310 49 426 -14 q 131 221 194 111 q 68 472 68 331 q 106 672 68 579 q 217 836 144 765 q 390 947 290 907 q 611 986 490 986 m 381 1068 l 358 1089 l 511 1269 l 599 1269 l 750 1089 l 728 1068 l 556 1169 l 553 1169 l 381 1068 z "},"Ģ":{"ha":1049,"x_min":68,"x_max":996,"o":"m 611 986 q 797 964 718 986 q 943 908 875 942 l 943 722 l 889 722 q 791 863 865 810 q 588 917 717 917 q 383 865 468 917 q 253 721 299 813 q 208 508 208 629 q 235 340 208 421 q 314 194 261 258 q 444 92 367 129 q 622 56 521 56 q 697 62 663 56 q 753 88 732 68 q 775 146 775 107 l 775 311 q 749 367 775 347 q 638 390 722 386 l 608 392 l 608 444 l 996 444 l 996 392 l 967 389 q 913 363 926 385 q 899 297 899 342 l 899 54 q 758 7 836 28 q 583 -14 679 -14 q 310 49 426 -14 q 131 221 194 111 q 68 472 68 331 q 106 672 68 579 q 217 836 144 765 q 390 947 290 907 q 611 986 490 986 m 508 -357 l 482 -319 q 567 -251 542 -283 q 593 -167 593 -218 l 629 -133 q 608 -188 629 -167 q 554 -210 586 -210 q 501 -189 524 -210 q 479 -135 479 -168 q 503 -79 479 -101 q 561 -57 526 -57 q 632 -90 608 -57 q 656 -165 656 -124 q 617 -274 656 -229 q 508 -357 579 -319 z "},"Ġ":{"ha":1049,"x_min":68,"x_max":996,"o":"m 611 986 q 797 964 718 986 q 943 908 875 942 l 943 722 l 889 722 q 791 863 865 810 q 588 917 717 917 q 383 865 468 917 q 253 721 299 813 q 208 508 208 629 q 235 340 208 421 q 314 194 261 258 q 444 92 367 129 q 622 56 521 56 q 697 62 663 56 q 753 88 732 68 q 775 146 775 107 l 775 311 q 749 367 775 347 q 638 390 722 386 l 608 392 l 608 444 l 996 444 l 996 392 l 967 389 q 913 363 926 385 q 899 297 899 342 l 899 54 q 758 7 836 28 q 583 -14 679 -14 q 310 49 426 -14 q 131 221 194 111 q 68 472 68 331 q 106 672 68 579 q 217 836 144 765 q 390 947 290 907 q 611 986 490 986 m 554 1088 q 496 1110 519 1088 q 472 1169 472 1133 q 496 1228 472 1206 q 554 1250 519 1250 q 611 1228 588 1250 q 635 1169 635 1206 q 611 1110 635 1133 q 554 1088 588 1088 z "},"Ḡ":{"ha":1049,"x_min":68,"x_max":996,"o":"m 611 986 q 797 964 718 986 q 943 908 875 942 l 943 722 l 889 722 q 791 863 865 810 q 588 917 717 917 q 383 865 468 917 q 253 721 299 813 q 208 508 208 629 q 235 340 208 421 q 314 194 261 258 q 444 92 367 129 q 622 56 521 56 q 697 62 663 56 q 753 88 732 68 q 775 146 775 107 l 775 311 q 749 367 775 347 q 638 390 722 386 l 608 392 l 608 444 l 996 444 l 996 392 l 967 389 q 913 363 926 385 q 899 297 899 342 l 899 54 q 758 7 836 28 q 583 -14 679 -14 q 310 49 426 -14 q 131 221 194 111 q 68 472 68 331 q 106 672 68 579 q 217 836 144 765 q 390 947 290 907 q 611 986 490 986 m 361 1147 l 361 1228 l 747 1228 l 747 1147 l 361 1147 z "},"H":{"ha":1211,"x_min":57,"x_max":1154,"o":"m 724 0 l 724 53 l 757 56 q 834 69 810 58 q 866 100 858 81 q 874 149 874 119 l 874 824 q 866 872 874 853 q 834 903 858 892 q 757 917 810 914 l 724 919 l 724 972 l 1154 972 l 1154 919 l 1121 917 q 1046 903 1071 914 q 1013 872 1021 892 q 1004 824 1004 853 l 1004 149 q 1013 100 1004 119 q 1046 69 1021 81 q 1121 56 1071 58 l 1154 53 l 1154 0 l 724 0 m 57 0 l 57 53 l 90 56 q 167 69 143 58 q 199 100 192 81 q 207 149 207 119 l 207 824 q 199 872 207 853 q 167 903 192 892 q 90 917 143 914 l 57 919 l 57 972 l 488 972 l 488 919 l 454 917 q 379 903 404 914 q 346 872 354 892 q 338 824 338 853 l 338 149 q 346 100 338 119 q 379 69 354 81 q 454 56 404 58 l 488 53 l 488 0 l 57 0 m 276 481 l 276 544 l 921 544 l 921 481 l 276 481 z "},"Ħ":{"ha":1217,"x_min":60,"x_max":1158,"o":"m 60 703 l 60 767 l 1158 767 l 1158 703 l 60 703 m 726 0 l 726 53 l 761 56 q 837 69 813 58 q 869 100 861 81 q 878 149 878 119 l 878 824 q 869 872 878 853 q 837 903 861 892 q 761 917 813 914 l 726 919 l 726 972 l 1158 972 l 1158 919 l 1125 917 q 1049 903 1074 914 q 1016 872 1024 892 q 1008 824 1008 853 l 1008 149 q 1016 100 1008 119 q 1049 69 1024 81 q 1125 56 1074 58 l 1158 53 l 1158 0 l 726 0 m 60 0 l 60 53 l 94 56 q 170 69 146 58 q 203 100 194 81 q 211 149 211 119 l 211 824 q 203 872 211 853 q 170 903 194 892 q 94 917 146 914 l 60 919 l 60 972 l 492 972 l 492 919 l 458 917 q 382 903 407 914 q 349 872 357 892 q 342 824 342 853 l 342 149 q 349 100 342 119 q 382 69 357 81 q 458 56 407 58 l 492 53 l 492 0 l 60 0 m 281 481 l 281 544 l 925 544 l 925 481 l 281 481 z "},"Ĥ":{"ha":1211,"x_min":57,"x_max":1154,"o":"m 724 0 l 724 53 l 757 56 q 834 69 810 58 q 866 100 858 81 q 874 149 874 119 l 874 824 q 866 872 874 853 q 834 903 858 892 q 757 917 810 914 l 724 919 l 724 972 l 1154 972 l 1154 919 l 1121 917 q 1046 903 1071 914 q 1013 872 1021 892 q 1004 824 1004 853 l 1004 149 q 1013 100 1004 119 q 1046 69 1021 81 q 1121 56 1071 58 l 1154 53 l 1154 0 l 724 0 m 57 0 l 57 53 l 90 56 q 167 69 143 58 q 199 100 192 81 q 207 149 207 119 l 207 824 q 199 872 207 853 q 167 903 192 892 q 90 917 143 914 l 57 919 l 57 972 l 488 972 l 488 919 l 454 917 q 379 903 404 914 q 346 872 354 892 q 338 824 338 853 l 338 149 q 346 100 338 119 q 379 69 354 81 q 454 56 404 58 l 488 53 l 488 0 l 57 0 m 276 481 l 276 544 l 921 544 l 921 481 l 276 481 m 432 1068 l 410 1089 l 563 1269 l 650 1269 l 801 1089 l 779 1068 l 607 1169 l 604 1169 l 432 1068 z "},"I":{"ha":544,"x_min":57,"x_max":488,"o":"m 57 0 l 57 53 l 90 56 q 167 69 143 58 q 199 100 192 81 q 207 149 207 119 l 207 824 q 199 872 207 853 q 167 903 192 892 q 90 917 143 914 l 57 919 l 57 972 l 488 972 l 488 919 l 454 917 q 379 903 404 914 q 346 872 354 892 q 338 824 338 853 l 338 149 q 346 100 338 119 q 379 69 354 81 q 454 56 404 58 l 488 53 l 488 0 l 57 0 z "},"Ĳ":{"ha":1181,"x_min":57,"x_max":1144,"o":"m 57 0 l 57 53 l 90 56 q 167 69 143 58 q 199 100 192 81 q 207 149 207 119 l 207 824 q 199 872 207 853 q 167 903 192 892 q 90 917 143 914 l 57 919 l 57 972 l 488 972 l 488 919 l 454 917 q 379 903 404 914 q 346 872 354 892 q 338 824 338 853 l 338 149 q 346 100 338 119 q 379 69 354 81 q 454 56 404 58 l 488 53 l 488 0 l 57 0 m 688 -14 q 585 7 624 -14 q 547 57 547 28 q 563 102 547 85 q 602 124 579 119 q 646 121 625 129 l 750 83 q 776 76 763 78 q 796 75 789 75 q 844 102 828 75 q 865 176 860 129 q 869 281 869 224 l 869 828 q 844 894 869 875 q 753 917 818 914 l 711 919 l 711 972 l 1144 972 l 1144 919 l 1117 917 q 1026 894 1051 913 q 1000 828 1000 875 l 1000 335 q 967 158 1000 238 q 865 33 935 79 q 688 -14 796 -14 z "},"Í":{"ha":544,"x_min":57,"x_max":488,"o":"m 57 0 l 57 53 l 90 56 q 167 69 143 58 q 199 100 192 81 q 207 149 207 119 l 207 824 q 199 872 207 853 q 167 903 192 892 q 90 917 143 914 l 57 919 l 57 972 l 488 972 l 488 919 l 454 917 q 379 903 404 914 q 346 872 354 892 q 338 824 338 853 l 338 149 q 346 100 338 119 q 379 69 354 81 q 454 56 404 58 l 488 53 l 488 0 l 57 0 m 164 1036 l 139 1069 l 253 1206 q 281 1236 268 1222 q 308 1264 294 1250 q 352 1278 328 1281 q 393 1256 376 1276 q 408 1213 410 1236 q 386 1171 406 1189 q 355 1148 371 1157 q 319 1128 339 1139 l 164 1036 z "},"Î":{"ha":544,"x_min":57,"x_max":488,"o":"m 57 0 l 57 53 l 90 56 q 167 69 143 58 q 199 100 192 81 q 207 149 207 119 l 207 824 q 199 872 207 853 q 167 903 192 892 q 90 917 143 914 l 57 919 l 57 972 l 488 972 l 488 919 l 454 917 q 379 903 404 914 q 346 872 354 892 q 338 824 338 853 l 338 149 q 346 100 338 119 q 379 69 354 81 q 454 56 404 58 l 488 53 l 488 0 l 57 0 m 99 1068 l 76 1089 l 229 1269 l 317 1269 l 468 1089 l 446 1068 l 274 1169 l 271 1169 l 99 1068 z "},"Ï":{"ha":544,"x_min":56,"x_max":489,"o":"m 57 0 l 57 53 l 90 56 q 167 69 143 58 q 199 100 192 81 q 207 149 207 119 l 207 824 q 199 872 207 853 q 167 903 192 892 q 90 917 143 914 l 57 919 l 57 972 l 488 972 l 488 919 l 454 917 q 379 903 404 914 q 346 872 354 892 q 338 824 338 853 l 338 149 q 346 100 338 119 q 379 69 354 81 q 454 56 404 58 l 488 53 l 488 0 l 57 0 m 411 1075 q 355 1097 378 1075 q 332 1154 332 1119 q 355 1210 332 1189 q 411 1232 378 1232 q 466 1210 443 1232 q 489 1154 489 1189 q 466 1097 489 1119 q 411 1075 443 1075 m 135 1075 q 78 1097 101 1075 q 56 1154 56 1119 q 78 1210 56 1189 q 135 1232 101 1232 q 190 1210 167 1232 q 213 1154 213 1189 q 190 1097 213 1119 q 135 1075 167 1075 z "},"İ":{"ha":544,"x_min":57,"x_max":488,"o":"m 57 0 l 57 53 l 90 56 q 167 69 143 58 q 199 100 192 81 q 207 149 207 119 l 207 824 q 199 872 207 853 q 167 903 192 892 q 90 917 143 914 l 57 919 l 57 972 l 488 972 l 488 919 l 454 917 q 379 903 404 914 q 346 872 354 892 q 338 824 338 853 l 338 149 q 346 100 338 119 q 379 69 354 81 q 454 56 404 58 l 488 53 l 488 0 l 57 0 m 272 1088 q 214 1110 238 1088 q 190 1169 190 1133 q 214 1228 190 1206 q 272 1250 238 1250 q 329 1228 306 1250 q 353 1169 353 1206 q 329 1110 353 1133 q 272 1088 306 1088 z "},"Ì":{"ha":544,"x_min":57,"x_max":488,"o":"m 57 0 l 57 53 l 90 56 q 167 69 143 58 q 199 100 192 81 q 207 149 207 119 l 207 824 q 199 872 207 853 q 167 903 192 892 q 90 917 143 914 l 57 919 l 57 972 l 488 972 l 488 919 l 454 917 q 379 903 404 914 q 346 872 354 892 q 338 824 338 853 l 338 149 q 346 100 338 119 q 379 69 354 81 q 454 56 404 58 l 488 53 l 488 0 l 57 0 m 368 1036 l 213 1128 q 178 1148 194 1139 q 146 1171 161 1157 q 123 1213 125 1189 q 139 1256 121 1236 q 180 1278 156 1276 q 222 1264 204 1281 q 251 1236 239 1250 q 278 1206 264 1222 l 393 1069 l 368 1036 z "},"Ī":{"ha":544,"x_min":57,"x_max":488,"o":"m 57 0 l 57 53 l 90 56 q 167 69 143 58 q 199 100 192 81 q 207 149 207 119 l 207 824 q 199 872 207 853 q 167 903 192 892 q 90 917 143 914 l 57 919 l 57 972 l 488 972 l 488 919 l 454 917 q 379 903 404 914 q 346 872 354 892 q 338 824 338 853 l 338 149 q 346 100 338 119 q 379 69 354 81 q 454 56 404 58 l 488 53 l 488 0 l 57 0 m 79 1147 l 79 1228 l 465 1228 l 465 1147 l 79 1147 z "},"Į":{"ha":544,"x_min":57,"x_max":488,"o":"m 57 0 l 57 53 l 90 56 q 167 69 143 58 q 199 100 192 81 q 207 149 207 119 l 207 824 q 199 872 207 853 q 167 903 192 892 q 90 917 143 914 l 57 919 l 57 972 l 488 972 l 488 919 l 454 917 q 379 903 404 914 q 346 872 354 892 q 338 824 338 853 l 338 149 q 346 100 338 119 q 379 69 354 81 q 454 56 404 58 l 488 53 l 488 0 l 57 0 m 276 -357 q 180 -323 221 -357 q 139 -224 139 -289 q 169 -124 139 -169 q 242 -47 199 -79 q 322 0 285 -15 l 381 0 q 343 -21 367 -4 q 294 -63 319 -37 q 252 -124 269 -89 q 235 -199 235 -158 q 328 -287 235 -287 q 383 -279 360 -287 q 417 -265 406 -271 l 433 -286 q 378 -331 414 -306 q 276 -357 342 -357 z "},"Ĩ":{"ha":544,"x_min":24,"x_max":521,"o":"m 57 0 l 57 53 l 90 56 q 167 69 143 58 q 199 100 192 81 q 207 149 207 119 l 207 824 q 199 872 207 853 q 167 903 192 892 q 90 917 143 914 l 57 919 l 57 972 l 488 972 l 488 919 l 454 917 q 379 903 404 914 q 346 872 354 892 q 338 824 338 853 l 338 149 q 346 100 338 119 q 379 69 354 81 q 454 56 404 58 l 488 53 l 488 0 l 57 0 m 65 1107 l 24 1115 q 69 1207 43 1175 q 122 1251 94 1239 q 175 1263 150 1263 q 230 1253 204 1263 q 272 1238 256 1244 l 303 1224 q 347 1207 329 1213 q 381 1201 364 1201 q 443 1220 421 1201 q 479 1267 465 1239 l 521 1258 q 476 1167 501 1199 q 424 1123 451 1135 q 369 1111 396 1111 q 315 1120 340 1111 q 272 1136 289 1129 l 242 1150 q 198 1167 215 1161 q 164 1172 181 1172 q 102 1153 125 1172 q 65 1107 79 1135 z "},"J":{"ha":636,"x_min":3,"x_max":600,"o":"m 143 -14 q 41 7 79 -14 q 3 57 3 28 q 19 102 3 85 q 58 124 35 119 q 101 121 81 129 l 206 83 q 231 76 218 78 q 251 75 244 75 q 299 102 283 75 q 320 176 315 129 q 325 281 325 224 l 325 828 q 299 894 325 875 q 208 917 274 914 l 167 919 l 167 972 l 600 972 l 600 919 l 572 917 q 481 894 507 913 q 456 828 456 875 l 456 335 q 423 158 456 238 q 321 33 390 79 q 143 -14 251 -14 z "},"Ĵ":{"ha":636,"x_min":3,"x_max":600,"o":"m 143 -14 q 41 7 79 -14 q 3 57 3 28 q 19 102 3 85 q 58 124 35 119 q 101 121 81 129 l 206 83 q 231 76 218 78 q 251 75 244 75 q 299 102 283 75 q 320 176 315 129 q 325 281 325 224 l 325 828 q 299 894 325 875 q 208 917 274 914 l 167 919 l 167 972 l 600 972 l 600 919 l 572 917 q 481 894 507 913 q 456 828 456 875 l 456 335 q 423 158 456 238 q 321 33 390 79 q 143 -14 251 -14 m 214 1068 l 192 1089 l 344 1269 l 432 1269 l 583 1089 l 561 1068 l 389 1169 l 386 1169 l 214 1068 z "},"K":{"ha":1051,"x_min":57,"x_max":1029,"o":"m 324 354 l 314 433 l 714 814 q 759 888 765 861 q 689 918 753 915 l 660 919 l 660 972 l 1029 972 l 1029 919 l 1004 917 q 952 908 978 915 q 899 885 926 900 q 840 840 871 869 l 324 354 m 618 0 l 618 53 l 664 57 q 715 90 710 61 q 694 151 719 118 l 450 494 l 540 575 l 854 140 q 927 76 890 92 q 1017 53 964 60 l 1017 0 l 618 0 m 57 0 l 57 53 l 90 56 q 183 78 158 58 q 207 149 207 97 l 207 824 q 183 894 207 875 q 90 917 158 914 l 57 919 l 57 972 l 476 972 l 476 919 l 443 917 q 361 894 385 914 q 338 824 338 875 l 338 149 q 363 78 338 97 q 457 56 388 58 l 490 53 l 490 0 l 57 0 z "},"Ķ":{"ha":1051,"x_min":57,"x_max":1029,"o":"m 324 354 l 314 433 l 714 814 q 759 888 765 861 q 689 918 753 915 l 660 919 l 660 972 l 1029 972 l 1029 919 l 1004 917 q 952 908 978 915 q 899 885 926 900 q 840 840 871 869 l 324 354 m 618 0 l 618 53 l 664 57 q 715 90 710 61 q 694 151 719 118 l 450 494 l 540 575 l 854 140 q 927 76 890 92 q 1017 53 964 60 l 1017 0 l 618 0 m 57 0 l 57 53 l 90 56 q 183 78 158 58 q 207 149 207 97 l 207 824 q 183 894 207 875 q 90 917 158 914 l 57 919 l 57 972 l 476 972 l 476 919 l 443 917 q 361 894 385 914 q 338 824 338 875 l 338 149 q 363 78 338 97 q 457 56 388 58 l 490 53 l 490 0 l 57 0 m 464 -357 l 438 -319 q 523 -251 497 -283 q 549 -167 549 -218 l 585 -133 q 563 -188 585 -167 q 510 -210 542 -210 q 457 -189 479 -210 q 435 -135 435 -168 q 458 -79 435 -101 q 517 -57 482 -57 q 588 -90 564 -57 q 611 -165 611 -124 q 573 -274 611 -229 q 464 -357 535 -319 z "},"L":{"ha":847,"x_min":57,"x_max":826,"o":"m 790 -8 q 693 -3 750 -6 q 590 0 636 0 l 57 0 l 57 53 l 90 56 q 183 78 160 58 q 207 149 207 99 l 207 824 q 183 894 207 875 q 90 917 158 914 l 57 919 l 57 972 l 490 972 l 490 919 l 454 917 q 362 894 386 914 q 338 824 338 875 l 338 149 q 356 89 338 107 q 417 68 375 71 q 524 65 458 65 q 644 84 596 65 q 722 147 692 103 q 771 265 753 190 l 826 265 l 790 -8 z "},"Ĺ":{"ha":847,"x_min":57,"x_max":826,"o":"m 790 -8 q 693 -3 750 -6 q 590 0 636 0 l 57 0 l 57 53 l 90 56 q 183 78 160 58 q 207 149 207 99 l 207 824 q 183 894 207 875 q 90 917 158 914 l 57 919 l 57 972 l 490 972 l 490 919 l 454 917 q 362 894 386 914 q 338 824 338 875 l 338 149 q 356 89 338 107 q 417 68 375 71 q 524 65 458 65 q 644 84 596 65 q 722 147 692 103 q 771 265 753 190 l 826 265 l 790 -8 m 167 1036 l 142 1069 l 256 1206 q 284 1236 271 1222 q 311 1264 297 1250 q 355 1278 331 1281 q 396 1256 379 1276 q 410 1213 413 1236 q 389 1171 408 1189 q 358 1148 374 1157 q 322 1128 342 1139 l 167 1036 z "},"Ľ":{"ha":858,"x_min":57,"x_max":826,"o":"m 631 686 l 603 724 q 690 792 664 760 q 715 876 715 825 l 751 910 q 730 855 751 876 q 676 833 708 833 q 624 854 646 833 q 601 908 601 875 q 625 964 601 942 q 683 986 649 986 q 754 953 731 986 q 778 878 778 919 q 740 769 778 814 q 631 686 701 724 m 790 -8 q 693 -3 750 -6 q 590 0 636 0 l 57 0 l 57 53 l 90 56 q 183 78 160 58 q 207 149 207 99 l 207 824 q 183 894 207 875 q 90 917 158 914 l 57 919 l 57 972 l 490 972 l 490 919 l 454 917 q 362 894 386 914 q 338 824 338 875 l 338 149 q 356 89 338 107 q 417 68 375 71 q 524 65 458 65 q 644 84 596 65 q 722 147 692 103 q 771 265 753 190 l 826 265 l 790 -8 z "},"Ļ":{"ha":847,"x_min":57,"x_max":826,"o":"m 790 -8 q 693 -3 750 -6 q 590 0 636 0 l 57 0 l 57 53 l 90 56 q 183 78 160 58 q 207 149 207 99 l 207 824 q 183 894 207 875 q 90 917 158 914 l 57 919 l 57 972 l 490 972 l 490 919 l 454 917 q 362 894 386 914 q 338 824 338 875 l 338 149 q 356 89 338 107 q 417 68 375 71 q 524 65 458 65 q 644 84 596 65 q 722 147 692 103 q 771 265 753 190 l 826 265 l 790 -8 m 367 -357 l 340 -319 q 426 -251 400 -283 q 451 -167 451 -218 l 488 -133 q 466 -188 488 -167 q 413 -210 444 -210 q 360 -189 382 -210 q 338 -135 338 -168 q 361 -79 338 -101 q 419 -57 385 -57 q 490 -90 467 -57 q 514 -165 514 -124 q 476 -274 514 -229 q 367 -357 438 -319 z "},"Ł":{"ha":869,"x_min":78,"x_max":849,"o":"m 82 350 l 82 418 l 568 613 l 568 544 l 82 350 m 813 -8 q 714 -3 771 -6 q 613 0 657 0 l 78 0 l 78 53 l 113 56 q 205 78 181 58 q 229 149 229 99 l 229 824 q 205 894 229 875 q 113 917 181 914 l 78 919 l 78 972 l 513 972 l 513 919 l 476 917 q 384 894 408 914 q 360 824 360 875 l 360 149 q 378 89 360 107 q 439 68 397 71 q 546 65 481 65 q 665 84 618 65 q 743 147 713 103 q 793 265 774 190 l 849 265 l 813 -8 z "},"M":{"ha":1331,"x_min":42,"x_max":1304,"o":"m 42 0 l 42 53 l 71 56 q 139 72 118 61 q 168 104 160 82 q 179 164 176 126 l 238 808 q 219 887 243 864 q 119 917 196 910 l 90 919 l 90 972 l 375 972 l 683 147 l 647 147 l 946 972 l 1222 972 l 1222 919 l 1193 917 q 1119 901 1143 913 q 1090 868 1096 890 q 1088 808 1085 846 l 1144 182 q 1165 103 1150 129 q 1208 69 1181 78 q 1272 56 1235 60 l 1304 53 l 1304 0 l 893 0 l 893 53 l 939 57 q 1010 91 997 63 q 1017 182 1022 119 l 956 871 l 975 867 l 660 0 l 607 0 l 303 808 l 256 164 q 259 103 253 126 q 292 68 265 79 q 378 54 318 57 l 407 53 l 407 0 l 42 0 z "},"N":{"ha":1179,"x_min":57,"x_max":1132,"o":"m 951 -11 l 269 808 q 272 649 271 728 q 274 490 272 569 q 276 328 275 410 q 276 161 276 246 q 285 102 276 125 q 319 68 293 79 q 397 54 346 57 l 426 53 l 426 0 l 64 0 l 64 53 l 93 56 q 163 72 140 61 q 192 103 185 82 q 200 161 200 125 l 204 822 q 183 890 204 869 q 86 917 161 910 l 57 919 l 57 972 l 300 972 l 925 222 q 923 388 924 310 q 922 537 922 465 q 920 676 921 608 q 919 808 919 743 q 911 869 919 846 q 877 903 903 892 q 797 918 851 915 l 768 919 l 768 972 l 1132 972 l 1132 919 l 1103 917 q 1033 901 1057 913 q 1002 868 1010 890 q 994 808 994 846 l 990 -11 l 951 -11 z "},"Ń":{"ha":1179,"x_min":57,"x_max":1132,"o":"m 951 -11 l 269 808 q 272 649 271 728 q 274 490 272 569 q 276 328 275 410 q 276 161 276 246 q 285 102 276 125 q 319 68 293 79 q 397 54 346 57 l 426 53 l 426 0 l 64 0 l 64 53 l 93 56 q 163 72 140 61 q 192 103 185 82 q 200 161 200 125 l 204 822 q 183 890 204 869 q 86 917 161 910 l 57 919 l 57 972 l 300 972 l 925 222 q 923 388 924 310 q 922 537 922 465 q 920 676 921 608 q 919 808 919 743 q 911 869 919 846 q 877 903 903 892 q 797 918 851 915 l 768 919 l 768 972 l 1132 972 l 1132 919 l 1103 917 q 1033 901 1057 913 q 1002 868 1010 890 q 994 808 994 846 l 990 -11 l 951 -11 m 486 1036 l 461 1069 l 575 1206 q 603 1236 590 1222 q 631 1264 617 1250 q 674 1278 650 1281 q 715 1256 699 1276 q 730 1213 732 1236 q 708 1171 728 1189 q 677 1148 693 1157 q 642 1128 661 1139 l 486 1036 z "},"Ň":{"ha":1179,"x_min":57,"x_max":1132,"o":"m 951 -11 l 269 808 q 272 649 271 728 q 274 490 272 569 q 276 328 275 410 q 276 161 276 246 q 285 102 276 125 q 319 68 293 79 q 397 54 346 57 l 426 53 l 426 0 l 64 0 l 64 53 l 93 56 q 163 72 140 61 q 192 103 185 82 q 200 161 200 125 l 204 822 q 183 890 204 869 q 86 917 161 910 l 57 919 l 57 972 l 300 972 l 925 222 q 923 388 924 310 q 922 537 922 465 q 920 676 921 608 q 919 808 919 743 q 911 869 919 846 q 877 903 903 892 q 797 918 851 915 l 768 919 l 768 972 l 1132 972 l 1132 919 l 1103 917 q 1033 901 1057 913 q 1002 868 1010 890 q 994 808 994 846 l 990 -11 l 951 -11 m 551 1071 l 399 1251 l 421 1272 l 593 1171 l 596 1171 l 768 1272 l 790 1251 l 639 1071 l 551 1071 z "},"Ņ":{"ha":1179,"x_min":57,"x_max":1132,"o":"m 951 -11 l 269 808 q 272 649 271 728 q 274 490 272 569 q 276 328 275 410 q 276 161 276 246 q 285 102 276 125 q 319 68 293 79 q 397 54 346 57 l 426 53 l 426 0 l 64 0 l 64 53 l 93 56 q 163 72 140 61 q 192 103 185 82 q 200 161 200 125 l 204 822 q 183 890 204 869 q 86 917 161 910 l 57 919 l 57 972 l 300 972 l 925 222 q 923 388 924 310 q 922 537 922 465 q 920 676 921 608 q 919 808 919 743 q 911 869 919 846 q 877 903 903 892 q 797 918 851 915 l 768 919 l 768 972 l 1132 972 l 1132 919 l 1103 917 q 1033 901 1057 913 q 1002 868 1010 890 q 994 808 994 846 l 990 -11 l 951 -11 m 535 -357 l 508 -319 q 594 -251 568 -283 q 619 -167 619 -218 l 656 -133 q 634 -188 656 -167 q 581 -210 613 -210 q 528 -189 550 -210 q 506 -135 506 -168 q 529 -79 506 -101 q 588 -57 553 -57 q 658 -90 635 -57 q 682 -165 682 -124 q 644 -274 682 -229 q 535 -357 606 -319 z "},"Ñ":{"ha":1179,"x_min":57,"x_max":1132,"o":"m 951 -11 l 269 808 q 272 649 271 728 q 274 490 272 569 q 276 328 275 410 q 276 161 276 246 q 285 102 276 125 q 319 68 293 79 q 397 54 346 57 l 426 53 l 426 0 l 64 0 l 64 53 l 93 56 q 163 72 140 61 q 192 103 185 82 q 200 161 200 125 l 204 822 q 183 890 204 869 q 86 917 161 910 l 57 919 l 57 972 l 300 972 l 925 222 q 923 388 924 310 q 922 537 922 465 q 920 676 921 608 q 919 808 919 743 q 911 869 919 846 q 877 903 903 892 q 797 918 851 915 l 768 919 l 768 972 l 1132 972 l 1132 919 l 1103 917 q 1033 901 1057 913 q 1002 868 1010 890 q 994 808 994 846 l 990 -11 l 951 -11 m 388 1107 l 346 1115 q 391 1207 365 1175 q 444 1251 417 1239 q 497 1263 472 1263 q 552 1253 526 1263 q 594 1238 578 1244 l 625 1224 q 669 1207 651 1213 q 703 1201 686 1201 q 765 1220 743 1201 q 801 1267 788 1239 l 843 1258 q 799 1167 824 1199 q 746 1123 774 1135 q 692 1111 718 1111 q 637 1120 663 1111 q 594 1136 611 1129 l 564 1150 q 520 1167 538 1161 q 486 1172 503 1172 q 424 1153 447 1172 q 388 1107 401 1135 z "},"Ŋ":{"ha":1179,"x_min":57,"x_max":1132,"o":"m 751 -357 q 646 -337 685 -357 q 607 -282 607 -317 q 622 -243 607 -258 q 657 -222 636 -228 q 693 -224 678 -217 l 793 -260 q 815 -265 803 -262 q 840 -268 826 -268 q 904 -217 883 -268 q 925 -64 925 -167 l 925 21 l 269 808 l 276 161 q 285 102 276 125 q 319 68 293 79 q 397 54 346 57 l 426 53 l 426 0 l 64 0 l 64 53 l 93 56 q 163 72 140 61 q 192 103 185 82 q 200 161 200 125 l 204 822 q 183 890 204 869 q 86 917 161 910 l 57 919 l 57 972 l 300 972 l 925 222 l 919 808 q 910 869 919 846 q 876 903 901 892 q 797 918 851 915 l 768 919 l 768 972 l 1132 972 l 1132 919 l 1103 917 q 1033 901 1057 913 q 1002 868 1010 890 q 994 808 994 846 l 990 -62 q 933 -287 989 -218 q 751 -357 876 -357 z "},"O":{"ha":1169,"x_min":69,"x_max":1100,"o":"m 578 -14 q 310 49 425 -14 q 133 224 196 111 q 69 486 69 336 q 135 747 69 635 q 320 923 201 860 q 594 986 439 986 q 860 924 747 986 q 1037 749 974 861 q 1100 485 1100 636 q 1034 225 1100 338 q 851 49 968 113 q 578 -14 733 -14 m 617 61 q 798 108 721 61 q 917 238 875 154 q 960 436 960 322 q 907 682 960 575 q 763 850 854 789 q 553 911 671 911 q 372 865 449 911 q 252 734 294 818 q 210 536 210 650 q 263 291 210 399 q 407 122 315 183 q 617 61 499 61 z "},"Ó":{"ha":1169,"x_min":69,"x_max":1100,"o":"m 578 -14 q 310 49 425 -14 q 133 224 196 111 q 69 486 69 336 q 135 747 69 635 q 320 923 201 860 q 594 986 439 986 q 860 924 747 986 q 1037 749 974 861 q 1100 485 1100 636 q 1034 225 1100 338 q 851 49 968 113 q 578 -14 733 -14 m 617 61 q 798 108 721 61 q 917 238 875 154 q 960 436 960 322 q 907 682 960 575 q 763 850 854 789 q 553 911 671 911 q 372 865 449 911 q 252 734 294 818 q 210 536 210 650 q 263 291 210 399 q 407 122 315 183 q 617 61 499 61 m 472 1036 l 447 1069 l 561 1206 q 590 1236 576 1222 q 617 1264 603 1250 q 660 1278 636 1281 q 701 1256 685 1276 q 716 1213 718 1236 q 694 1171 714 1189 q 663 1148 679 1157 q 628 1128 647 1139 l 472 1036 z "},"Ô":{"ha":1169,"x_min":69,"x_max":1100,"o":"m 578 -14 q 310 49 425 -14 q 133 224 196 111 q 69 486 69 336 q 135 747 69 635 q 320 923 201 860 q 594 986 439 986 q 860 924 747 986 q 1037 749 974 861 q 1100 485 1100 636 q 1034 225 1100 338 q 851 49 968 113 q 578 -14 733 -14 m 617 61 q 798 108 721 61 q 917 238 875 154 q 960 436 960 322 q 907 682 960 575 q 763 850 854 789 q 553 911 671 911 q 372 865 449 911 q 252 734 294 818 q 210 536 210 650 q 263 291 210 399 q 407 122 315 183 q 617 61 499 61 m 408 1068 l 386 1089 l 539 1269 l 626 1269 l 778 1089 l 756 1068 l 583 1169 l 581 1169 l 408 1068 z "},"Ö":{"ha":1169,"x_min":69,"x_max":1100,"o":"m 578 -14 q 310 49 425 -14 q 133 224 196 111 q 69 486 69 336 q 135 747 69 635 q 320 923 201 860 q 594 986 439 986 q 860 924 747 986 q 1037 749 974 861 q 1100 485 1100 636 q 1034 225 1100 338 q 851 49 968 113 q 578 -14 733 -14 m 617 61 q 798 108 721 61 q 917 238 875 154 q 960 436 960 322 q 907 682 960 575 q 763 850 854 789 q 553 911 671 911 q 372 865 449 911 q 252 734 294 818 q 210 536 210 650 q 263 291 210 399 q 407 122 315 183 q 617 61 499 61 m 721 1075 q 665 1097 688 1075 q 642 1154 642 1119 q 665 1210 642 1189 q 721 1232 688 1232 q 776 1210 753 1232 q 799 1154 799 1189 q 776 1097 799 1119 q 721 1075 753 1075 m 444 1075 q 388 1097 411 1075 q 365 1154 365 1119 q 388 1210 365 1189 q 444 1232 411 1232 q 499 1210 476 1232 q 522 1154 522 1189 q 499 1097 522 1119 q 444 1075 476 1075 z "},"Ò":{"ha":1169,"x_min":69,"x_max":1100,"o":"m 578 -14 q 310 49 425 -14 q 133 224 196 111 q 69 486 69 336 q 135 747 69 635 q 320 923 201 860 q 594 986 439 986 q 860 924 747 986 q 1037 749 974 861 q 1100 485 1100 636 q 1034 225 1100 338 q 851 49 968 113 q 578 -14 733 -14 m 617 61 q 798 108 721 61 q 917 238 875 154 q 960 436 960 322 q 907 682 960 575 q 763 850 854 789 q 553 911 671 911 q 372 865 449 911 q 252 734 294 818 q 210 536 210 650 q 263 291 210 399 q 407 122 315 183 q 617 61 499 61 m 678 1036 l 522 1128 q 488 1148 504 1139 q 456 1171 471 1157 q 433 1213 435 1189 q 449 1256 431 1236 q 490 1278 465 1276 q 532 1264 514 1281 q 561 1236 549 1250 q 588 1206 574 1222 l 703 1069 l 678 1036 z "},"Ő":{"ha":1169,"x_min":69,"x_max":1100,"o":"m 578 -14 q 310 49 425 -14 q 133 224 196 111 q 69 486 69 336 q 135 747 69 635 q 320 923 201 860 q 594 986 439 986 q 860 924 747 986 q 1037 749 974 861 q 1100 485 1100 636 q 1034 225 1100 338 q 851 49 968 113 q 578 -14 733 -14 m 617 61 q 798 108 721 61 q 917 238 875 154 q 960 436 960 322 q 907 682 960 575 q 763 850 854 789 q 553 911 671 911 q 372 865 449 911 q 252 734 294 818 q 210 536 210 650 q 263 291 210 399 q 407 122 315 183 q 617 61 499 61 m 621 1036 l 596 1069 l 710 1206 q 738 1236 725 1222 q 765 1264 751 1250 q 809 1278 785 1281 q 850 1256 833 1276 q 865 1213 867 1236 q 843 1171 863 1189 q 812 1148 828 1157 q 776 1128 796 1139 l 621 1036 m 371 1036 l 346 1069 l 460 1206 q 488 1236 475 1222 q 515 1264 501 1250 q 559 1278 535 1281 q 600 1256 583 1276 q 615 1213 617 1236 q 593 1171 613 1189 q 562 1148 578 1157 q 526 1128 546 1139 l 371 1036 z "},"Ō":{"ha":1169,"x_min":69,"x_max":1100,"o":"m 578 -14 q 310 49 425 -14 q 133 224 196 111 q 69 486 69 336 q 135 747 69 635 q 320 923 201 860 q 594 986 439 986 q 860 924 747 986 q 1037 749 974 861 q 1100 485 1100 636 q 1034 225 1100 338 q 851 49 968 113 q 578 -14 733 -14 m 617 61 q 798 108 721 61 q 917 238 875 154 q 960 436 960 322 q 907 682 960 575 q 763 850 854 789 q 553 911 671 911 q 372 865 449 911 q 252 734 294 818 q 210 536 210 650 q 263 291 210 399 q 407 122 315 183 q 617 61 499 61 m 389 1147 l 389 1228 l 775 1228 l 775 1147 l 389 1147 z "},"Ø":{"ha":1169,"x_min":69,"x_max":1100,"o":"m 217 -67 l 876 1039 l 956 1039 l 296 -67 l 217 -67 m 578 -14 q 310 49 425 -14 q 133 224 196 111 q 69 486 69 336 q 135 747 69 635 q 320 923 201 860 q 594 986 439 986 q 860 924 747 986 q 1037 749 974 861 q 1100 485 1100 636 q 1034 225 1100 338 q 851 49 968 113 q 578 -14 733 -14 m 617 61 q 798 108 721 61 q 917 238 875 154 q 960 436 960 322 q 907 682 960 575 q 763 850 854 789 q 553 911 671 911 q 372 865 449 911 q 252 734 294 818 q 210 536 210 650 q 263 291 210 399 q 407 122 315 183 q 617 61 499 61 z "},"Õ":{"ha":1169,"x_min":69,"x_max":1100,"o":"m 578 -14 q 310 49 425 -14 q 133 224 196 111 q 69 486 69 336 q 135 747 69 635 q 320 923 201 860 q 594 986 439 986 q 860 924 747 986 q 1037 749 974 861 q 1100 485 1100 636 q 1034 225 1100 338 q 851 49 968 113 q 578 -14 733 -14 m 617 61 q 798 108 721 61 q 917 238 875 154 q 960 436 960 322 q 907 682 960 575 q 763 850 854 789 q 553 911 671 911 q 372 865 449 911 q 252 734 294 818 q 210 536 210 650 q 263 291 210 399 q 407 122 315 183 q 617 61 499 61 m 375 1107 l 333 1115 q 378 1207 353 1175 q 432 1251 404 1239 q 485 1263 460 1263 q 540 1253 514 1263 q 582 1238 565 1244 l 613 1224 q 656 1207 639 1213 q 690 1201 674 1201 q 753 1220 731 1201 q 789 1267 775 1239 l 831 1258 q 786 1167 811 1199 q 733 1123 761 1135 q 679 1111 706 1111 q 624 1120 650 1111 q 582 1136 599 1129 l 551 1150 q 508 1167 525 1161 q 474 1172 490 1172 q 412 1153 435 1172 q 375 1107 389 1135 z "},"Œ":{"ha":1381,"x_min":69,"x_max":1301,"o":"m 578 -14 q 310 49 425 -14 q 133 224 196 111 q 69 486 69 336 q 135 747 69 635 q 320 923 201 860 q 594 986 439 986 q 679 983 638 986 q 771 976 721 979 q 886 972 821 972 l 1068 972 q 1168 974 1119 972 q 1264 981 1217 975 l 1285 756 l 1231 756 q 1172 872 1213 838 q 1057 907 1132 907 l 838 907 l 838 529 l 1119 529 q 1188 550 1168 529 q 1211 624 1208 571 l 1214 649 l 1267 649 l 1267 346 l 1214 346 l 1213 372 q 1189 444 1210 424 q 1119 465 1168 465 l 838 465 l 838 149 q 853 89 838 107 q 909 68 869 71 q 1015 65 949 65 q 1126 85 1082 65 q 1199 149 1171 106 q 1246 265 1228 192 l 1301 265 l 1265 -8 q 1156 -2 1211 -4 q 1065 0 1101 0 l 786 0 q 674 -8 732 -1 q 578 -14 617 -14 m 617 61 q 646 62 628 61 q 682 65 664 63 q 710 71 700 68 l 710 897 q 626 910 658 908 q 564 913 594 913 q 375 866 454 913 q 253 735 296 819 q 210 536 210 650 q 263 291 210 399 q 407 122 315 183 q 617 61 499 61 z "},"P":{"ha":842,"x_min":57,"x_max":804,"o":"m 57 0 l 57 53 l 90 56 q 166 69 142 58 q 199 99 190 79 q 207 149 207 119 l 207 824 q 199 874 207 854 q 166 903 190 893 q 90 917 142 914 l 57 919 l 57 972 l 471 972 q 724 906 643 972 q 804 728 804 840 q 765 576 804 644 q 646 469 725 508 q 446 429 567 431 l 301 428 l 301 489 l 407 489 q 540 513 482 489 q 630 588 597 538 q 663 714 663 638 q 614 860 663 807 q 463 914 565 914 q 372 905 407 914 q 338 864 338 896 l 338 149 q 346 99 338 118 q 383 69 354 79 q 468 56 411 58 l 501 53 l 501 0 l 57 0 z "},"Þ":{"ha":861,"x_min":57,"x_max":804,"o":"m 57 0 l 57 53 l 90 56 q 166 69 142 58 q 199 99 190 79 q 207 149 207 119 l 207 824 q 199 874 207 854 q 166 903 190 893 q 90 917 142 914 l 57 919 l 57 972 l 501 972 l 501 919 l 468 917 q 383 903 411 914 q 346 874 354 893 q 338 824 338 854 l 338 771 l 471 771 q 724 705 643 771 q 804 526 804 639 q 765 376 804 443 q 646 269 725 308 q 446 228 567 229 l 338 226 l 338 149 q 346 99 338 118 q 383 69 354 79 q 468 56 411 58 l 501 53 l 501 0 l 57 0 m 338 288 l 407 288 q 540 312 482 288 q 630 385 597 336 q 663 513 663 435 q 614 659 663 606 q 463 713 565 713 q 372 703 407 713 q 338 663 338 694 l 338 288 z "},"Q":{"ha":1169,"x_min":69,"x_max":1100,"o":"m 578 -14 q 310 49 425 -14 q 133 224 196 111 q 69 486 69 336 q 135 747 69 635 q 320 923 201 860 q 594 986 439 986 q 860 924 747 986 q 1037 749 974 861 q 1100 485 1100 636 q 1034 225 1100 338 q 851 49 968 113 q 578 -14 733 -14 m 1057 -128 l 629 -11 l 643 14 l 1096 14 l 1096 -128 l 1057 -128 m 617 61 q 798 108 721 61 q 917 238 875 154 q 960 436 960 322 q 907 682 960 575 q 763 850 854 789 q 553 911 671 911 q 372 865 449 911 q 252 734 294 818 q 210 536 210 650 q 263 291 210 399 q 407 122 315 183 q 617 61 499 61 z "},"R":{"ha":946,"x_min":57,"x_max":911,"o":"m 57 0 l 57 53 l 90 56 q 183 78 158 58 q 207 149 207 97 l 207 824 q 183 894 207 875 q 90 917 158 914 l 57 919 l 57 972 l 486 972 q 746 911 660 972 q 832 732 832 850 q 809 630 832 681 q 731 540 786 579 q 578 483 675 500 q 696 417 650 463 q 769 297 742 371 q 813 115 797 222 q 832 72 817 89 q 881 54 847 56 l 911 53 l 911 0 l 793 0 q 709 25 733 0 q 674 113 685 50 q 625 298 656 219 q 546 419 594 376 q 425 461 497 461 l 338 461 l 338 149 q 364 78 338 97 q 465 56 390 60 l 501 53 l 501 0 l 57 0 m 338 524 l 461 524 q 627 582 564 524 q 690 728 690 640 q 637 866 690 818 q 476 914 583 914 q 369 903 400 914 q 338 864 338 892 l 338 524 z "},"Ŕ":{"ha":946,"x_min":57,"x_max":911,"o":"m 57 0 l 57 53 l 90 56 q 183 78 158 58 q 207 149 207 97 l 207 824 q 183 894 207 875 q 90 917 158 914 l 57 919 l 57 972 l 486 972 q 746 911 660 972 q 832 732 832 850 q 809 630 832 681 q 731 540 786 579 q 578 483 675 500 q 696 417 650 463 q 769 297 742 371 q 813 115 797 222 q 832 72 817 89 q 881 54 847 56 l 911 53 l 911 0 l 793 0 q 709 25 733 0 q 674 113 685 50 q 625 298 656 219 q 546 419 594 376 q 425 461 497 461 l 338 461 l 338 149 q 364 78 338 97 q 465 56 390 60 l 501 53 l 501 0 l 57 0 m 338 524 l 461 524 q 627 582 564 524 q 690 728 690 640 q 637 866 690 818 q 476 914 583 914 q 369 903 400 914 q 338 864 338 892 l 338 524 m 365 1036 l 340 1069 l 454 1206 q 483 1236 469 1222 q 510 1264 496 1250 q 553 1278 529 1281 q 594 1256 578 1276 q 609 1213 611 1236 q 588 1171 607 1189 q 556 1148 572 1157 q 521 1128 540 1139 l 365 1036 z "},"Ř":{"ha":946,"x_min":57,"x_max":911,"o":"m 57 0 l 57 53 l 90 56 q 183 78 158 58 q 207 149 207 97 l 207 824 q 183 894 207 875 q 90 917 158 914 l 57 919 l 57 972 l 486 972 q 746 911 660 972 q 832 732 832 850 q 809 630 832 681 q 731 540 786 579 q 578 483 675 500 q 696 417 650 463 q 769 297 742 371 q 813 115 797 222 q 832 72 817 89 q 881 54 847 56 l 911 53 l 911 0 l 793 0 q 709 25 733 0 q 674 113 685 50 q 625 298 656 219 q 546 419 594 376 q 425 461 497 461 l 338 461 l 338 149 q 364 78 338 97 q 465 56 390 60 l 501 53 l 501 0 l 57 0 m 338 524 l 461 524 q 627 582 564 524 q 690 728 690 640 q 637 866 690 818 q 476 914 583 914 q 369 903 400 914 q 338 864 338 892 l 338 524 m 432 1071 l 279 1251 l 301 1272 l 474 1171 l 476 1171 l 649 1272 l 671 1251 l 519 1071 l 432 1071 z "},"Ŗ":{"ha":946,"x_min":57,"x_max":911,"o":"m 57 0 l 57 53 l 90 56 q 183 78 158 58 q 207 149 207 97 l 207 824 q 183 894 207 875 q 90 917 158 914 l 57 919 l 57 972 l 486 972 q 746 911 660 972 q 832 732 832 850 q 809 630 832 681 q 731 540 786 579 q 578 483 675 500 q 696 417 650 463 q 769 297 742 371 q 813 115 797 222 q 832 72 817 89 q 881 54 847 56 l 911 53 l 911 0 l 793 0 q 709 25 733 0 q 674 113 685 50 q 625 298 656 219 q 546 419 594 376 q 425 461 497 461 l 338 461 l 338 149 q 364 78 338 97 q 465 56 390 60 l 501 53 l 501 0 l 57 0 m 338 524 l 461 524 q 627 582 564 524 q 690 728 690 640 q 637 866 690 818 q 476 914 583 914 q 369 903 400 914 q 338 864 338 892 l 338 524 m 460 -357 l 433 -319 q 519 -251 493 -283 q 544 -167 544 -218 l 581 -133 q 559 -188 581 -167 q 506 -210 538 -210 q 453 -189 475 -210 q 431 -135 431 -168 q 454 -79 431 -101 q 513 -57 478 -57 q 583 -90 560 -57 q 607 -165 607 -124 q 569 -274 607 -229 q 460 -357 531 -319 z "},"S":{"ha":768,"x_min":92,"x_max":693,"o":"m 354 -14 q 226 0 289 -14 q 92 58 164 14 l 92 290 l 146 290 q 217 115 157 176 q 381 54 276 54 q 514 99 460 54 q 568 221 568 144 q 536 320 568 279 q 432 401 504 361 l 278 486 q 145 588 190 536 q 100 718 100 640 q 141 853 100 793 q 256 950 182 914 q 431 986 331 986 q 544 975 489 986 q 651 933 599 964 l 651 758 l 597 758 q 533 881 583 842 q 403 919 482 919 q 265 878 314 919 q 215 765 215 836 q 248 677 215 717 q 336 607 281 638 l 497 519 q 610 447 567 482 q 673 368 653 411 q 693 265 693 325 q 648 120 693 183 q 526 22 603 57 q 354 -14 450 -14 z "},"Ś":{"ha":768,"x_min":92,"x_max":693,"o":"m 354 -14 q 226 0 289 -14 q 92 58 164 14 l 92 290 l 146 290 q 217 115 157 176 q 381 54 276 54 q 514 99 460 54 q 568 221 568 144 q 536 320 568 279 q 432 401 504 361 l 278 486 q 145 588 190 536 q 100 718 100 640 q 141 853 100 793 q 256 950 182 914 q 431 986 331 986 q 544 975 489 986 q 651 933 599 964 l 651 758 l 597 758 q 533 881 583 842 q 403 919 482 919 q 265 878 314 919 q 215 765 215 836 q 248 677 215 717 q 336 607 281 638 l 497 519 q 610 447 567 482 q 673 368 653 411 q 693 265 693 325 q 648 120 693 183 q 526 22 603 57 q 354 -14 450 -14 m 283 1036 l 258 1069 l 372 1206 q 401 1236 388 1222 q 428 1264 414 1250 q 472 1278 447 1281 q 513 1256 496 1276 q 527 1213 529 1236 q 506 1171 525 1189 q 474 1148 490 1157 q 439 1128 458 1139 l 283 1036 z "},"Š":{"ha":768,"x_min":92,"x_max":693,"o":"m 354 -14 q 226 0 289 -14 q 92 58 164 14 l 92 290 l 146 290 q 217 115 157 176 q 381 54 276 54 q 514 99 460 54 q 568 221 568 144 q 536 320 568 279 q 432 401 504 361 l 278 486 q 145 588 190 536 q 100 718 100 640 q 141 853 100 793 q 256 950 182 914 q 431 986 331 986 q 544 975 489 986 q 651 933 599 964 l 651 758 l 597 758 q 533 881 583 842 q 403 919 482 919 q 265 878 314 919 q 215 765 215 836 q 248 677 215 717 q 336 607 281 638 l 497 519 q 610 447 567 482 q 673 368 653 411 q 693 265 693 325 q 648 120 693 183 q 526 22 603 57 q 354 -14 450 -14 m 350 1071 l 197 1251 l 219 1272 l 392 1171 l 394 1171 l 567 1272 l 589 1251 l 438 1071 l 350 1071 z "},"Ş":{"ha":768,"x_min":92,"x_max":693,"o":"m 354 -14 q 226 0 289 -14 q 92 58 164 14 l 92 290 l 146 290 q 217 115 157 176 q 381 54 276 54 q 514 99 460 54 q 568 221 568 144 q 536 320 568 279 q 432 401 504 361 l 278 486 q 145 588 190 536 q 100 718 100 640 q 141 853 100 793 q 256 950 182 914 q 431 986 331 986 q 544 975 489 986 q 651 933 599 964 l 651 758 l 597 758 q 533 881 583 842 q 403 919 482 919 q 265 878 314 919 q 215 765 215 836 q 248 677 215 717 q 336 607 281 638 l 497 519 q 610 447 567 482 q 673 368 653 411 q 693 265 693 325 q 648 120 693 183 q 526 22 603 57 q 354 -14 450 -14 m 315 -357 q 242 -341 271 -357 q 213 -301 213 -325 q 232 -265 213 -279 q 274 -262 251 -251 l 306 -278 q 336 -295 325 -287 q 357 -303 347 -303 q 398 -290 376 -303 q 419 -242 419 -276 q 377 -169 419 -193 q 263 -149 335 -146 l 261 -146 l 389 13 l 436 1 l 361 -92 q 466 -126 428 -97 q 504 -211 504 -154 q 478 -283 504 -250 q 410 -337 453 -317 q 315 -357 367 -357 z "},"Ŝ":{"ha":768,"x_min":92,"x_max":693,"o":"m 354 -14 q 226 0 289 -14 q 92 58 164 14 l 92 290 l 146 290 q 217 115 157 176 q 381 54 276 54 q 514 99 460 54 q 568 221 568 144 q 536 320 568 279 q 432 401 504 361 l 278 486 q 145 588 190 536 q 100 718 100 640 q 141 853 100 793 q 256 950 182 914 q 431 986 331 986 q 544 975 489 986 q 651 933 599 964 l 651 758 l 597 758 q 533 881 583 842 q 403 919 482 919 q 265 878 314 919 q 215 765 215 836 q 248 677 215 717 q 336 607 281 638 l 497 519 q 610 447 567 482 q 673 368 653 411 q 693 265 693 325 q 648 120 693 183 q 526 22 603 57 q 354 -14 450 -14 m 219 1068 l 197 1089 l 350 1269 l 438 1269 l 589 1089 l 567 1068 l 394 1169 l 392 1169 l 219 1068 z "},"Ș":{"ha":768,"x_min":92,"x_max":693,"o":"m 354 -14 q 226 0 289 -14 q 92 58 164 14 l 92 290 l 146 290 q 217 115 157 176 q 381 54 276 54 q 514 99 460 54 q 568 221 568 144 q 536 320 568 279 q 432 401 504 361 l 278 486 q 145 588 190 536 q 100 718 100 640 q 141 853 100 793 q 256 950 182 914 q 431 986 331 986 q 544 975 489 986 q 651 933 599 964 l 651 758 l 597 758 q 533 881 583 842 q 403 919 482 919 q 265 878 314 919 q 215 765 215 836 q 248 677 215 717 q 336 607 281 638 l 497 519 q 610 447 567 482 q 673 368 653 411 q 693 265 693 325 q 648 120 693 183 q 526 22 603 57 q 354 -14 450 -14 m 333 -357 l 307 -319 q 392 -251 367 -283 q 418 -167 418 -218 l 454 -133 q 433 -188 454 -167 q 379 -210 411 -210 q 326 -189 349 -210 q 304 -135 304 -168 q 328 -79 304 -101 q 386 -57 351 -57 q 457 -90 433 -57 q 481 -165 481 -124 q 442 -274 481 -229 q 333 -357 404 -319 z "},"ẞ":{"ha":1121,"x_min":57,"x_max":1053,"o":"m 57 0 l 57 53 l 90 56 q 167 69 143 58 q 199 100 192 81 q 207 149 207 119 l 207 824 q 199 872 207 853 q 167 903 192 892 q 90 917 143 914 l 57 919 l 57 972 l 338 972 l 338 149 q 346 100 338 119 q 379 69 354 81 q 454 56 404 58 l 488 53 l 488 0 l 57 0 m 754 -14 q 652 -4 711 -14 q 529 44 593 6 l 529 249 l 583 249 q 646 101 594 149 q 767 54 697 54 q 849 74 811 54 q 910 129 886 93 q 933 213 933 165 q 897 324 933 274 q 761 415 860 374 l 589 492 l 672 603 l 826 533 q 1001 415 950 479 q 1053 264 1053 350 q 1011 117 1053 179 q 901 20 969 54 q 754 -14 833 -14 m 589 492 l 589 539 l 985 967 l 1011 939 l 1011 906 l 629 492 l 589 492 m 215 908 l 215 972 l 1011 972 l 1011 939 l 1001 908 l 215 908 z "},"T":{"ha":950,"x_min":29,"x_max":921,"o":"m 410 149 l 410 911 l 274 906 q 159 874 199 903 q 104 806 119 846 q 83 725 89 765 l 29 725 l 42 981 q 140 975 82 978 q 242 972 197 972 l 708 972 q 810 975 753 972 q 908 981 867 978 l 921 725 l 867 725 q 847 806 863 765 q 792 874 832 846 q 676 906 751 903 l 540 911 l 540 149 q 549 99 540 119 q 584 69 557 79 q 667 56 611 58 l 697 53 l 697 0 l 253 0 l 253 53 l 285 56 q 366 69 339 58 q 401 99 393 79 q 410 149 410 119 z "},"Ť":{"ha":950,"x_min":29,"x_max":921,"o":"m 410 149 l 410 911 l 274 906 q 159 874 199 903 q 104 806 119 846 q 83 725 89 765 l 29 725 l 42 981 q 140 975 82 978 q 242 972 197 972 l 708 972 q 810 975 753 972 q 908 981 867 978 l 921 725 l 867 725 q 847 806 863 765 q 792 874 832 846 q 676 906 751 903 l 540 911 l 540 149 q 549 99 540 119 q 584 69 557 79 q 667 56 611 58 l 697 53 l 697 0 l 253 0 l 253 53 l 285 56 q 366 69 339 58 q 401 99 393 79 q 410 149 410 119 m 432 1071 l 279 1251 l 301 1272 l 474 1171 l 476 1171 l 649 1272 l 671 1251 l 519 1071 l 432 1071 z "},"Ţ":{"ha":950,"x_min":29,"x_max":921,"o":"m 410 149 l 410 911 l 274 906 q 159 874 199 903 q 104 806 119 846 q 83 725 89 765 l 29 725 l 42 981 q 140 975 82 978 q 242 972 197 972 l 708 972 q 810 975 753 972 q 908 981 867 978 l 921 725 l 867 725 q 847 806 863 765 q 792 874 832 846 q 676 906 751 903 l 540 911 l 540 149 q 549 99 540 119 q 584 69 557 79 q 667 56 611 58 l 697 53 l 697 0 l 253 0 l 253 53 l 285 56 q 366 69 339 58 q 401 99 393 79 q 410 149 410 119 m 449 -357 q 375 -341 404 -357 q 346 -301 346 -325 q 365 -265 346 -279 q 407 -262 385 -251 l 439 -278 q 469 -295 458 -287 q 490 -303 481 -303 q 531 -290 510 -303 q 553 -242 553 -276 q 510 -169 553 -193 q 396 -149 468 -146 l 394 -146 l 522 13 l 569 1 l 494 -92 q 599 -126 561 -97 q 638 -211 638 -154 q 612 -283 638 -250 q 543 -337 586 -317 q 449 -357 500 -357 z "},"Ț":{"ha":950,"x_min":29,"x_max":921,"o":"m 410 149 l 410 911 l 274 906 q 159 874 199 903 q 104 806 119 846 q 83 725 89 765 l 29 725 l 42 981 q 140 975 82 978 q 242 972 197 972 l 708 972 q 810 975 753 972 q 908 981 867 978 l 921 725 l 867 725 q 847 806 863 765 q 792 874 832 846 q 676 906 751 903 l 540 911 l 540 149 q 549 99 540 119 q 584 69 557 79 q 667 56 611 58 l 697 53 l 697 0 l 253 0 l 253 53 l 285 56 q 366 69 339 58 q 401 99 393 79 q 410 149 410 119 m 415 -357 l 389 -319 q 474 -251 449 -283 q 500 -167 500 -218 l 536 -133 q 515 -188 536 -167 q 461 -210 493 -210 q 408 -189 431 -210 q 386 -135 386 -168 q 410 -79 386 -101 q 468 -57 433 -57 q 539 -90 515 -57 q 563 -165 563 -124 q 524 -274 563 -229 q 415 -357 486 -319 z "},"U":{"ha":1119,"x_min":38,"x_max":1083,"o":"m 561 -14 q 174 401 174 -14 l 174 822 q 151 894 174 874 q 67 918 128 915 l 38 919 l 38 972 l 440 972 l 440 919 l 411 918 q 327 894 350 915 q 304 822 304 874 l 304 424 q 596 64 304 64 q 806 159 739 64 q 872 460 872 254 l 872 822 q 849 894 872 874 q 764 918 825 915 l 735 919 l 735 972 l 1083 972 l 1083 919 l 1054 918 q 969 894 993 915 q 946 822 946 874 l 946 442 q 853 97 946 207 q 561 -14 760 -14 z "},"Ú":{"ha":1119,"x_min":38,"x_max":1083,"o":"m 561 -14 q 174 401 174 -14 l 174 822 q 151 894 174 874 q 67 918 128 915 l 38 919 l 38 972 l 440 972 l 440 919 l 411 918 q 327 894 350 915 q 304 822 304 874 l 304 424 q 596 64 304 64 q 806 159 739 64 q 872 460 872 254 l 872 822 q 849 894 872 874 q 764 918 825 915 l 735 919 l 735 972 l 1083 972 l 1083 919 l 1054 918 q 969 894 993 915 q 946 822 946 874 l 946 442 q 853 97 946 207 q 561 -14 760 -14 m 451 1036 l 426 1069 l 540 1206 q 569 1236 556 1222 q 596 1264 582 1250 q 640 1278 615 1281 q 681 1256 664 1276 q 695 1213 697 1236 q 674 1171 693 1189 q 642 1148 658 1157 q 607 1128 626 1139 l 451 1036 z "},"Ŭ":{"ha":1119,"x_min":38,"x_max":1083,"o":"m 561 -14 q 174 401 174 -14 l 174 822 q 151 894 174 874 q 67 918 128 915 l 38 919 l 38 972 l 440 972 l 440 919 l 411 918 q 327 894 350 915 q 304 822 304 874 l 304 424 q 596 64 304 64 q 806 159 739 64 q 872 460 872 254 l 872 822 q 849 894 872 874 q 764 918 825 915 l 735 919 l 735 972 l 1083 972 l 1083 919 l 1054 918 q 969 894 993 915 q 946 822 946 874 l 946 442 q 853 97 946 207 q 561 -14 760 -14 m 560 1081 q 410 1130 453 1081 q 371 1250 367 1179 l 417 1250 q 457 1194 424 1218 q 560 1169 490 1169 q 665 1194 631 1169 q 704 1250 699 1218 l 749 1250 q 710 1130 753 1179 q 560 1081 667 1081 z "},"Û":{"ha":1119,"x_min":38,"x_max":1083,"o":"m 561 -14 q 174 401 174 -14 l 174 822 q 151 894 174 874 q 67 918 128 915 l 38 919 l 38 972 l 440 972 l 440 919 l 411 918 q 327 894 350 915 q 304 822 304 874 l 304 424 q 596 64 304 64 q 806 159 739 64 q 872 460 872 254 l 872 822 q 849 894 872 874 q 764 918 825 915 l 735 919 l 735 972 l 1083 972 l 1083 919 l 1054 918 q 969 894 993 915 q 946 822 946 874 l 946 442 q 853 97 946 207 q 561 -14 760 -14 m 386 1068 l 364 1089 l 517 1269 l 604 1269 l 756 1089 l 733 1068 l 561 1169 l 558 1169 l 386 1068 z "},"Ü":{"ha":1119,"x_min":38,"x_max":1083,"o":"m 561 -14 q 174 401 174 -14 l 174 822 q 151 894 174 874 q 67 918 128 915 l 38 919 l 38 972 l 440 972 l 440 919 l 411 918 q 327 894 350 915 q 304 822 304 874 l 304 424 q 596 64 304 64 q 806 159 739 64 q 872 460 872 254 l 872 822 q 849 894 872 874 q 764 918 825 915 l 735 919 l 735 972 l 1083 972 l 1083 919 l 1054 918 q 969 894 993 915 q 946 822 946 874 l 946 442 q 853 97 946 207 q 561 -14 760 -14 m 699 1075 q 642 1097 665 1075 q 619 1154 619 1119 q 642 1210 619 1189 q 699 1232 665 1232 q 753 1210 731 1232 q 776 1154 776 1189 q 753 1097 776 1119 q 699 1075 731 1075 m 422 1075 q 366 1097 389 1075 q 343 1154 343 1119 q 366 1210 343 1189 q 422 1232 389 1232 q 477 1210 454 1232 q 500 1154 500 1189 q 477 1097 500 1119 q 422 1075 454 1075 z "},"Ù":{"ha":1119,"x_min":38,"x_max":1083,"o":"m 561 -14 q 174 401 174 -14 l 174 822 q 151 894 174 874 q 67 918 128 915 l 38 919 l 38 972 l 440 972 l 440 919 l 411 918 q 327 894 350 915 q 304 822 304 874 l 304 424 q 596 64 304 64 q 806 159 739 64 q 872 460 872 254 l 872 822 q 849 894 872 874 q 764 918 825 915 l 735 919 l 735 972 l 1083 972 l 1083 919 l 1054 918 q 969 894 993 915 q 946 822 946 874 l 946 442 q 853 97 946 207 q 561 -14 760 -14 m 656 1036 l 500 1128 q 465 1148 482 1139 q 433 1171 449 1157 q 410 1213 413 1189 q 426 1256 408 1236 q 467 1278 443 1276 q 510 1264 492 1281 q 539 1236 526 1250 q 565 1206 551 1222 l 681 1069 l 656 1036 z "},"Ű":{"ha":1119,"x_min":38,"x_max":1083,"o":"m 561 -14 q 174 401 174 -14 l 174 822 q 151 894 174 874 q 67 918 128 915 l 38 919 l 38 972 l 440 972 l 440 919 l 411 918 q 327 894 350 915 q 304 822 304 874 l 304 424 q 596 64 304 64 q 806 159 739 64 q 872 460 872 254 l 872 822 q 849 894 872 874 q 764 918 825 915 l 735 919 l 735 972 l 1083 972 l 1083 919 l 1054 918 q 969 894 993 915 q 946 822 946 874 l 946 442 q 853 97 946 207 q 561 -14 760 -14 m 600 1036 l 575 1069 l 689 1206 q 717 1236 704 1222 q 744 1264 731 1250 q 788 1278 764 1281 q 829 1256 813 1276 q 844 1213 846 1236 q 822 1171 842 1189 q 791 1148 807 1157 q 756 1128 775 1139 l 600 1036 m 350 1036 l 325 1069 l 439 1206 q 467 1236 454 1222 q 494 1264 481 1250 q 538 1278 514 1281 q 579 1256 563 1276 q 594 1213 596 1236 q 572 1171 592 1189 q 541 1148 557 1157 q 506 1128 525 1139 l 350 1036 z "},"Ū":{"ha":1119,"x_min":38,"x_max":1083,"o":"m 561 -14 q 174 401 174 -14 l 174 822 q 151 894 174 874 q 67 918 128 915 l 38 919 l 38 972 l 440 972 l 440 919 l 411 918 q 327 894 350 915 q 304 822 304 874 l 304 424 q 596 64 304 64 q 806 159 739 64 q 872 460 872 254 l 872 822 q 849 894 872 874 q 764 918 825 915 l 735 919 l 735 972 l 1083 972 l 1083 919 l 1054 918 q 969 894 993 915 q 946 822 946 874 l 946 442 q 853 97 946 207 q 561 -14 760 -14 m 367 1147 l 367 1228 l 753 1228 l 753 1147 l 367 1147 z "},"Ų":{"ha":1119,"x_min":38,"x_max":1083,"o":"m 561 -14 q 174 401 174 -14 l 174 822 q 151 894 174 874 q 67 918 128 915 l 38 919 l 38 972 l 440 972 l 440 919 l 411 918 q 327 894 350 915 q 304 822 304 874 l 304 424 q 596 64 304 64 q 806 159 739 64 q 872 460 872 254 l 872 822 q 849 894 872 874 q 764 918 825 915 l 735 919 l 735 972 l 1083 972 l 1083 919 l 1054 918 q 969 894 993 915 q 946 822 946 874 l 946 442 q 853 97 946 207 q 561 -14 760 -14 m 585 -357 q 488 -323 529 -357 q 447 -224 447 -289 q 477 -124 447 -169 q 550 -47 507 -79 q 631 0 593 -15 l 689 0 q 651 -21 675 -4 q 603 -63 628 -37 q 560 -124 578 -89 q 543 -199 543 -158 q 636 -287 543 -287 q 691 -279 668 -287 q 725 -265 714 -271 l 742 -286 q 686 -331 722 -306 q 585 -357 650 -357 z "},"Ů":{"ha":1119,"x_min":38,"x_max":1083,"o":"m 561 -14 q 174 401 174 -14 l 174 822 q 151 894 174 874 q 67 918 128 915 l 38 919 l 38 972 l 440 972 l 440 919 l 411 918 q 327 894 350 915 q 304 822 304 874 l 304 424 q 596 64 304 64 q 806 159 739 64 q 872 460 872 254 l 872 822 q 849 894 872 874 q 764 918 825 915 l 735 919 l 735 972 l 1083 972 l 1083 919 l 1054 918 q 969 894 993 915 q 946 822 946 874 l 946 442 q 853 97 946 207 q 561 -14 760 -14 m 560 1049 q 456 1088 496 1049 q 415 1190 415 1128 q 456 1290 415 1251 q 560 1329 496 1329 q 665 1290 624 1329 q 706 1190 706 1251 q 665 1088 706 1128 q 560 1049 625 1049 m 568 1093 q 614 1114 597 1093 q 631 1174 631 1135 q 609 1254 631 1224 q 553 1285 588 1285 q 507 1263 524 1285 q 490 1203 490 1242 q 512 1123 490 1153 q 568 1093 533 1093 z "},"Ũ":{"ha":1119,"x_min":38,"x_max":1083,"o":"m 561 -14 q 174 401 174 -14 l 174 822 q 151 894 174 874 q 67 918 128 915 l 38 919 l 38 972 l 440 972 l 440 919 l 411 918 q 327 894 350 915 q 304 822 304 874 l 304 424 q 596 64 304 64 q 806 159 739 64 q 872 460 872 254 l 872 822 q 849 894 872 874 q 764 918 825 915 l 735 919 l 735 972 l 1083 972 l 1083 919 l 1054 918 q 969 894 993 915 q 946 822 946 874 l 946 442 q 853 97 946 207 q 561 -14 760 -14 m 353 1107 l 311 1115 q 356 1207 331 1175 q 410 1251 382 1239 q 463 1263 438 1263 q 517 1253 492 1263 q 560 1238 543 1244 l 590 1224 q 634 1207 617 1213 q 668 1201 651 1201 q 731 1220 708 1201 q 767 1267 753 1239 l 808 1258 q 764 1167 789 1199 q 711 1123 739 1135 q 657 1111 683 1111 q 602 1120 628 1111 q 560 1136 576 1129 l 529 1150 q 485 1167 503 1161 q 451 1172 468 1172 q 390 1153 413 1172 q 353 1107 367 1135 z "},"V":{"ha":1013,"x_min":0,"x_max":1019,"o":"m 479 -7 l 160 790 q 126 858 143 832 q 88 899 110 885 q 28 917 65 914 l 0 919 l 0 972 l 421 972 l 421 919 l 375 915 q 299 878 318 910 q 301 790 279 847 l 538 182 l 769 790 q 776 881 792 849 q 694 917 761 913 l 654 919 l 654 972 l 1019 972 l 1019 919 l 988 914 q 932 896 957 910 q 888 856 907 882 q 853 790 869 831 l 533 -7 l 479 -7 z "},"W":{"ha":1467,"x_min":0,"x_max":1471,"o":"m 450 -7 l 158 790 q 127 858 143 831 q 88 899 111 885 q 26 917 64 914 l 0 919 l 0 972 l 419 972 l 419 919 l 374 917 q 299 881 317 914 q 300 790 281 849 l 508 182 l 708 778 q 665 878 688 846 q 589 917 643 911 l 557 919 l 557 972 l 957 972 l 957 919 l 911 917 q 836 882 854 914 q 836 790 818 850 l 1018 182 l 1225 790 q 1229 881 1244 850 q 1149 917 1214 913 l 1108 919 l 1108 972 l 1471 972 l 1471 919 l 1438 914 q 1381 895 1407 910 q 1337 856 1356 881 q 1303 790 1318 831 l 1021 -7 l 960 -7 l 729 714 l 760 713 l 511 -7 l 450 -7 z "},"Ẃ":{"ha":1467,"x_min":0,"x_max":1471,"o":"m 450 -7 l 158 790 q 127 858 143 831 q 88 899 111 885 q 26 917 64 914 l 0 919 l 0 972 l 419 972 l 419 919 l 374 917 q 299 881 317 914 q 300 790 281 849 l 508 182 l 708 778 q 665 878 688 846 q 589 917 643 911 l 557 919 l 557 972 l 957 972 l 957 919 l 911 917 q 836 882 854 914 q 836 790 818 850 l 1018 182 l 1225 790 q 1229 881 1244 850 q 1149 917 1214 913 l 1108 919 l 1108 972 l 1471 972 l 1471 919 l 1438 914 q 1381 895 1407 910 q 1337 856 1356 881 q 1303 790 1318 831 l 1021 -7 l 960 -7 l 729 714 l 760 713 l 511 -7 l 450 -7 m 626 1036 l 601 1069 l 715 1206 q 744 1236 731 1222 q 771 1264 757 1250 q 815 1278 790 1281 q 856 1256 839 1276 q 870 1213 872 1236 q 849 1171 868 1189 q 817 1148 833 1157 q 782 1128 801 1139 l 626 1036 z "},"Ŵ":{"ha":1467,"x_min":0,"x_max":1471,"o":"m 450 -7 l 158 790 q 127 858 143 831 q 88 899 111 885 q 26 917 64 914 l 0 919 l 0 972 l 419 972 l 419 919 l 374 917 q 299 881 317 914 q 300 790 281 849 l 508 182 l 708 778 q 665 878 688 846 q 589 917 643 911 l 557 919 l 557 972 l 957 972 l 957 919 l 911 917 q 836 882 854 914 q 836 790 818 850 l 1018 182 l 1225 790 q 1229 881 1244 850 q 1149 917 1214 913 l 1108 919 l 1108 972 l 1471 972 l 1471 919 l 1438 914 q 1381 895 1407 910 q 1337 856 1356 881 q 1303 790 1318 831 l 1021 -7 l 960 -7 l 729 714 l 760 713 l 511 -7 l 450 -7 m 561 1068 l 539 1089 l 692 1269 l 779 1269 l 931 1089 l 908 1068 l 736 1169 l 733 1169 l 561 1068 z "},"Ẅ":{"ha":1467,"x_min":0,"x_max":1471,"o":"m 450 -7 l 158 790 q 127 858 143 831 q 88 899 111 885 q 26 917 64 914 l 0 919 l 0 972 l 419 972 l 419 919 l 374 917 q 299 881 317 914 q 300 790 281 849 l 508 182 l 708 778 q 665 878 688 846 q 589 917 643 911 l 557 919 l 557 972 l 957 972 l 957 919 l 911 917 q 836 882 854 914 q 836 790 818 850 l 1018 182 l 1225 790 q 1229 881 1244 850 q 1149 917 1214 913 l 1108 919 l 1108 972 l 1471 972 l 1471 919 l 1438 914 q 1381 895 1407 910 q 1337 856 1356 881 q 1303 790 1318 831 l 1021 -7 l 960 -7 l 729 714 l 760 713 l 511 -7 l 450 -7 m 874 1075 q 817 1097 840 1075 q 794 1154 794 1119 q 817 1210 794 1189 q 874 1232 840 1232 q 928 1210 906 1232 q 951 1154 951 1189 q 928 1097 951 1119 q 874 1075 906 1075 m 597 1075 q 541 1097 564 1075 q 518 1154 518 1119 q 541 1210 518 1189 q 597 1232 564 1232 q 652 1210 629 1232 q 675 1154 675 1189 q 652 1097 675 1119 q 597 1075 629 1075 z "},"Ẁ":{"ha":1467,"x_min":0,"x_max":1471,"o":"m 450 -7 l 158 790 q 127 858 143 831 q 88 899 111 885 q 26 917 64 914 l 0 919 l 0 972 l 419 972 l 419 919 l 374 917 q 299 881 317 914 q 300 790 281 849 l 508 182 l 708 778 q 665 878 688 846 q 589 917 643 911 l 557 919 l 557 972 l 957 972 l 957 919 l 911 917 q 836 882 854 914 q 836 790 818 850 l 1018 182 l 1225 790 q 1229 881 1244 850 q 1149 917 1214 913 l 1108 919 l 1108 972 l 1471 972 l 1471 919 l 1438 914 q 1381 895 1407 910 q 1337 856 1356 881 q 1303 790 1318 831 l 1021 -7 l 960 -7 l 729 714 l 760 713 l 511 -7 l 450 -7 m 831 1036 l 675 1128 q 640 1148 657 1139 q 608 1171 624 1157 q 585 1213 588 1189 q 601 1256 583 1236 q 642 1278 618 1276 q 685 1264 667 1281 q 714 1236 701 1250 q 740 1206 726 1222 l 856 1069 l 831 1036 z "},"X":{"ha":1008,"x_min":28,"x_max":981,"o":"m 567 0 l 567 53 l 596 54 q 660 150 721 60 l 206 822 q 159 881 179 861 q 115 909 139 901 q 53 918 90 917 l 28 919 l 28 972 l 443 972 l 443 919 l 414 918 q 350 822 289 913 l 804 150 q 873 78 839 100 q 956 54 907 57 l 981 53 l 981 0 l 567 0 m 28 0 l 28 53 l 53 54 q 110 65 85 56 q 158 94 136 74 q 206 150 181 115 l 472 519 l 514 464 l 293 150 q 278 81 263 106 q 357 54 293 57 l 386 53 l 386 0 l 28 0 m 538 453 l 494 508 l 715 822 q 731 892 747 868 q 651 918 715 915 l 622 919 l 622 972 l 981 972 l 981 919 l 956 918 q 899 908 924 917 q 851 878 874 899 q 804 822 828 857 l 538 453 z "},"Y":{"ha":924,"x_min":8,"x_max":908,"o":"m 244 0 l 244 53 l 275 56 q 358 69 331 58 q 393 99 385 79 q 401 149 401 119 l 401 450 l 160 822 q 116 881 135 861 q 78 909 97 901 q 33 918 58 917 l 8 919 l 8 972 l 393 972 l 393 919 l 364 918 q 290 892 304 915 q 304 822 275 869 l 522 476 l 460 476 l 675 818 q 688 890 704 865 q 610 918 672 915 l 581 919 l 581 972 l 908 972 l 908 919 l 885 918 q 822 896 854 917 q 758 822 790 875 l 532 467 l 532 149 q 540 99 532 119 q 576 69 549 79 q 658 56 603 58 l 689 53 l 689 0 l 244 0 z "},"Ý":{"ha":924,"x_min":8,"x_max":908,"o":"m 244 0 l 244 53 l 275 56 q 358 69 331 58 q 393 99 385 79 q 401 149 401 119 l 401 450 l 160 822 q 116 881 135 861 q 78 909 97 901 q 33 918 58 917 l 8 919 l 8 972 l 393 972 l 393 919 l 364 918 q 290 892 304 915 q 304 822 275 869 l 522 476 l 460 476 l 675 818 q 688 890 704 865 q 610 918 672 915 l 581 919 l 581 972 l 908 972 l 908 919 l 885 918 q 822 896 854 917 q 758 822 790 875 l 532 467 l 532 149 q 540 99 532 119 q 576 69 549 79 q 658 56 603 58 l 689 53 l 689 0 l 244 0 m 350 1036 l 325 1069 l 439 1206 q 467 1236 454 1222 q 494 1264 481 1250 q 538 1278 514 1281 q 579 1256 563 1276 q 594 1213 596 1236 q 572 1171 592 1189 q 541 1148 557 1157 q 506 1128 525 1139 l 350 1036 z "},"Ŷ":{"ha":924,"x_min":8,"x_max":908,"o":"m 244 0 l 244 53 l 275 56 q 358 69 331 58 q 393 99 385 79 q 401 149 401 119 l 401 450 l 160 822 q 116 881 135 861 q 78 909 97 901 q 33 918 58 917 l 8 919 l 8 972 l 393 972 l 393 919 l 364 918 q 290 892 304 915 q 304 822 275 869 l 522 476 l 460 476 l 675 818 q 688 890 704 865 q 610 918 672 915 l 581 919 l 581 972 l 908 972 l 908 919 l 885 918 q 822 896 854 917 q 758 822 790 875 l 532 467 l 532 149 q 540 99 532 119 q 576 69 549 79 q 658 56 603 58 l 689 53 l 689 0 l 244 0 m 286 1068 l 264 1089 l 417 1269 l 504 1269 l 656 1089 l 633 1068 l 461 1169 l 458 1169 l 286 1068 z "},"Ÿ":{"ha":924,"x_min":8,"x_max":908,"o":"m 244 0 l 244 53 l 275 56 q 358 69 331 58 q 393 99 385 79 q 401 149 401 119 l 401 450 l 160 822 q 116 881 135 861 q 78 909 97 901 q 33 918 58 917 l 8 919 l 8 972 l 393 972 l 393 919 l 364 918 q 290 892 304 915 q 304 822 275 869 l 522 476 l 460 476 l 675 818 q 688 890 704 865 q 610 918 672 915 l 581 919 l 581 972 l 908 972 l 908 919 l 885 918 q 822 896 854 917 q 758 822 790 875 l 532 467 l 532 149 q 540 99 532 119 q 576 69 549 79 q 658 56 603 58 l 689 53 l 689 0 l 244 0 m 599 1075 q 542 1097 565 1075 q 519 1154 519 1119 q 542 1210 519 1189 q 599 1232 565 1232 q 653 1210 631 1232 q 676 1154 676 1189 q 653 1097 676 1119 q 599 1075 631 1075 m 322 1075 q 266 1097 289 1075 q 243 1154 243 1119 q 266 1210 243 1189 q 322 1232 289 1232 q 377 1210 354 1232 q 400 1154 400 1189 q 377 1097 400 1119 q 322 1075 354 1075 z "},"Ỳ":{"ha":924,"x_min":8,"x_max":908,"o":"m 244 0 l 244 53 l 275 56 q 358 69 331 58 q 393 99 385 79 q 401 149 401 119 l 401 450 l 160 822 q 116 881 135 861 q 78 909 97 901 q 33 918 58 917 l 8 919 l 8 972 l 393 972 l 393 919 l 364 918 q 290 892 304 915 q 304 822 275 869 l 522 476 l 460 476 l 675 818 q 688 890 704 865 q 610 918 672 915 l 581 919 l 581 972 l 908 972 l 908 919 l 885 918 q 822 896 854 917 q 758 822 790 875 l 532 467 l 532 149 q 540 99 532 119 q 576 69 549 79 q 658 56 603 58 l 689 53 l 689 0 l 244 0 m 556 1036 l 400 1128 q 365 1148 382 1139 q 333 1171 349 1157 q 310 1213 313 1189 q 326 1256 308 1236 q 367 1278 343 1276 q 410 1264 392 1281 q 439 1236 426 1250 q 465 1206 451 1222 l 581 1069 l 556 1036 z "},"Ỹ":{"ha":924,"x_min":8,"x_max":908,"o":"m 244 0 l 244 53 l 275 56 q 358 69 331 58 q 393 99 385 79 q 401 149 401 119 l 401 450 l 160 822 q 116 881 135 861 q 78 909 97 901 q 33 918 58 917 l 8 919 l 8 972 l 393 972 l 393 919 l 364 918 q 290 892 304 915 q 304 822 275 869 l 522 476 l 460 476 l 675 818 q 688 890 704 865 q 610 918 672 915 l 581 919 l 581 972 l 908 972 l 908 919 l 885 918 q 822 896 854 917 q 758 822 790 875 l 532 467 l 532 149 q 540 99 532 119 q 576 69 549 79 q 658 56 603 58 l 689 53 l 689 0 l 244 0 m 253 1107 l 211 1115 q 256 1207 231 1175 q 310 1251 282 1239 q 363 1263 338 1263 q 417 1253 392 1263 q 460 1238 443 1244 l 490 1224 q 534 1207 517 1213 q 568 1201 551 1201 q 631 1220 608 1201 q 667 1267 653 1239 l 708 1258 q 664 1167 689 1199 q 611 1123 639 1135 q 557 1111 583 1111 q 502 1120 528 1111 q 460 1136 476 1129 l 429 1150 q 385 1167 403 1161 q 351 1172 368 1172 q 290 1153 313 1172 q 253 1107 267 1135 z "},"Z":{"ha":850,"x_min":64,"x_max":783,"o":"m 747 -8 q 637 -2 692 -4 q 547 0 582 0 l 64 0 l 64 53 l 651 956 l 679 907 l 319 907 q 189 869 238 907 q 121 742 140 832 l 67 742 l 88 981 q 193 974 139 976 q 283 972 247 972 l 781 972 l 781 919 l 192 17 l 163 65 l 499 65 q 647 113 594 65 q 726 278 700 161 l 783 278 l 747 -8 z "},"Ź":{"ha":850,"x_min":64,"x_max":783,"o":"m 747 -8 q 637 -2 692 -4 q 547 0 582 0 l 64 0 l 64 53 l 651 956 l 679 907 l 319 907 q 189 869 238 907 q 121 742 140 832 l 67 742 l 88 981 q 193 974 139 976 q 283 972 247 972 l 781 972 l 781 919 l 192 17 l 163 65 l 499 65 q 647 113 594 65 q 726 278 700 161 l 783 278 l 747 -8 m 314 1036 l 289 1069 l 403 1206 q 431 1236 418 1222 q 458 1264 444 1250 q 502 1278 478 1281 q 543 1256 526 1276 q 558 1213 560 1236 q 536 1171 556 1189 q 505 1148 521 1157 q 469 1128 489 1139 l 314 1036 z "},"Ž":{"ha":850,"x_min":64,"x_max":783,"o":"m 747 -8 q 637 -2 692 -4 q 547 0 582 0 l 64 0 l 64 53 l 651 956 l 679 907 l 319 907 q 189 869 238 907 q 121 742 140 832 l 67 742 l 88 981 q 193 974 139 976 q 283 972 247 972 l 781 972 l 781 919 l 192 17 l 163 65 l 499 65 q 647 113 594 65 q 726 278 700 161 l 783 278 l 747 -8 m 381 1071 l 228 1251 l 250 1272 l 422 1171 l 425 1171 l 597 1272 l 619 1251 l 468 1071 l 381 1071 z "},"Ż":{"ha":850,"x_min":64,"x_max":783,"o":"m 747 -8 q 637 -2 692 -4 q 547 0 582 0 l 64 0 l 64 53 l 651 956 l 679 907 l 319 907 q 189 869 238 907 q 121 742 140 832 l 67 742 l 88 981 q 193 974 139 976 q 283 972 247 972 l 781 972 l 781 919 l 192 17 l 163 65 l 499 65 q 647 113 594 65 q 726 278 700 161 l 783 278 l 747 -8 m 424 1088 q 365 1110 389 1088 q 342 1169 342 1133 q 365 1228 342 1206 q 424 1250 389 1250 q 481 1228 457 1250 q 504 1169 504 1206 q 481 1110 504 1133 q 424 1088 457 1088 z "},"a":{"ha":729,"x_min":61,"x_max":713,"o":"m 239 -14 q 138 8 175 -14 q 85 62 100 29 q 69 129 69 94 q 103 227 69 178 q 215 324 136 276 q 425 418 293 372 l 463 431 l 465 547 q 433 633 467 599 q 344 667 400 667 q 263 636 294 667 q 215 546 231 606 q 183 518 213 531 q 111 506 154 506 q 74 512 86 506 q 68 539 61 518 q 142 638 90 593 q 258 709 193 682 q 388 736 324 736 q 535 693 478 736 q 590 572 593 650 l 576 157 q 603 88 575 103 q 713 67 632 72 l 713 26 l 664 14 q 593 -3 618 3 q 554 -10 568 -10 q 498 7 517 -10 q 472 46 479 24 q 461 82 464 68 l 450 82 q 339 5 390 24 q 239 -14 288 -14 m 311 86 q 394 102 361 86 q 453 136 426 118 l 461 371 l 447 367 q 294 298 346 335 q 225 226 243 261 q 207 165 207 190 q 311 86 207 86 z "},"á":{"ha":729,"x_min":61,"x_max":713,"o":"m 239 -14 q 138 8 175 -14 q 85 62 100 29 q 69 129 69 94 q 103 227 69 178 q 215 324 136 276 q 425 418 293 372 l 463 431 l 465 547 q 433 633 467 599 q 344 667 400 667 q 263 636 294 667 q 215 546 231 606 q 183 518 213 531 q 111 506 154 506 q 74 512 86 506 q 68 539 61 518 q 142 638 90 593 q 258 709 193 682 q 388 736 324 736 q 535 693 478 736 q 590 572 593 650 l 576 157 q 603 88 575 103 q 713 67 632 72 l 713 26 l 664 14 q 593 -3 618 3 q 554 -10 568 -10 q 498 7 517 -10 q 472 46 479 24 q 461 82 464 68 l 450 82 q 339 5 390 24 q 239 -14 288 -14 m 311 86 q 394 102 361 86 q 453 136 426 118 l 461 371 l 447 367 q 294 298 346 335 q 225 226 243 261 q 207 165 207 190 q 311 86 207 86 m 229 786 l 204 819 l 318 956 q 347 986 333 972 q 374 1014 360 1000 q 417 1028 393 1031 q 458 1006 442 1026 q 473 963 475 986 q 451 921 471 939 q 420 898 436 907 q 385 878 404 889 l 229 786 z "},"ă":{"ha":729,"x_min":61,"x_max":713,"o":"m 239 -14 q 138 8 175 -14 q 85 62 100 29 q 69 129 69 94 q 103 227 69 178 q 215 324 136 276 q 425 418 293 372 l 463 431 l 465 547 q 433 633 467 599 q 344 667 400 667 q 263 636 294 667 q 215 546 231 606 q 183 518 213 531 q 111 506 154 506 q 74 512 86 506 q 68 539 61 518 q 142 638 90 593 q 258 709 193 682 q 388 736 324 736 q 535 693 478 736 q 590 572 593 650 l 576 157 q 603 88 575 103 q 713 67 632 72 l 713 26 l 664 14 q 593 -3 618 3 q 554 -10 568 -10 q 498 7 517 -10 q 472 46 479 24 q 461 82 464 68 l 450 82 q 339 5 390 24 q 239 -14 288 -14 m 311 86 q 394 102 361 86 q 453 136 426 118 l 461 371 l 447 367 q 294 298 346 335 q 225 226 243 261 q 207 165 207 190 q 311 86 207 86 m 339 831 q 189 880 232 831 q 150 1000 146 929 l 196 1000 q 236 944 203 968 q 339 919 269 919 q 444 944 410 919 q 483 1000 478 968 l 528 1000 q 489 880 532 929 q 339 831 446 831 z "},"â":{"ha":729,"x_min":61,"x_max":713,"o":"m 239 -14 q 138 8 175 -14 q 85 62 100 29 q 69 129 69 94 q 103 227 69 178 q 215 324 136 276 q 425 418 293 372 l 463 431 l 465 547 q 433 633 467 599 q 344 667 400 667 q 263 636 294 667 q 215 546 231 606 q 183 518 213 531 q 111 506 154 506 q 74 512 86 506 q 68 539 61 518 q 142 638 90 593 q 258 709 193 682 q 388 736 324 736 q 535 693 478 736 q 590 572 593 650 l 576 157 q 603 88 575 103 q 713 67 632 72 l 713 26 l 664 14 q 593 -3 618 3 q 554 -10 568 -10 q 498 7 517 -10 q 472 46 479 24 q 461 82 464 68 l 450 82 q 339 5 390 24 q 239 -14 288 -14 m 311 86 q 394 102 361 86 q 453 136 426 118 l 461 371 l 447 367 q 294 298 346 335 q 225 226 243 261 q 207 165 207 190 q 311 86 207 86 m 165 818 l 143 839 l 296 1019 l 383 1019 l 535 839 l 513 818 l 340 919 l 338 919 l 165 818 z "},"ä":{"ha":729,"x_min":61,"x_max":713,"o":"m 239 -14 q 138 8 175 -14 q 85 62 100 29 q 69 129 69 94 q 103 227 69 178 q 215 324 136 276 q 425 418 293 372 l 463 431 l 465 547 q 433 633 467 599 q 344 667 400 667 q 263 636 294 667 q 215 546 231 606 q 183 518 213 531 q 111 506 154 506 q 74 512 86 506 q 68 539 61 518 q 142 638 90 593 q 258 709 193 682 q 388 736 324 736 q 535 693 478 736 q 590 572 593 650 l 576 157 q 603 88 575 103 q 713 67 632 72 l 713 26 l 664 14 q 593 -3 618 3 q 554 -10 568 -10 q 498 7 517 -10 q 472 46 479 24 q 461 82 464 68 l 450 82 q 339 5 390 24 q 239 -14 288 -14 m 311 86 q 394 102 361 86 q 453 136 426 118 l 461 371 l 447 367 q 294 298 346 335 q 225 226 243 261 q 207 165 207 190 q 311 86 207 86 m 478 825 q 422 847 444 825 q 399 904 399 869 q 422 960 399 939 q 478 982 444 982 q 533 960 510 982 q 556 904 556 939 q 533 847 556 869 q 478 825 510 825 m 201 825 q 145 847 168 825 q 122 904 122 869 q 145 960 122 939 q 201 982 168 982 q 256 960 233 982 q 279 904 279 939 q 256 847 279 869 q 201 825 233 825 z "},"à":{"ha":729,"x_min":61,"x_max":713,"o":"m 239 -14 q 138 8 175 -14 q 85 62 100 29 q 69 129 69 94 q 103 227 69 178 q 215 324 136 276 q 425 418 293 372 l 463 431 l 465 547 q 433 633 467 599 q 344 667 400 667 q 263 636 294 667 q 215 546 231 606 q 183 518 213 531 q 111 506 154 506 q 74 512 86 506 q 68 539 61 518 q 142 638 90 593 q 258 709 193 682 q 388 736 324 736 q 535 693 478 736 q 590 572 593 650 l 576 157 q 603 88 575 103 q 713 67 632 72 l 713 26 l 664 14 q 593 -3 618 3 q 554 -10 568 -10 q 498 7 517 -10 q 472 46 479 24 q 461 82 464 68 l 450 82 q 339 5 390 24 q 239 -14 288 -14 m 311 86 q 394 102 361 86 q 453 136 426 118 l 461 371 l 447 367 q 294 298 346 335 q 225 226 243 261 q 207 165 207 190 q 311 86 207 86 m 435 786 l 279 878 q 244 898 261 889 q 213 921 228 907 q 190 963 192 939 q 206 1006 188 986 q 247 1028 222 1026 q 289 1014 271 1031 q 318 986 306 1000 q 344 956 331 972 l 460 819 l 435 786 z "},"ā":{"ha":729,"x_min":61,"x_max":713,"o":"m 239 -14 q 138 8 175 -14 q 85 62 100 29 q 69 129 69 94 q 103 227 69 178 q 215 324 136 276 q 425 418 293 372 l 463 431 l 465 547 q 433 633 467 599 q 344 667 400 667 q 263 636 294 667 q 215 546 231 606 q 183 518 213 531 q 111 506 154 506 q 74 512 86 506 q 68 539 61 518 q 142 638 90 593 q 258 709 193 682 q 388 736 324 736 q 535 693 478 736 q 590 572 593 650 l 576 157 q 603 88 575 103 q 713 67 632 72 l 713 26 l 664 14 q 593 -3 618 3 q 554 -10 568 -10 q 498 7 517 -10 q 472 46 479 24 q 461 82 464 68 l 450 82 q 339 5 390 24 q 239 -14 288 -14 m 311 86 q 394 102 361 86 q 453 136 426 118 l 461 371 l 447 367 q 294 298 346 335 q 225 226 243 261 q 207 165 207 190 q 311 86 207 86 m 146 897 l 146 978 l 532 978 l 532 897 l 146 897 z "},"ą":{"ha":729,"x_min":61,"x_max":713,"o":"m 239 -14 q 138 8 175 -14 q 85 62 100 29 q 69 129 69 94 q 103 227 69 178 q 215 324 136 276 q 425 418 293 372 l 463 431 l 465 547 q 433 633 467 599 q 344 667 400 667 q 263 636 294 667 q 215 546 231 606 q 183 518 213 531 q 111 506 154 506 q 74 512 86 506 q 68 539 61 518 q 142 638 90 593 q 258 709 193 682 q 388 736 324 736 q 535 693 478 736 q 590 572 593 650 l 576 157 q 603 88 575 103 q 713 67 632 72 l 713 26 l 664 14 q 593 -3 618 3 q 554 -10 568 -10 q 498 7 517 -10 q 472 46 479 24 q 461 82 464 68 l 450 82 q 339 5 390 24 q 239 -14 288 -14 m 311 86 q 394 102 361 86 q 453 136 426 118 l 461 371 l 447 367 q 294 298 346 335 q 225 226 243 261 q 207 165 207 190 q 311 86 207 86 m 506 -357 q 409 -323 450 -357 q 368 -224 368 -289 q 398 -124 368 -169 q 471 -47 428 -79 q 551 0 514 -15 l 610 0 q 572 -21 596 -4 q 524 -63 549 -37 q 481 -124 499 -89 q 464 -199 464 -158 q 557 -287 464 -287 q 612 -279 589 -287 q 646 -265 635 -271 l 663 -286 q 607 -331 643 -306 q 506 -357 571 -357 z "},"å":{"ha":729,"x_min":61,"x_max":713,"o":"m 239 -14 q 138 8 175 -14 q 85 62 100 29 q 69 129 69 94 q 103 227 69 178 q 215 324 136 276 q 425 418 293 372 l 463 431 l 465 547 q 433 633 467 599 q 344 667 400 667 q 263 636 294 667 q 215 546 231 606 q 183 518 213 531 q 111 506 154 506 q 74 512 86 506 q 68 539 61 518 q 142 638 90 593 q 258 709 193 682 q 388 736 324 736 q 535 693 478 736 q 590 572 593 650 l 576 157 q 603 88 575 103 q 713 67 632 72 l 713 26 l 664 14 q 593 -3 618 3 q 554 -10 568 -10 q 498 7 517 -10 q 472 46 479 24 q 461 82 464 68 l 450 82 q 339 5 390 24 q 239 -14 288 -14 m 311 86 q 394 102 361 86 q 453 136 426 118 l 461 371 l 447 367 q 294 298 346 335 q 225 226 243 261 q 207 165 207 190 q 311 86 207 86 m 339 799 q 235 838 275 799 q 194 940 194 878 q 235 1040 194 1001 q 339 1079 275 1079 q 444 1040 403 1079 q 485 940 485 1001 q 444 838 485 878 q 339 799 404 799 m 347 843 q 393 864 376 843 q 410 924 410 885 q 388 1004 410 974 q 332 1035 367 1035 q 286 1013 303 1035 q 269 953 269 992 q 291 873 269 903 q 347 843 313 843 z "},"ã":{"ha":729,"x_min":61,"x_max":713,"o":"m 239 -14 q 138 8 175 -14 q 85 62 100 29 q 69 129 69 94 q 103 227 69 178 q 215 324 136 276 q 425 418 293 372 l 463 431 l 465 547 q 433 633 467 599 q 344 667 400 667 q 263 636 294 667 q 215 546 231 606 q 183 518 213 531 q 111 506 154 506 q 74 512 86 506 q 68 539 61 518 q 142 638 90 593 q 258 709 193 682 q 388 736 324 736 q 535 693 478 736 q 590 572 593 650 l 576 157 q 603 88 575 103 q 713 67 632 72 l 713 26 l 664 14 q 593 -3 618 3 q 554 -10 568 -10 q 498 7 517 -10 q 472 46 479 24 q 461 82 464 68 l 450 82 q 339 5 390 24 q 239 -14 288 -14 m 311 86 q 394 102 361 86 q 453 136 426 118 l 461 371 l 447 367 q 294 298 346 335 q 225 226 243 261 q 207 165 207 190 q 311 86 207 86 m 132 857 l 90 865 q 135 957 110 925 q 189 1001 161 989 q 242 1013 217 1013 q 297 1003 271 1013 q 339 988 322 994 l 369 974 q 413 957 396 963 q 447 951 431 951 q 510 970 488 951 q 546 1017 532 989 l 588 1008 q 543 917 568 949 q 490 873 518 885 q 436 861 463 861 q 381 870 407 861 q 339 886 356 879 l 308 900 q 265 917 282 911 q 231 922 247 922 q 169 903 192 922 q 132 857 146 885 z "},"æ":{"ha":1140,"x_min":63,"x_max":1085,"o":"m 239 -14 q 139 8 176 -14 q 85 60 101 29 q 69 125 69 92 q 102 227 69 178 q 213 324 135 276 q 425 418 290 372 l 463 431 l 465 547 q 433 633 467 599 q 344 667 399 667 q 263 636 294 667 q 215 546 231 606 q 183 518 213 531 q 111 506 154 506 q 72 513 82 506 q 68 539 63 521 q 142 638 90 593 q 258 709 193 682 q 388 736 324 736 q 507 711 457 736 q 578 639 557 686 q 691 710 626 685 q 828 736 756 736 q 1001 674 935 736 q 1067 492 1067 611 q 1067 474 1067 483 q 1064 450 1067 465 l 1061 431 l 586 431 q 585 415 585 422 q 585 397 585 407 q 620 242 585 311 q 722 135 656 174 q 874 96 788 96 q 968 111 922 96 q 1057 157 1014 126 l 1085 131 q 960 20 1025 54 q 804 -14 894 -14 q 638 27 711 -14 q 519 139 565 68 l 510 139 q 413 49 457 83 q 327 1 368 15 q 239 -14 286 -14 m 311 86 q 394 102 361 86 q 453 136 426 118 l 461 371 l 447 367 q 296 293 347 329 q 226 224 244 257 q 207 165 207 190 q 311 86 207 86 m 594 490 l 929 490 q 933 532 933 513 q 899 629 933 592 q 803 667 864 667 q 669 619 724 667 q 594 490 615 572 z "},"b":{"ha":869,"x_min":8,"x_max":806,"o":"m 117 -14 l 117 921 q 89 987 117 972 q 8 1004 61 1001 l 8 1050 l 222 1111 l 242 1111 l 242 629 l 250 629 q 325 694 290 671 q 397 726 360 717 q 485 736 433 736 q 651 690 579 736 q 765 563 724 643 q 806 375 806 482 q 753 174 806 263 q 613 36 700 86 q 418 -14 525 -14 q 294 0 346 -14 q 201 42 242 14 l 169 -14 l 117 -14 m 429 56 q 609 126 543 56 q 675 333 675 196 q 642 483 675 417 q 553 590 610 550 q 422 629 496 629 q 317 615 358 629 q 242 569 275 600 l 242 238 q 267 128 242 168 q 336 72 293 89 q 429 56 379 56 z "},"c":{"ha":736,"x_min":64,"x_max":690,"o":"m 411 -14 q 231 34 310 -14 q 108 165 153 82 q 64 351 64 247 q 113 549 64 463 q 249 686 163 636 q 443 736 335 736 q 569 717 515 736 q 652 669 622 697 q 682 617 682 642 q 659 578 682 594 q 609 558 636 563 q 569 565 582 554 l 492 635 q 451 660 474 654 q 403 667 428 667 q 291 633 339 667 q 217 538 243 599 q 190 400 190 478 q 226 238 190 308 q 324 126 261 167 q 468 85 388 85 q 564 101 517 85 q 663 157 611 118 l 690 131 q 557 20 625 54 q 411 -14 489 -14 z "},"ć":{"ha":736,"x_min":64,"x_max":690,"o":"m 411 -14 q 231 34 310 -14 q 108 165 153 82 q 64 351 64 247 q 113 549 64 463 q 249 686 163 636 q 443 736 335 736 q 569 717 515 736 q 652 669 622 697 q 682 617 682 642 q 659 578 682 594 q 609 558 636 563 q 569 565 582 554 l 492 635 q 451 660 474 654 q 403 667 428 667 q 291 633 339 667 q 217 538 243 599 q 190 400 190 478 q 226 238 190 308 q 324 126 261 167 q 468 85 388 85 q 564 101 517 85 q 663 157 611 118 l 690 131 q 557 20 625 54 q 411 -14 489 -14 m 285 786 l 260 819 l 374 956 q 402 986 389 972 q 429 1014 415 1000 q 473 1028 449 1031 q 514 1006 497 1026 q 528 963 531 986 q 507 921 526 939 q 476 898 492 907 q 440 878 460 889 l 285 786 z "},"č":{"ha":736,"x_min":64,"x_max":690,"o":"m 411 -14 q 231 34 310 -14 q 108 165 153 82 q 64 351 64 247 q 113 549 64 463 q 249 686 163 636 q 443 736 335 736 q 569 717 515 736 q 652 669 622 697 q 682 617 682 642 q 659 578 682 594 q 609 558 636 563 q 569 565 582 554 l 492 635 q 451 660 474 654 q 403 667 428 667 q 291 633 339 667 q 217 538 243 599 q 190 400 190 478 q 226 238 190 308 q 324 126 261 167 q 468 85 388 85 q 564 101 517 85 q 663 157 611 118 l 690 131 q 557 20 625 54 q 411 -14 489 -14 m 351 821 l 199 1001 l 221 1022 l 393 921 l 396 921 l 568 1022 l 590 1001 l 439 821 l 351 821 z "},"ç":{"ha":736,"x_min":64,"x_max":690,"o":"m 411 -14 q 231 34 310 -14 q 108 165 153 82 q 64 351 64 247 q 113 549 64 463 q 249 686 163 636 q 443 736 335 736 q 569 717 515 736 q 652 669 622 697 q 682 617 682 642 q 659 578 682 594 q 609 558 636 563 q 569 565 582 554 l 492 635 q 451 660 474 654 q 403 667 428 667 q 291 633 339 667 q 217 538 243 599 q 190 400 190 478 q 226 238 190 308 q 324 126 261 167 q 468 85 388 85 q 564 101 517 85 q 663 157 611 118 l 690 131 q 557 20 625 54 q 411 -14 489 -14 m 368 -357 q 294 -341 324 -357 q 265 -301 265 -325 q 285 -265 265 -279 q 326 -262 304 -251 l 358 -278 q 389 -295 378 -287 q 410 -303 400 -303 q 451 -290 429 -303 q 472 -242 472 -276 q 430 -169 472 -193 q 315 -149 388 -146 l 314 -146 l 442 13 l 489 1 l 414 -92 q 519 -126 481 -97 q 557 -211 557 -154 q 531 -283 557 -250 q 463 -337 506 -317 q 368 -357 419 -357 z "},"ĉ":{"ha":736,"x_min":64,"x_max":690,"o":"m 411 -14 q 231 34 310 -14 q 108 165 153 82 q 64 351 64 247 q 113 549 64 463 q 249 686 163 636 q 443 736 335 736 q 569 717 515 736 q 652 669 622 697 q 682 617 682 642 q 659 578 682 594 q 609 558 636 563 q 569 565 582 554 l 492 635 q 451 660 474 654 q 403 667 428 667 q 291 633 339 667 q 217 538 243 599 q 190 400 190 478 q 226 238 190 308 q 324 126 261 167 q 468 85 388 85 q 564 101 517 85 q 663 157 611 118 l 690 131 q 557 20 625 54 q 411 -14 489 -14 m 221 818 l 199 839 l 351 1019 l 439 1019 l 590 839 l 568 818 l 396 919 l 393 919 l 221 818 z "},"ċ":{"ha":736,"x_min":64,"x_max":690,"o":"m 411 -14 q 231 34 310 -14 q 108 165 153 82 q 64 351 64 247 q 113 549 64 463 q 249 686 163 636 q 443 736 335 736 q 569 717 515 736 q 652 669 622 697 q 682 617 682 642 q 659 578 682 594 q 609 558 636 563 q 569 565 582 554 l 492 635 q 451 660 474 654 q 403 667 428 667 q 291 633 339 667 q 217 538 243 599 q 190 400 190 478 q 226 238 190 308 q 324 126 261 167 q 468 85 388 85 q 564 101 517 85 q 663 157 611 118 l 690 131 q 557 20 625 54 q 411 -14 489 -14 m 394 838 q 336 860 360 838 q 313 919 313 883 q 336 978 313 956 q 394 1000 360 1000 q 451 978 428 1000 q 475 919 475 956 q 451 860 475 883 q 394 838 428 838 z "},"d":{"ha":897,"x_min":64,"x_max":864,"o":"m 385 -14 q 219 33 292 -14 q 105 160 146 79 q 64 347 64 242 q 113 546 64 458 q 247 685 163 633 q 438 736 332 736 q 540 724 493 736 q 628 685 586 713 l 628 921 q 600 987 628 972 q 519 1004 572 1001 l 519 1050 l 733 1111 l 753 1111 l 753 185 q 770 122 753 142 q 846 94 788 101 l 864 92 l 864 47 l 651 -3 l 632 -3 l 632 93 l 619 93 q 543 28 578 51 q 472 -5 508 4 q 385 -14 435 -14 m 449 93 q 553 107 511 93 q 628 153 594 121 l 628 475 q 599 583 628 540 q 524 646 569 625 q 428 667 479 667 q 254 594 314 667 q 194 390 194 522 q 228 240 194 307 q 319 133 261 172 q 449 93 376 93 z "},"ď":{"ha":913,"x_min":64,"x_max":990,"o":"m 843 783 l 815 821 q 901 890 876 857 q 926 974 926 922 l 964 1007 q 942 952 964 974 q 889 931 921 931 q 836 951 858 931 q 814 1006 814 972 q 838 1061 814 1039 q 896 1083 861 1083 q 967 1050 943 1083 q 990 975 990 1017 q 952 866 990 911 q 843 783 914 821 m 385 -14 q 219 33 292 -14 q 105 160 146 79 q 64 347 64 242 q 113 546 64 458 q 247 685 163 633 q 438 736 332 736 q 540 724 493 736 q 628 685 586 713 l 628 921 q 600 987 628 972 q 519 1004 572 1001 l 519 1050 l 733 1111 l 753 1111 l 753 185 q 770 122 753 142 q 846 94 788 101 l 864 92 l 864 47 l 651 -3 l 632 -3 l 632 93 l 619 93 q 543 28 578 51 q 472 -5 508 4 q 385 -14 435 -14 m 449 93 q 553 107 511 93 q 628 153 594 121 l 628 475 q 599 583 628 540 q 524 646 569 625 q 428 667 479 667 q 254 594 314 667 q 194 390 194 522 q 228 240 194 307 q 319 133 261 172 q 449 93 376 93 z "},"đ":{"ha":899,"x_min":64,"x_max":867,"o":"m 428 822 l 428 882 l 867 882 l 867 822 l 428 822 m 385 -14 q 219 33 292 -14 q 105 160 146 79 q 64 347 64 242 q 113 546 64 458 q 247 685 163 633 q 438 736 332 736 q 540 724 493 736 q 628 685 586 713 l 628 921 q 600 987 628 972 q 519 1004 572 1001 l 519 1050 l 733 1111 l 753 1111 l 753 185 q 770 122 753 142 q 846 94 788 101 l 864 92 l 864 47 l 651 -3 l 632 -3 l 632 93 l 619 93 q 543 28 578 51 q 472 -5 508 4 q 385 -14 435 -14 m 449 93 q 553 107 511 93 q 628 153 594 121 l 628 475 q 599 583 628 540 q 524 646 569 625 q 428 667 479 667 q 254 594 314 667 q 194 390 194 522 q 228 240 194 307 q 319 133 261 172 q 449 93 376 93 z "},"ð":{"ha":818,"x_min":65,"x_max":743,"o":"m 403 -14 q 226 29 301 -14 q 108 149 150 72 q 65 325 65 226 q 108 497 65 421 q 225 618 150 574 q 400 663 300 663 q 545 627 483 663 q 629 539 607 592 l 679 544 q 727 465 711 508 q 743 386 743 422 q 701 173 743 263 q 582 35 658 83 q 403 -14 506 -14 m 421 57 q 563 119 507 57 q 619 293 619 181 q 593 439 619 369 q 515 552 567 508 q 385 596 463 596 q 243 535 299 596 q 188 357 188 475 q 213 216 188 285 q 290 102 239 147 q 421 57 342 57 m 743 386 l 618 490 q 576 654 614 569 q 476 817 539 739 q 334 963 414 896 q 163 1072 254 1029 l 201 1111 q 612 803 481 990 q 743 386 743 615 m 271 757 l 232 803 l 604 1067 l 643 1021 l 271 757 z "},"e":{"ha":746,"x_min":64,"x_max":690,"o":"m 410 -14 q 230 35 308 -14 q 108 167 151 83 q 64 360 64 251 q 113 551 64 467 q 247 686 163 636 q 433 736 331 736 q 606 674 540 736 q 672 492 672 611 q 672 474 672 483 q 669 450 672 465 l 667 431 l 171 431 l 171 490 l 535 490 q 539 532 539 513 q 504 629 539 592 q 408 667 469 667 q 249 592 308 667 q 190 397 190 518 q 226 242 190 311 q 327 135 261 174 q 481 96 393 96 q 574 111 528 96 q 663 157 619 126 l 690 131 q 565 20 631 54 q 410 -14 500 -14 z "},"é":{"ha":746,"x_min":64,"x_max":690,"o":"m 410 -14 q 230 35 308 -14 q 108 167 151 83 q 64 360 64 251 q 113 551 64 467 q 247 686 163 636 q 433 736 331 736 q 606 674 540 736 q 672 492 672 611 q 672 474 672 483 q 669 450 672 465 l 667 431 l 171 431 l 171 490 l 535 490 q 539 532 539 513 q 504 629 539 592 q 408 667 469 667 q 249 592 308 667 q 190 397 190 518 q 226 242 190 311 q 327 135 261 174 q 481 96 393 96 q 574 111 528 96 q 663 157 619 126 l 690 131 q 565 20 631 54 q 410 -14 500 -14 m 285 786 l 260 819 l 374 956 q 402 986 389 972 q 429 1014 415 1000 q 473 1028 449 1031 q 514 1006 497 1026 q 528 963 531 986 q 507 921 526 939 q 476 898 492 907 q 440 878 460 889 l 285 786 z "},"ě":{"ha":746,"x_min":64,"x_max":690,"o":"m 410 -14 q 230 35 308 -14 q 108 167 151 83 q 64 360 64 251 q 113 551 64 467 q 247 686 163 636 q 433 736 331 736 q 606 674 540 736 q 672 492 672 611 q 672 474 672 483 q 669 450 672 465 l 667 431 l 171 431 l 171 490 l 535 490 q 539 532 539 513 q 504 629 539 592 q 408 667 469 667 q 249 592 308 667 q 190 397 190 518 q 226 242 190 311 q 327 135 261 174 q 481 96 393 96 q 574 111 528 96 q 663 157 619 126 l 690 131 q 565 20 631 54 q 410 -14 500 -14 m 351 821 l 199 1001 l 221 1022 l 393 921 l 396 921 l 568 1022 l 590 1001 l 439 821 l 351 821 z "},"ê":{"ha":746,"x_min":64,"x_max":690,"o":"m 410 -14 q 230 35 308 -14 q 108 167 151 83 q 64 360 64 251 q 113 551 64 467 q 247 686 163 636 q 433 736 331 736 q 606 674 540 736 q 672 492 672 611 q 672 474 672 483 q 669 450 672 465 l 667 431 l 171 431 l 171 490 l 535 490 q 539 532 539 513 q 504 629 539 592 q 408 667 469 667 q 249 592 308 667 q 190 397 190 518 q 226 242 190 311 q 327 135 261 174 q 481 96 393 96 q 574 111 528 96 q 663 157 619 126 l 690 131 q 565 20 631 54 q 410 -14 500 -14 m 221 818 l 199 839 l 351 1019 l 439 1019 l 590 839 l 568 818 l 396 919 l 393 919 l 221 818 z "},"ë":{"ha":746,"x_min":64,"x_max":690,"o":"m 410 -14 q 230 35 308 -14 q 108 167 151 83 q 64 360 64 251 q 113 551 64 467 q 247 686 163 636 q 433 736 331 736 q 606 674 540 736 q 672 492 672 611 q 672 474 672 483 q 669 450 672 465 l 667 431 l 171 431 l 171 490 l 535 490 q 539 532 539 513 q 504 629 539 592 q 408 667 469 667 q 249 592 308 667 q 190 397 190 518 q 226 242 190 311 q 327 135 261 174 q 481 96 393 96 q 574 111 528 96 q 663 157 619 126 l 690 131 q 565 20 631 54 q 410 -14 500 -14 m 533 825 q 477 847 500 825 q 454 904 454 869 q 477 960 454 939 q 533 982 500 982 q 588 960 565 982 q 611 904 611 939 q 588 847 611 869 q 533 825 565 825 m 257 825 q 201 847 224 825 q 178 904 178 869 q 201 960 178 939 q 257 982 224 982 q 312 960 289 982 q 335 904 335 939 q 312 847 335 869 q 257 825 289 825 z "},"ė":{"ha":746,"x_min":64,"x_max":690,"o":"m 410 -14 q 230 35 308 -14 q 108 167 151 83 q 64 360 64 251 q 113 551 64 467 q 247 686 163 636 q 433 736 331 736 q 606 674 540 736 q 672 492 672 611 q 672 474 672 483 q 669 450 672 465 l 667 431 l 171 431 l 171 490 l 535 490 q 539 532 539 513 q 504 629 539 592 q 408 667 469 667 q 249 592 308 667 q 190 397 190 518 q 226 242 190 311 q 327 135 261 174 q 481 96 393 96 q 574 111 528 96 q 663 157 619 126 l 690 131 q 565 20 631 54 q 410 -14 500 -14 m 394 838 q 336 860 360 838 q 313 919 313 883 q 336 978 313 956 q 394 1000 360 1000 q 451 978 428 1000 q 475 919 475 956 q 451 860 475 883 q 394 838 428 838 z "},"è":{"ha":746,"x_min":64,"x_max":690,"o":"m 410 -14 q 230 35 308 -14 q 108 167 151 83 q 64 360 64 251 q 113 551 64 467 q 247 686 163 636 q 433 736 331 736 q 606 674 540 736 q 672 492 672 611 q 672 474 672 483 q 669 450 672 465 l 667 431 l 171 431 l 171 490 l 535 490 q 539 532 539 513 q 504 629 539 592 q 408 667 469 667 q 249 592 308 667 q 190 397 190 518 q 226 242 190 311 q 327 135 261 174 q 481 96 393 96 q 574 111 528 96 q 663 157 619 126 l 690 131 q 565 20 631 54 q 410 -14 500 -14 m 490 786 l 335 878 q 300 898 317 889 q 268 921 283 907 q 245 963 247 939 q 261 1006 243 986 q 302 1028 278 1026 q 344 1014 326 1031 q 374 986 361 1000 q 400 956 386 972 l 515 819 l 490 786 z "},"ē":{"ha":746,"x_min":64,"x_max":690,"o":"m 410 -14 q 230 35 308 -14 q 108 167 151 83 q 64 360 64 251 q 113 551 64 467 q 247 686 163 636 q 433 736 331 736 q 606 674 540 736 q 672 492 672 611 q 672 474 672 483 q 669 450 672 465 l 667 431 l 171 431 l 171 490 l 535 490 q 539 532 539 513 q 504 629 539 592 q 408 667 469 667 q 249 592 308 667 q 190 397 190 518 q 226 242 190 311 q 327 135 261 174 q 481 96 393 96 q 574 111 528 96 q 663 157 619 126 l 690 131 q 565 20 631 54 q 410 -14 500 -14 m 201 897 l 201 978 l 588 978 l 588 897 l 201 897 z "},"ę":{"ha":746,"x_min":64,"x_max":690,"o":"m 410 -14 q 230 35 308 -14 q 108 167 151 83 q 64 360 64 251 q 113 551 64 467 q 247 686 163 636 q 433 736 331 736 q 606 674 540 736 q 672 492 672 611 q 672 474 672 483 q 669 450 672 465 l 667 431 l 171 431 l 171 490 l 535 490 q 539 532 539 513 q 504 629 539 592 q 408 667 469 667 q 249 592 308 667 q 190 397 190 518 q 226 242 190 311 q 327 135 261 174 q 481 96 393 96 q 574 111 528 96 q 663 157 619 126 l 690 131 q 565 20 631 54 q 410 -14 500 -14 m 411 -357 q 315 -323 356 -357 q 274 -224 274 -289 q 303 -124 274 -169 q 376 -47 333 -79 q 457 0 419 -15 l 515 0 q 478 -21 501 -4 q 429 -63 454 -37 q 387 -124 404 -89 q 369 -199 369 -158 q 463 -287 369 -287 q 517 -279 494 -287 q 551 -265 540 -271 l 568 -286 q 513 -331 549 -306 q 411 -357 476 -357 z "},"f":{"ha":543,"x_min":43,"x_max":679,"o":"m 56 0 l 56 53 l 88 57 q 149 76 131 61 q 167 124 167 90 l 167 629 l 43 629 l 43 663 l 78 722 l 167 722 l 167 733 q 198 882 167 813 q 283 1004 229 951 q 402 1087 336 1057 q 538 1117 468 1117 q 635 1096 592 1117 q 679 1040 679 1075 q 651 995 679 1013 q 596 989 624 978 l 496 1033 q 464 1040 479 1040 q 389 1010 429 1040 q 320 922 349 979 q 292 785 292 865 l 292 722 l 528 722 l 528 690 l 492 629 l 292 629 l 292 149 q 314 79 292 100 q 396 56 336 58 l 431 53 l 431 0 l 56 0 z "},"g":{"ha":738,"x_min":51,"x_max":713,"o":"m 311 -357 q 122 -310 193 -357 q 51 -187 51 -262 q 67 -122 51 -158 q 131 -37 83 -85 l 207 39 l 269 31 q 193 -61 218 -26 q 168 -136 168 -96 q 223 -230 168 -199 q 369 -261 278 -261 q 560 -217 493 -261 q 628 -100 628 -172 q 599 -33 628 -53 q 494 -7 569 -12 l 247 11 q 126 45 169 18 q 83 115 83 72 q 108 175 83 151 q 172 235 133 199 l 215 276 l 281 276 l 239 229 q 208 192 215 203 q 201 172 201 182 q 218 144 201 154 q 275 131 235 133 l 529 110 q 707 -50 707 96 q 653 -206 707 -136 q 510 -317 600 -276 q 311 -357 419 -357 m 342 244 q 200 276 261 244 q 104 364 139 308 q 69 492 69 419 q 104 616 69 561 q 200 703 139 671 q 342 736 261 736 l 411 715 q 556 642 499 700 q 614 492 614 583 q 579 367 614 424 q 483 278 544 311 q 342 244 421 244 m 356 310 q 456 351 421 310 q 492 468 492 393 q 473 567 492 521 q 418 642 454 614 q 328 671 382 671 q 227 629 263 671 q 192 511 192 588 q 210 415 192 461 q 265 339 228 368 q 356 310 301 310 m 342 704 l 342 736 l 676 800 l 713 800 l 713 704 l 342 704 z "},"ğ":{"ha":738,"x_min":51,"x_max":713,"o":"m 311 -357 q 122 -310 193 -357 q 51 -187 51 -262 q 67 -122 51 -158 q 131 -37 83 -85 l 207 39 l 269 31 q 193 -61 218 -26 q 168 -136 168 -96 q 223 -230 168 -199 q 369 -261 278 -261 q 560 -217 493 -261 q 628 -100 628 -172 q 599 -33 628 -53 q 494 -7 569 -12 l 247 11 q 126 45 169 18 q 83 115 83 72 q 108 175 83 151 q 172 235 133 199 l 215 276 l 281 276 l 239 229 q 208 192 215 203 q 201 172 201 182 q 218 144 201 154 q 275 131 235 133 l 529 110 q 707 -50 707 96 q 653 -206 707 -136 q 510 -317 600 -276 q 311 -357 419 -357 m 342 244 q 200 276 261 244 q 104 364 139 308 q 69 492 69 419 q 104 616 69 561 q 200 703 139 671 q 342 736 261 736 l 411 715 q 556 642 499 700 q 614 492 614 583 q 579 367 614 424 q 483 278 544 311 q 342 244 421 244 m 356 310 q 456 351 421 310 q 492 468 492 393 q 473 567 492 521 q 418 642 454 614 q 328 671 382 671 q 227 629 263 671 q 192 511 192 588 q 210 415 192 461 q 265 339 228 368 q 356 310 301 310 m 342 704 l 342 736 l 676 800 l 713 800 l 713 704 l 342 704 m 368 831 q 218 880 261 831 q 179 1000 175 929 l 225 1000 q 265 944 232 968 q 368 919 299 919 q 473 944 439 919 q 513 1000 507 968 l 557 1000 q 518 880 561 929 q 368 831 475 831 z "},"ĝ":{"ha":738,"x_min":51,"x_max":713,"o":"m 311 -357 q 122 -310 193 -357 q 51 -187 51 -262 q 67 -122 51 -158 q 131 -37 83 -85 l 207 39 l 269 31 q 193 -61 218 -26 q 168 -136 168 -96 q 223 -230 168 -199 q 369 -261 278 -261 q 560 -217 493 -261 q 628 -100 628 -172 q 599 -33 628 -53 q 494 -7 569 -12 l 247 11 q 126 45 169 18 q 83 115 83 72 q 108 175 83 151 q 172 235 133 199 l 215 276 l 281 276 l 239 229 q 208 192 215 203 q 201 172 201 182 q 218 144 201 154 q 275 131 235 133 l 529 110 q 707 -50 707 96 q 653 -206 707 -136 q 510 -317 600 -276 q 311 -357 419 -357 m 342 244 q 200 276 261 244 q 104 364 139 308 q 69 492 69 419 q 104 616 69 561 q 200 703 139 671 q 342 736 261 736 l 411 715 q 556 642 499 700 q 614 492 614 583 q 579 367 614 424 q 483 278 544 311 q 342 244 421 244 m 356 310 q 456 351 421 310 q 492 468 492 393 q 473 567 492 521 q 418 642 454 614 q 328 671 382 671 q 227 629 263 671 q 192 511 192 588 q 210 415 192 461 q 265 339 228 368 q 356 310 301 310 m 342 704 l 342 736 l 676 800 l 713 800 l 713 704 l 342 704 m 194 818 l 172 839 l 325 1019 l 413 1019 l 564 839 l 542 818 l 369 919 l 367 919 l 194 818 z "},"ģ":{"ha":738,"x_min":51,"x_max":713,"o":"m 311 -357 q 122 -310 193 -357 q 51 -187 51 -262 q 67 -122 51 -158 q 131 -37 83 -85 l 207 39 l 269 31 q 193 -61 218 -26 q 168 -136 168 -96 q 223 -230 168 -199 q 369 -261 278 -261 q 560 -217 493 -261 q 628 -100 628 -172 q 599 -33 628 -53 q 494 -7 569 -12 l 247 11 q 126 45 169 18 q 83 115 83 72 q 108 175 83 151 q 172 235 133 199 l 215 276 l 281 276 l 239 229 q 208 192 215 203 q 201 172 201 182 q 218 144 201 154 q 275 131 235 133 l 529 110 q 707 -50 707 96 q 653 -206 707 -136 q 510 -317 600 -276 q 311 -357 419 -357 m 342 244 q 200 276 261 244 q 104 364 139 308 q 69 492 69 419 q 104 616 69 561 q 200 703 139 671 q 342 736 261 736 l 411 715 q 556 642 499 700 q 614 492 614 583 q 579 367 614 424 q 483 278 544 311 q 342 244 421 244 m 356 310 q 456 351 421 310 q 492 468 492 393 q 473 567 492 521 q 418 642 454 614 q 328 671 382 671 q 227 629 263 671 q 192 511 192 588 q 210 415 192 461 q 265 339 228 368 q 356 310 301 310 m 342 704 l 342 736 l 676 800 l 713 800 l 713 704 l 342 704 m 374 825 q 303 858 326 825 q 279 933 279 892 q 317 1042 279 997 q 426 1125 356 1088 l 454 1088 q 368 1019 394 1053 q 342 935 342 986 l 306 901 q 327 956 306 935 q 381 978 349 978 q 434 957 413 978 q 456 903 456 936 q 433 847 456 869 q 374 825 410 825 z "},"ġ":{"ha":738,"x_min":51,"x_max":713,"o":"m 311 -357 q 122 -310 193 -357 q 51 -187 51 -262 q 67 -122 51 -158 q 131 -37 83 -85 l 207 39 l 269 31 q 193 -61 218 -26 q 168 -136 168 -96 q 223 -230 168 -199 q 369 -261 278 -261 q 560 -217 493 -261 q 628 -100 628 -172 q 599 -33 628 -53 q 494 -7 569 -12 l 247 11 q 126 45 169 18 q 83 115 83 72 q 108 175 83 151 q 172 235 133 199 l 215 276 l 281 276 l 239 229 q 208 192 215 203 q 201 172 201 182 q 218 144 201 154 q 275 131 235 133 l 529 110 q 707 -50 707 96 q 653 -206 707 -136 q 510 -317 600 -276 q 311 -357 419 -357 m 342 244 q 200 276 261 244 q 104 364 139 308 q 69 492 69 419 q 104 616 69 561 q 200 703 139 671 q 342 736 261 736 l 411 715 q 556 642 499 700 q 614 492 614 583 q 579 367 614 424 q 483 278 544 311 q 342 244 421 244 m 356 310 q 456 351 421 310 q 492 468 492 393 q 473 567 492 521 q 418 642 454 614 q 328 671 382 671 q 227 629 263 671 q 192 511 192 588 q 210 415 192 461 q 265 339 228 368 q 356 310 301 310 m 342 704 l 342 736 l 676 800 l 713 800 l 713 704 l 342 704 m 368 838 q 310 860 333 838 q 286 919 286 883 q 310 978 286 956 q 368 1000 333 1000 q 425 978 401 1000 q 449 919 449 956 q 425 860 449 883 q 368 838 401 838 z "},"ḡ":{"ha":738,"x_min":51,"x_max":713,"o":"m 311 -357 q 122 -310 193 -357 q 51 -187 51 -262 q 67 -122 51 -158 q 131 -37 83 -85 l 207 39 l 269 31 q 193 -61 218 -26 q 168 -136 168 -96 q 223 -230 168 -199 q 369 -261 278 -261 q 560 -217 493 -261 q 628 -100 628 -172 q 599 -33 628 -53 q 494 -7 569 -12 l 247 11 q 126 45 169 18 q 83 115 83 72 q 108 175 83 151 q 172 235 133 199 l 215 276 l 281 276 l 239 229 q 208 192 215 203 q 201 172 201 182 q 218 144 201 154 q 275 131 235 133 l 529 110 q 707 -50 707 96 q 653 -206 707 -136 q 510 -317 600 -276 q 311 -357 419 -357 m 342 244 q 200 276 261 244 q 104 364 139 308 q 69 492 69 419 q 104 616 69 561 q 200 703 139 671 q 342 736 261 736 l 411 715 q 556 642 499 700 q 614 492 614 583 q 579 367 614 424 q 483 278 544 311 q 342 244 421 244 m 356 310 q 456 351 421 310 q 492 468 492 393 q 473 567 492 521 q 418 642 454 614 q 328 671 382 671 q 227 629 263 671 q 192 511 192 588 q 210 415 192 461 q 265 339 228 368 q 356 310 301 310 m 342 704 l 342 736 l 676 800 l 713 800 l 713 704 l 342 704 m 175 897 l 175 978 l 561 978 l 561 897 l 175 897 z "},"h":{"ha":888,"x_min":36,"x_max":856,"o":"m 36 0 l 36 53 l 67 57 q 132 83 117 63 q 147 147 147 104 l 147 921 q 119 987 147 972 q 39 1004 90 1001 l 39 1050 l 253 1111 l 272 1111 l 272 633 l 281 633 q 360 692 322 669 q 439 726 397 715 q 533 736 481 736 q 688 687 632 736 q 744 547 744 638 l 744 147 q 759 83 744 104 q 824 57 774 63 l 856 53 l 856 0 l 508 0 l 508 53 l 539 57 q 604 83 589 63 q 619 147 619 104 l 619 494 q 598 581 619 551 q 540 624 576 611 q 457 636 504 636 q 358 619 400 636 q 272 569 315 603 l 272 147 q 287 83 272 104 q 351 57 301 63 l 383 53 l 383 0 l 36 0 z "},"ħ":{"ha":888,"x_min":36,"x_max":856,"o":"m 42 822 l 42 882 l 481 882 l 481 822 l 42 822 m 36 0 l 36 53 l 67 57 q 132 83 117 63 q 147 147 147 104 l 147 921 q 119 987 147 972 q 39 1004 90 1001 l 39 1050 l 253 1111 l 272 1111 l 272 633 l 281 633 q 360 692 322 669 q 439 726 397 715 q 533 736 481 736 q 688 687 632 736 q 744 547 744 638 l 744 147 q 759 83 744 104 q 824 57 774 63 l 856 53 l 856 0 l 508 0 l 508 53 l 539 57 q 604 83 589 63 q 619 147 619 104 l 619 494 q 598 581 619 551 q 540 624 576 611 q 457 636 504 636 q 358 619 400 636 q 272 569 315 603 l 272 147 q 287 83 272 104 q 351 57 301 63 l 383 53 l 383 0 l 36 0 z "},"ĥ":{"ha":888,"x_min":14,"x_max":856,"o":"m 36 0 l 36 53 l 67 57 q 132 83 117 63 q 147 147 147 104 l 147 921 q 119 987 147 972 q 39 1004 90 1001 l 39 1050 l 253 1111 l 272 1111 l 272 633 l 281 633 q 360 692 322 669 q 439 726 397 715 q 533 736 481 736 q 688 687 632 736 q 744 547 744 638 l 744 147 q 759 83 744 104 q 824 57 774 63 l 856 53 l 856 0 l 508 0 l 508 53 l 539 57 q 604 83 589 63 q 619 147 619 104 l 619 494 q 598 581 619 551 q 540 624 576 611 q 457 636 504 636 q 358 619 400 636 q 272 569 315 603 l 272 147 q 287 83 272 104 q 351 57 301 63 l 383 53 l 383 0 l 36 0 m 35 1126 l 13 1147 l 165 1328 l 253 1328 l 404 1147 l 382 1126 l 210 1228 l 207 1228 l 35 1126 z "},"i":{"ha":432,"x_min":47,"x_max":394,"o":"m 47 0 l 47 53 l 79 57 q 144 83 129 63 q 158 147 158 104 l 158 540 q 131 606 158 592 q 50 624 103 621 l 50 669 l 264 731 l 283 731 l 283 147 q 299 83 283 104 q 364 57 314 63 l 394 53 l 394 0 l 47 0 m 207 838 q 149 860 172 838 q 125 919 125 883 q 149 978 125 956 q 207 1000 172 1000 q 264 978 240 1000 q 288 919 288 956 q 264 860 288 883 q 207 838 240 838 z "},"ı":{"ha":432,"x_min":47,"x_max":394,"o":"m 47 0 l 47 53 l 79 57 q 144 83 129 63 q 158 147 158 104 l 158 540 q 131 606 158 592 q 50 624 103 621 l 50 669 l 264 731 l 283 731 l 283 147 q 299 83 283 104 q 364 57 314 63 l 394 53 l 394 0 l 47 0 z "},"í":{"ha":432,"x_min":47,"x_max":394,"o":"m 47 0 l 47 53 l 79 57 q 144 83 129 63 q 158 147 158 104 l 158 540 q 131 606 158 592 q 50 624 103 621 l 50 669 l 264 731 l 283 731 l 283 147 q 299 83 283 104 q 364 57 314 63 l 394 53 l 394 0 l 47 0 m 99 786 l 74 819 l 188 956 q 216 986 203 972 q 243 1014 229 1000 q 287 1028 263 1031 q 328 1006 311 1026 q 342 963 344 986 q 321 921 340 939 q 290 898 306 907 q 254 878 274 889 l 99 786 z "},"î":{"ha":432,"x_min":11,"x_max":403,"o":"m 47 0 l 47 53 l 79 57 q 144 83 129 63 q 158 147 158 104 l 158 540 q 131 606 158 592 q 50 624 103 621 l 50 669 l 264 731 l 283 731 l 283 147 q 299 83 283 104 q 364 57 314 63 l 394 53 l 394 0 l 47 0 m 33 818 l 11 839 l 164 1019 l 251 1019 l 403 839 l 381 818 l 208 919 l 206 919 l 33 818 z "},"ï":{"ha":432,"x_min":-10,"x_max":424,"o":"m 47 0 l 47 53 l 79 57 q 144 83 129 63 q 158 147 158 104 l 158 540 q 131 606 158 592 q 50 624 103 621 l 50 669 l 264 731 l 283 731 l 283 147 q 299 83 283 104 q 364 57 314 63 l 394 53 l 394 0 l 47 0 m 346 825 q 290 847 313 825 q 267 904 267 869 q 290 960 267 939 q 346 982 313 982 q 401 960 378 982 q 424 904 424 939 q 401 847 424 869 q 346 825 378 825 m 69 825 q 13 847 36 825 q -10 904 -10 869 q 13 960 -10 939 q 69 982 36 982 q 124 960 101 982 q 147 904 147 939 q 124 847 147 869 q 69 825 101 825 z "},"ì":{"ha":432,"x_min":47,"x_max":394,"o":"m 47 0 l 47 53 l 79 57 q 144 83 129 63 q 158 147 158 104 l 158 540 q 131 606 158 592 q 50 624 103 621 l 50 669 l 264 731 l 283 731 l 283 147 q 299 83 283 104 q 364 57 314 63 l 394 53 l 394 0 l 47 0 m 303 786 l 147 878 q 113 898 129 889 q 81 921 96 907 q 58 963 60 939 q 74 1006 56 986 q 115 1028 90 1026 q 157 1014 139 1031 q 186 986 174 1000 q 213 956 199 972 l 328 819 l 303 786 z "},"ī":{"ha":432,"x_min":14,"x_max":400,"o":"m 47 0 l 47 53 l 79 57 q 144 83 129 63 q 158 147 158 104 l 158 540 q 131 606 158 592 q 50 624 103 621 l 50 669 l 264 731 l 283 731 l 283 147 q 299 83 283 104 q 364 57 314 63 l 394 53 l 394 0 l 47 0 m 14 897 l 14 978 l 400 978 l 400 897 l 14 897 z "},"į":{"ha":432,"x_min":47,"x_max":394,"o":"m 47 0 l 47 53 l 79 57 q 144 83 129 63 q 158 147 158 104 l 158 540 q 131 606 158 592 q 50 624 103 621 l 50 669 l 264 731 l 283 731 l 283 147 q 299 83 283 104 q 364 57 314 63 l 394 53 l 394 0 l 47 0 m 207 838 q 149 860 172 838 q 125 919 125 883 q 149 978 125 956 q 207 1000 172 1000 q 264 978 240 1000 q 288 919 288 956 q 264 860 288 883 q 207 838 240 838 m 210 -357 q 113 -323 154 -357 q 72 -224 72 -289 q 102 -124 72 -169 q 175 -47 132 -79 q 256 0 218 -15 l 314 0 q 276 -21 300 -4 q 228 -63 253 -37 q 185 -124 203 -89 q 168 -199 168 -158 q 261 -287 168 -287 q 316 -279 293 -287 q 350 -265 339 -271 l 367 -286 q 311 -331 347 -306 q 210 -357 275 -357 z "},"ĩ":{"ha":432,"x_min":-42,"x_max":456,"o":"m 47 0 l 47 53 l 79 57 q 144 83 129 63 q 158 147 158 104 l 158 540 q 131 606 158 592 q 50 624 103 621 l 50 669 l 264 731 l 283 731 l 283 147 q 299 83 283 104 q 364 57 314 63 l 394 53 l 394 0 l 47 0 m 0 857 l -42 865 q 3 957 -22 925 q 57 1001 29 989 q 110 1013 85 1013 q 165 1003 139 1013 q 207 988 190 994 l 238 974 q 281 957 264 963 q 315 951 299 951 q 378 970 356 951 q 414 1017 400 989 l 456 1008 q 411 917 436 949 q 358 873 386 885 q 304 861 331 861 q 249 870 275 861 q 207 886 224 879 l 176 900 q 133 917 150 911 q 99 922 115 922 q 37 903 60 922 q 0 857 14 885 z "},"ĳ":{"ha":818,"x_min":47,"x_max":719,"o":"m 47 0 l 47 53 l 79 57 q 144 83 129 63 q 158 147 158 104 l 158 540 q 131 606 158 592 q 50 624 103 621 l 50 669 l 264 731 l 283 731 l 283 147 q 299 83 283 104 q 364 57 314 63 l 394 53 l 394 0 l 47 0 m 207 838 q 149 860 172 838 q 125 919 125 883 q 149 978 125 956 q 207 1000 172 1000 q 264 978 240 1000 q 288 919 288 956 q 264 860 288 883 q 207 838 240 838 m 432 -357 q 347 -340 386 -357 q 308 -296 308 -322 q 319 -262 308 -278 q 349 -237 331 -246 q 389 -239 368 -229 l 457 -269 q 488 -280 478 -278 q 507 -282 499 -282 q 551 -254 536 -282 q 571 -180 565 -226 q 576 -78 576 -133 l 576 540 q 553 603 576 585 q 468 624 529 621 l 468 669 l 682 731 l 701 731 l 701 -12 q 673 -184 701 -106 q 585 -310 644 -262 q 432 -357 525 -357 m 639 838 q 581 860 604 838 q 557 919 557 883 q 581 978 557 956 q 639 1000 604 1000 q 696 978 672 1000 q 719 919 719 956 q 696 860 719 883 q 639 838 672 838 z "},"j":{"ha":386,"x_min":-124,"x_max":288,"o":"m 0 -357 q -85 -340 -46 -357 q -124 -296 -124 -322 q -112 -262 -124 -278 q -83 -237 -101 -246 q -43 -239 -64 -229 l 25 -269 q 56 -280 46 -278 q 75 -282 67 -282 q 119 -254 104 -282 q 139 -180 133 -226 q 144 -78 144 -133 l 144 540 q 121 603 144 585 q 36 624 97 621 l 36 669 l 250 731 l 269 731 l 269 -12 q 241 -184 269 -106 q 153 -310 213 -262 q 0 -357 93 -357 m 206 838 q 147 860 171 838 q 124 919 124 883 q 147 978 124 956 q 206 1000 171 1000 q 263 978 239 1000 q 286 919 286 956 q 263 860 286 883 q 206 838 239 838 z "},"ȷ":{"ha":386,"x_min":-124,"x_max":269,"o":"m 0 -357 q -85 -340 -46 -357 q -124 -296 -124 -322 q -112 -262 -124 -278 q -83 -237 -101 -246 q -43 -239 -64 -229 l 25 -269 q 56 -280 46 -278 q 75 -282 67 -282 q 119 -254 104 -282 q 139 -180 133 -226 q 144 -78 144 -133 l 144 540 q 121 603 144 585 q 36 624 97 621 l 36 669 l 250 731 l 269 731 l 269 -12 q 241 -184 269 -106 q 153 -310 213 -262 q 0 -357 93 -357 z "},"ĵ":{"ha":386,"x_min":-124,"x_max":403,"o":"m 0 -357 q -85 -340 -46 -357 q -124 -296 -124 -322 q -112 -262 -124 -278 q -83 -237 -101 -246 q -43 -239 -64 -229 l 25 -269 q 56 -280 46 -278 q 75 -282 67 -282 q 119 -254 104 -282 q 139 -180 133 -226 q 144 -78 144 -133 l 144 540 q 121 603 144 585 q 36 624 97 621 l 36 669 l 250 731 l 269 731 l 269 -12 q 241 -184 269 -106 q 153 -310 213 -262 q 0 -357 93 -357 m 32 818 l 10 839 l 163 1019 l 250 1019 l 401 839 l 379 818 l 207 919 l 204 919 l 32 818 z "},"k":{"ha":847,"x_min":36,"x_max":818,"o":"m 36 0 l 36 53 l 67 57 q 132 83 117 63 q 147 147 147 104 l 147 921 q 119 987 147 972 q 39 1004 90 1001 l 39 1050 l 253 1111 l 272 1111 l 272 147 q 287 83 272 104 q 351 57 301 63 l 383 53 l 383 0 l 36 0 m 467 0 l 467 53 l 497 54 q 550 72 539 57 q 553 111 561 88 q 526 161 544 135 l 371 403 l 461 483 l 665 161 q 728 83 699 108 q 790 56 758 58 l 818 53 l 818 0 l 467 0 m 242 242 l 189 275 l 514 578 q 559 644 563 622 q 501 668 556 667 l 468 669 l 468 722 l 818 722 l 818 669 l 782 667 q 689 641 726 664 q 613 582 651 618 l 242 242 z "},"ķ":{"ha":847,"x_min":36,"x_max":818,"o":"m 36 0 l 36 53 l 67 57 q 132 83 117 63 q 147 147 147 104 l 147 921 q 119 987 147 972 q 39 1004 90 1001 l 39 1050 l 253 1111 l 272 1111 l 272 147 q 287 83 272 104 q 351 57 301 63 l 383 53 l 383 0 l 36 0 m 467 0 l 467 53 l 497 54 q 550 72 539 57 q 553 111 561 88 q 526 161 544 135 l 371 403 l 461 483 l 665 161 q 728 83 699 108 q 790 56 758 58 l 818 53 l 818 0 l 467 0 m 242 242 l 189 275 l 514 578 q 559 644 563 622 q 501 668 556 667 l 468 669 l 468 722 l 818 722 l 818 669 l 782 667 q 689 641 726 664 q 613 582 651 618 l 242 242 m 358 -357 l 332 -319 q 417 -251 392 -283 q 443 -167 443 -218 l 479 -133 q 458 -188 479 -167 q 404 -210 436 -210 q 351 -189 374 -210 q 329 -135 329 -168 q 353 -79 329 -101 q 411 -57 376 -57 q 482 -90 458 -57 q 506 -165 506 -124 q 467 -274 506 -229 q 358 -357 429 -319 z "},"l":{"ha":418,"x_min":36,"x_max":383,"o":"m 36 0 l 36 53 l 67 57 q 132 83 117 63 q 147 147 147 104 l 147 921 q 119 987 147 972 q 39 1004 90 1001 l 39 1050 l 253 1111 l 272 1111 l 272 147 q 287 83 272 104 q 351 57 301 63 l 383 53 l 383 0 l 36 0 z "},"ĺ":{"ha":418,"x_min":36,"x_max":383,"o":"m 36 0 l 36 53 l 67 57 q 132 83 117 63 q 147 147 147 104 l 147 921 q 119 987 147 972 q 39 1004 90 1001 l 39 1050 l 253 1111 l 272 1111 l 272 147 q 287 83 272 104 q 351 57 301 63 l 383 53 l 383 0 l 36 0 m 101 1175 l 76 1208 l 190 1344 q 219 1375 206 1361 q 246 1403 232 1389 q 290 1417 265 1419 q 331 1394 314 1415 q 345 1351 347 1375 q 324 1310 343 1328 q 292 1287 308 1296 q 257 1267 276 1278 l 101 1175 z "},"ľ":{"ha":435,"x_min":36,"x_max":529,"o":"m 382 783 l 354 821 q 441 890 415 857 q 467 974 467 922 l 503 1007 q 481 952 503 974 q 428 931 460 931 q 375 951 397 931 q 353 1006 353 972 q 376 1061 353 1039 q 435 1083 400 1083 q 506 1050 482 1083 q 529 975 529 1017 q 491 866 529 911 q 382 783 453 821 m 36 0 l 36 53 l 67 57 q 132 83 117 63 q 147 147 147 104 l 147 921 q 119 987 147 972 q 39 1004 90 1001 l 39 1050 l 253 1111 l 272 1111 l 272 147 q 287 83 272 104 q 351 57 301 63 l 383 53 l 383 0 l 36 0 z "},"ļ":{"ha":418,"x_min":36,"x_max":383,"o":"m 36 0 l 36 53 l 67 57 q 132 83 117 63 q 147 147 147 104 l 147 921 q 119 987 147 972 q 39 1004 90 1001 l 39 1050 l 253 1111 l 272 1111 l 272 147 q 287 83 272 104 q 351 57 301 63 l 383 53 l 383 0 l 36 0 m 150 -357 l 124 -319 q 209 -251 183 -283 q 235 -167 235 -218 l 271 -133 q 249 -188 271 -167 q 196 -210 228 -210 q 143 -189 165 -210 q 121 -135 121 -168 q 144 -79 121 -101 q 203 -57 168 -57 q 274 -90 250 -57 q 297 -165 297 -124 q 259 -274 297 -229 q 150 -357 221 -319 z "},"ł":{"ha":460,"x_min":54,"x_max":408,"o":"m 61 438 l 61 501 l 408 643 l 408 579 l 61 438 m 54 0 l 54 53 l 86 57 q 151 83 136 63 q 165 147 165 104 l 165 921 q 138 987 165 972 q 57 1004 110 1001 l 57 1050 l 271 1111 l 290 1111 l 290 147 q 306 83 290 104 q 371 57 321 63 l 401 53 l 401 0 l 54 0 z "},"m":{"ha":1290,"x_min":47,"x_max":1256,"o":"m 47 0 l 47 53 l 79 57 q 144 83 129 63 q 158 147 158 104 l 158 540 q 131 606 158 592 q 50 624 103 621 l 50 669 l 260 731 l 279 731 l 279 629 l 288 629 q 406 711 353 686 q 532 736 458 736 q 649 704 604 736 q 706 625 693 672 l 717 625 q 839 711 785 686 q 963 736 893 736 q 1065 715 1025 736 q 1125 657 1106 694 q 1144 565 1144 619 l 1144 147 q 1160 83 1144 104 q 1225 57 1175 63 l 1256 53 l 1256 0 l 908 0 l 908 53 l 940 57 q 1005 83 990 63 q 1019 147 1019 104 l 1019 501 q 1003 585 1019 557 q 958 625 986 614 q 893 636 929 636 q 802 620 843 636 q 714 565 761 604 l 714 147 q 729 83 714 104 q 794 57 744 63 l 825 53 l 825 0 l 478 0 l 478 53 l 510 57 q 574 83 560 63 q 589 147 589 104 l 589 501 q 572 585 589 557 q 527 625 556 614 q 463 636 499 636 q 369 619 411 636 q 283 569 328 603 l 283 147 q 299 83 283 104 q 364 57 314 63 l 394 53 l 394 0 l 47 0 z "},"n":{"ha":900,"x_min":47,"x_max":867,"o":"m 47 0 l 47 53 l 79 57 q 144 83 129 63 q 158 147 158 104 l 158 540 q 131 606 158 592 q 50 624 103 621 l 50 669 l 260 731 l 279 731 l 279 629 l 288 629 q 411 711 354 686 q 544 736 468 736 q 699 687 643 736 q 756 549 756 638 l 756 147 q 771 83 756 104 q 836 57 786 63 l 867 53 l 867 0 l 519 0 l 519 53 l 551 57 q 616 83 601 63 q 631 147 631 104 l 631 496 q 610 581 631 551 q 553 624 589 611 q 468 636 517 636 q 370 619 413 636 q 283 569 328 603 l 283 147 q 299 83 283 104 q 364 57 314 63 l 394 53 l 394 0 l 47 0 z "},"ń":{"ha":900,"x_min":47,"x_max":867,"o":"m 47 0 l 47 53 l 79 57 q 144 83 129 63 q 158 147 158 104 l 158 540 q 131 606 158 592 q 50 624 103 621 l 50 669 l 260 731 l 279 731 l 279 629 l 288 629 q 411 711 354 686 q 544 736 468 736 q 699 687 643 736 q 756 549 756 638 l 756 147 q 771 83 756 104 q 836 57 786 63 l 867 53 l 867 0 l 519 0 l 519 53 l 551 57 q 616 83 601 63 q 631 147 631 104 l 631 496 q 610 581 631 551 q 553 624 589 611 q 468 636 517 636 q 370 619 413 636 q 283 569 328 603 l 283 147 q 299 83 283 104 q 364 57 314 63 l 394 53 l 394 0 l 47 0 m 340 786 l 315 819 l 429 956 q 458 986 444 972 q 485 1014 471 1000 q 528 1028 504 1031 q 569 1006 553 1026 q 584 963 586 986 q 563 921 582 939 q 531 898 547 907 q 496 878 515 889 l 340 786 z "},"ň":{"ha":900,"x_min":47,"x_max":867,"o":"m 47 0 l 47 53 l 79 57 q 144 83 129 63 q 158 147 158 104 l 158 540 q 131 606 158 592 q 50 624 103 621 l 50 669 l 260 731 l 279 731 l 279 629 l 288 629 q 411 711 354 686 q 544 736 468 736 q 699 687 643 736 q 756 549 756 638 l 756 147 q 771 83 756 104 q 836 57 786 63 l 867 53 l 867 0 l 519 0 l 519 53 l 551 57 q 616 83 601 63 q 631 147 631 104 l 631 496 q 610 581 631 551 q 553 624 589 611 q 468 636 517 636 q 370 619 413 636 q 283 569 328 603 l 283 147 q 299 83 283 104 q 364 57 314 63 l 394 53 l 394 0 l 47 0 m 406 821 l 253 1001 l 275 1022 l 447 921 l 450 921 l 622 1022 l 644 1001 l 493 821 l 406 821 z "},"ņ":{"ha":900,"x_min":47,"x_max":867,"o":"m 47 0 l 47 53 l 79 57 q 144 83 129 63 q 158 147 158 104 l 158 540 q 131 606 158 592 q 50 624 103 621 l 50 669 l 260 731 l 279 731 l 279 629 l 288 629 q 411 711 354 686 q 544 736 468 736 q 699 687 643 736 q 756 549 756 638 l 756 147 q 771 83 756 104 q 836 57 786 63 l 867 53 l 867 0 l 519 0 l 519 53 l 551 57 q 616 83 601 63 q 631 147 631 104 l 631 496 q 610 581 631 551 q 553 624 589 611 q 468 636 517 636 q 370 619 413 636 q 283 569 328 603 l 283 147 q 299 83 283 104 q 364 57 314 63 l 394 53 l 394 0 l 47 0 m 396 -357 l 369 -319 q 455 -251 429 -283 q 481 -167 481 -218 l 517 -133 q 495 -188 517 -167 q 442 -210 474 -210 q 389 -189 411 -210 q 367 -135 367 -168 q 390 -79 367 -101 q 449 -57 414 -57 q 519 -90 496 -57 q 543 -165 543 -124 q 505 -274 543 -229 q 396 -357 467 -319 z "},"ñ":{"ha":900,"x_min":47,"x_max":867,"o":"m 47 0 l 47 53 l 79 57 q 144 83 129 63 q 158 147 158 104 l 158 540 q 131 606 158 592 q 50 624 103 621 l 50 669 l 260 731 l 279 731 l 279 629 l 288 629 q 411 711 354 686 q 544 736 468 736 q 699 687 643 736 q 756 549 756 638 l 756 147 q 771 83 756 104 q 836 57 786 63 l 867 53 l 867 0 l 519 0 l 519 53 l 551 57 q 616 83 601 63 q 631 147 631 104 l 631 496 q 610 581 631 551 q 553 624 589 611 q 468 636 517 636 q 370 619 413 636 q 283 569 328 603 l 283 147 q 299 83 283 104 q 364 57 314 63 l 394 53 l 394 0 l 47 0 m 242 857 l 200 865 q 245 957 219 925 q 299 1001 271 989 q 351 1013 326 1013 q 406 1003 381 1013 q 449 988 432 994 l 479 974 q 523 957 506 963 q 557 951 540 951 q 619 970 597 951 q 656 1017 642 989 l 697 1008 q 653 917 678 949 q 600 873 628 885 q 546 861 572 861 q 491 870 517 861 q 449 886 465 879 l 418 900 q 374 917 392 911 q 340 922 357 922 q 278 903 301 922 q 242 857 256 885 z "},"ŋ":{"ha":854,"x_min":47,"x_max":756,"o":"m 486 -357 q 401 -340 440 -357 q 363 -296 363 -322 q 374 -262 363 -278 q 405 -237 386 -246 q 444 -239 424 -229 l 513 -269 q 543 -280 532 -278 q 563 -282 554 -282 q 606 -254 592 -282 q 625 -180 619 -226 q 631 -78 631 -133 l 631 496 q 610 581 631 551 q 553 624 589 611 q 468 636 517 636 q 370 619 413 636 q 283 569 328 603 l 283 147 q 299 83 283 104 q 364 57 314 63 l 394 53 l 394 0 l 47 0 l 47 53 l 79 57 q 144 83 129 63 q 158 147 158 104 l 158 540 q 131 606 158 592 q 50 624 103 621 l 50 669 l 260 731 l 279 731 l 279 629 l 288 629 q 411 711 354 686 q 544 736 468 736 q 699 687 643 736 q 756 549 756 638 l 756 -12 q 727 -184 756 -106 q 639 -310 699 -262 q 486 -357 579 -357 z "},"o":{"ha":879,"x_min":64,"x_max":815,"o":"m 440 -14 q 243 33 328 -14 q 111 165 158 81 q 64 361 64 250 q 111 557 64 472 q 242 689 158 642 q 439 736 326 736 q 636 689 551 736 q 768 558 721 642 q 815 361 815 474 q 769 166 815 250 q 638 34 722 82 q 440 -14 553 -14 m 467 57 q 623 127 565 57 q 681 325 681 197 q 647 501 681 424 q 553 622 614 578 q 413 665 493 665 q 256 595 313 665 q 199 397 199 525 q 232 222 199 300 q 326 101 265 144 q 467 57 386 57 z "},"ó":{"ha":879,"x_min":64,"x_max":815,"o":"m 440 -14 q 243 33 328 -14 q 111 165 158 81 q 64 361 64 250 q 111 557 64 472 q 242 689 158 642 q 439 736 326 736 q 636 689 551 736 q 768 558 721 642 q 815 361 815 474 q 769 166 815 250 q 638 34 722 82 q 440 -14 553 -14 m 467 57 q 623 127 565 57 q 681 325 681 197 q 647 501 681 424 q 553 622 614 578 q 413 665 493 665 q 256 595 313 665 q 199 397 199 525 q 232 222 199 300 q 326 101 265 144 q 467 57 386 57 m 325 786 l 300 819 l 414 956 q 442 986 429 972 q 469 1014 456 1000 q 513 1028 489 1031 q 554 1006 538 1026 q 569 963 571 986 q 547 921 567 939 q 516 898 532 907 q 481 878 500 889 l 325 786 z "},"ô":{"ha":879,"x_min":64,"x_max":815,"o":"m 440 -14 q 243 33 328 -14 q 111 165 158 81 q 64 361 64 250 q 111 557 64 472 q 242 689 158 642 q 439 736 326 736 q 636 689 551 736 q 768 558 721 642 q 815 361 815 474 q 769 166 815 250 q 638 34 722 82 q 440 -14 553 -14 m 467 57 q 623 127 565 57 q 681 325 681 197 q 647 501 681 424 q 553 622 614 578 q 413 665 493 665 q 256 595 313 665 q 199 397 199 525 q 232 222 199 300 q 326 101 265 144 q 467 57 386 57 m 261 818 l 239 839 l 392 1019 l 479 1019 l 631 839 l 608 818 l 436 919 l 433 919 l 261 818 z "},"ö":{"ha":879,"x_min":64,"x_max":815,"o":"m 440 -14 q 243 33 328 -14 q 111 165 158 81 q 64 361 64 250 q 111 557 64 472 q 242 689 158 642 q 439 736 326 736 q 636 689 551 736 q 768 558 721 642 q 815 361 815 474 q 769 166 815 250 q 638 34 722 82 q 440 -14 553 -14 m 467 57 q 623 127 565 57 q 681 325 681 197 q 647 501 681 424 q 553 622 614 578 q 413 665 493 665 q 256 595 313 665 q 199 397 199 525 q 232 222 199 300 q 326 101 265 144 q 467 57 386 57 m 574 825 q 517 847 540 825 q 494 904 494 869 q 517 960 494 939 q 574 982 540 982 q 628 960 606 982 q 651 904 651 939 q 628 847 651 869 q 574 825 606 825 m 297 825 q 241 847 264 825 q 218 904 218 869 q 241 960 218 939 q 297 982 264 982 q 352 960 329 982 q 375 904 375 939 q 352 847 375 869 q 297 825 329 825 z "},"ò":{"ha":879,"x_min":64,"x_max":815,"o":"m 440 -14 q 243 33 328 -14 q 111 165 158 81 q 64 361 64 250 q 111 557 64 472 q 242 689 158 642 q 439 736 326 736 q 636 689 551 736 q 768 558 721 642 q 815 361 815 474 q 769 166 815 250 q 638 34 722 82 q 440 -14 553 -14 m 467 57 q 623 127 565 57 q 681 325 681 197 q 647 501 681 424 q 553 622 614 578 q 413 665 493 665 q 256 595 313 665 q 199 397 199 525 q 232 222 199 300 q 326 101 265 144 q 467 57 386 57 m 531 786 l 375 878 q 340 898 357 889 q 308 921 324 907 q 285 963 288 939 q 301 1006 283 986 q 342 1028 318 1026 q 385 1014 367 1031 q 414 986 401 1000 q 440 956 426 972 l 556 819 l 531 786 z "},"ő":{"ha":879,"x_min":64,"x_max":815,"o":"m 440 -14 q 243 33 328 -14 q 111 165 158 81 q 64 361 64 250 q 111 557 64 472 q 242 689 158 642 q 439 736 326 736 q 636 689 551 736 q 768 558 721 642 q 815 361 815 474 q 769 166 815 250 q 638 34 722 82 q 440 -14 553 -14 m 467 57 q 623 127 565 57 q 681 325 681 197 q 647 501 681 424 q 553 622 614 578 q 413 665 493 665 q 256 595 313 665 q 199 397 199 525 q 232 222 199 300 q 326 101 265 144 q 467 57 386 57 m 474 786 l 449 819 l 563 956 q 591 986 578 972 q 618 1014 604 1000 q 662 1028 638 1031 q 703 1006 686 1026 q 717 963 719 986 q 696 921 715 939 q 665 898 681 907 q 629 878 649 889 l 474 786 m 224 786 l 199 819 l 313 956 q 341 986 328 972 q 368 1014 354 1000 q 412 1028 388 1031 q 453 1006 436 1026 q 467 963 469 986 q 446 921 465 939 q 415 898 431 907 q 379 878 399 889 l 224 786 z "},"ō":{"ha":879,"x_min":64,"x_max":815,"o":"m 440 -14 q 243 33 328 -14 q 111 165 158 81 q 64 361 64 250 q 111 557 64 472 q 242 689 158 642 q 439 736 326 736 q 636 689 551 736 q 768 558 721 642 q 815 361 815 474 q 769 166 815 250 q 638 34 722 82 q 440 -14 553 -14 m 467 57 q 623 127 565 57 q 681 325 681 197 q 647 501 681 424 q 553 622 614 578 q 413 665 493 665 q 256 595 313 665 q 199 397 199 525 q 232 222 199 300 q 326 101 265 144 q 467 57 386 57 m 242 897 l 242 978 l 628 978 l 628 897 l 242 897 z "},"ø":{"ha":879,"x_min":64,"x_max":815,"o":"m 133 -67 l 675 792 l 749 792 l 207 -67 l 133 -67 m 440 -14 q 243 33 328 -14 q 111 165 158 81 q 64 361 64 250 q 111 557 64 472 q 242 689 158 642 q 439 736 326 736 q 636 689 551 736 q 768 558 721 642 q 815 361 815 474 q 769 166 815 250 q 638 34 722 82 q 440 -14 553 -14 m 467 58 q 623 128 565 58 q 681 325 681 197 q 647 501 681 424 q 553 622 614 578 q 413 665 493 665 q 256 595 313 665 q 199 397 199 525 q 232 222 199 300 q 326 101 265 144 q 467 58 386 58 z "},"õ":{"ha":879,"x_min":64,"x_max":815,"o":"m 440 -14 q 243 33 328 -14 q 111 165 158 81 q 64 361 64 250 q 111 557 64 472 q 242 689 158 642 q 439 736 326 736 q 636 689 551 736 q 768 558 721 642 q 815 361 815 474 q 769 166 815 250 q 638 34 722 82 q 440 -14 553 -14 m 467 57 q 623 127 565 57 q 681 325 681 197 q 647 501 681 424 q 553 622 614 578 q 413 665 493 665 q 256 595 313 665 q 199 397 199 525 q 232 222 199 300 q 326 101 265 144 q 467 57 386 57 m 228 857 l 186 865 q 231 957 206 925 q 285 1001 257 989 q 338 1013 313 1013 q 392 1003 367 1013 q 435 988 418 994 l 465 974 q 509 957 492 963 q 543 951 526 951 q 606 970 583 951 q 642 1017 628 989 l 683 1008 q 639 917 664 949 q 586 873 614 885 q 532 861 558 861 q 477 870 503 861 q 435 886 451 879 l 404 900 q 360 917 378 911 q 326 922 343 922 q 265 903 288 922 q 228 857 242 885 z "},"œ":{"ha":1349,"x_min":64,"x_max":1293,"o":"m 440 -14 q 243 33 328 -14 q 111 165 158 81 q 64 361 64 250 q 111 557 64 472 q 242 689 158 642 q 439 736 326 736 q 636 682 550 736 q 767 532 722 628 l 771 203 q 642 44 731 103 q 440 -14 554 -14 m 467 57 q 611 127 556 57 q 667 325 667 197 q 634 501 667 424 q 544 622 601 578 q 413 665 486 665 q 256 595 313 665 q 199 397 199 525 q 232 222 199 300 q 326 101 265 144 q 467 57 386 57 m 1013 -14 q 833 35 911 -14 q 710 167 754 83 q 667 360 667 251 q 716 551 667 467 q 850 686 765 636 q 1036 736 935 736 q 1217 665 1150 736 q 1274 457 1285 593 l 1269 431 l 774 431 l 774 490 l 1138 490 q 1118 616 1153 565 q 1011 667 1083 667 q 852 592 911 667 q 793 397 793 518 q 828 242 793 311 q 930 135 864 174 q 1083 96 996 96 q 1176 111 1131 96 q 1265 157 1222 126 l 1293 131 q 1168 20 1233 54 q 1013 -14 1103 -14 z "},"p":{"ha":897,"x_min":33,"x_max":833,"o":"m 33 -343 l 33 -290 l 65 -286 q 127 -267 110 -282 q 144 -219 144 -251 l 144 540 q 116 606 144 592 q 36 624 88 621 l 36 669 l 246 731 l 265 731 l 265 629 l 276 629 q 353 694 318 671 q 424 726 388 717 q 511 736 461 736 q 678 690 606 736 q 792 563 751 643 q 833 375 833 482 q 783 176 833 264 q 649 38 733 89 q 457 -14 564 -14 q 357 -2 403 -14 q 269 42 311 10 l 269 -194 q 288 -258 269 -237 q 374 -286 307 -279 l 408 -290 l 408 -343 l 33 -343 m 468 56 q 642 128 582 56 q 703 333 703 200 q 669 483 703 417 q 580 590 636 550 q 449 629 524 629 q 344 615 386 629 q 269 571 301 600 l 269 249 q 297 147 269 190 q 370 79 325 103 q 468 56 415 56 z "},"þ":{"ha":871,"x_min":7,"x_max":806,"o":"m 7 -343 l 7 -290 l 38 -286 q 99 -267 82 -282 q 117 -219 117 -251 l 117 921 q 89 987 117 972 q 8 1004 61 1001 l 8 1050 l 222 1111 l 242 1111 l 242 629 l 250 629 q 325 694 290 671 q 397 726 360 717 q 485 736 433 736 q 651 690 579 736 q 765 563 724 643 q 806 375 806 482 q 756 176 806 264 q 622 38 707 89 q 429 -14 536 -14 q 330 -2 375 -14 q 242 42 285 10 l 242 -194 q 260 -258 242 -237 q 347 -286 279 -279 l 382 -290 l 382 -343 l 7 -343 m 442 56 q 615 128 554 56 q 675 333 675 200 q 642 483 675 417 q 553 590 610 550 q 422 629 496 629 q 317 615 358 629 q 242 571 275 600 l 242 249 q 269 147 242 190 q 343 79 297 103 q 442 56 389 56 z "},"q":{"ha":869,"x_min":64,"x_max":863,"o":"m 488 -343 l 488 -290 l 522 -286 q 609 -258 590 -279 q 628 -194 628 -237 l 628 93 l 619 93 q 544 29 579 53 q 472 -4 510 6 q 385 -14 435 -14 q 219 33 292 -14 q 105 160 146 79 q 64 347 64 242 q 114 546 64 458 q 251 685 164 633 q 451 736 339 736 q 569 722 517 736 q 667 682 622 708 l 700 736 l 753 736 l 753 -219 q 771 -267 753 -251 q 831 -286 789 -282 l 863 -290 l 863 -343 l 488 -343 m 449 93 q 553 107 513 93 q 628 153 594 121 l 628 485 q 599 595 628 556 q 528 651 571 635 q 440 667 485 667 q 256 595 318 667 q 194 390 194 524 q 228 240 194 307 q 319 133 261 172 q 449 93 376 93 z "},"r":{"ha":610,"x_min":47,"x_max":594,"o":"m 47 0 l 47 53 l 79 57 q 142 81 125 61 q 158 147 158 100 l 158 540 q 135 603 158 585 q 50 624 111 621 l 50 669 l 260 731 l 279 731 l 279 619 l 292 619 q 372 699 322 664 q 493 733 422 733 q 569 714 543 733 q 594 658 594 694 q 576 615 594 633 q 533 591 558 597 q 486 597 508 585 l 431 629 q 387 632 410 640 q 343 605 364 624 q 306 565 322 586 q 283 532 290 544 l 283 147 q 304 82 283 100 q 388 57 325 64 l 422 53 l 422 0 l 47 0 z "},"ŕ":{"ha":610,"x_min":47,"x_max":594,"o":"m 47 0 l 47 53 l 79 57 q 142 81 125 61 q 158 147 158 100 l 158 540 q 135 603 158 585 q 50 624 111 621 l 50 669 l 260 731 l 279 731 l 279 619 l 292 619 q 372 699 322 664 q 493 733 422 733 q 569 714 543 733 q 594 658 594 694 q 576 615 594 633 q 533 591 558 597 q 486 597 508 585 l 431 629 q 387 632 410 640 q 343 605 364 624 q 306 565 322 586 q 283 532 290 544 l 283 147 q 304 82 283 100 q 388 57 325 64 l 422 53 l 422 0 l 47 0 m 196 786 l 171 819 l 285 956 q 313 986 300 972 q 340 1014 326 1000 q 384 1028 360 1031 q 425 1006 408 1026 q 440 963 442 986 q 418 921 438 939 q 387 898 403 907 q 351 878 371 889 l 196 786 z "},"ř":{"ha":610,"x_min":47,"x_max":594,"o":"m 47 0 l 47 53 l 79 57 q 142 81 125 61 q 158 147 158 100 l 158 540 q 135 603 158 585 q 50 624 111 621 l 50 669 l 260 731 l 279 731 l 279 619 l 292 619 q 372 699 322 664 q 493 733 422 733 q 569 714 543 733 q 594 658 594 694 q 576 615 594 633 q 533 591 558 597 q 486 597 508 585 l 431 629 q 387 632 410 640 q 343 605 364 624 q 306 565 322 586 q 283 532 290 544 l 283 147 q 304 82 283 100 q 388 57 325 64 l 422 53 l 422 0 l 47 0 m 261 821 l 108 1001 l 131 1022 l 303 921 l 306 921 l 478 1022 l 500 1001 l 349 821 l 261 821 z "},"ŗ":{"ha":610,"x_min":47,"x_max":594,"o":"m 47 0 l 47 53 l 79 57 q 142 81 125 61 q 158 147 158 100 l 158 540 q 135 603 158 585 q 50 624 111 621 l 50 669 l 260 731 l 279 731 l 279 619 l 292 619 q 372 699 322 664 q 493 733 422 733 q 569 714 543 733 q 594 658 594 694 q 576 615 594 633 q 533 591 558 597 q 486 597 508 585 l 431 629 q 387 632 410 640 q 343 605 364 624 q 306 565 322 586 q 283 532 290 544 l 283 147 q 304 82 283 100 q 388 57 325 64 l 422 53 l 422 0 l 47 0 m 176 -357 l 150 -319 q 235 -251 210 -283 q 261 -167 261 -218 l 297 -133 q 276 -188 297 -167 q 222 -210 254 -210 q 169 -189 192 -210 q 147 -135 147 -168 q 171 -79 147 -101 q 229 -57 194 -57 q 300 -90 276 -57 q 324 -165 324 -124 q 285 -274 324 -229 q 176 -357 247 -319 z "},"s":{"ha":622,"x_min":79,"x_max":551,"o":"m 288 -14 q 185 1 233 -14 q 79 43 136 15 l 79 219 l 132 219 q 190 92 143 135 q 304 49 236 49 q 404 81 368 49 q 440 161 440 114 q 412 235 440 208 q 336 286 383 261 l 246 335 q 122 427 156 383 q 89 532 89 471 q 123 638 89 593 q 216 710 157 683 q 350 736 275 736 q 450 725 406 736 q 531 697 494 714 l 531 536 l 479 536 q 458 599 474 567 q 410 652 442 631 q 328 674 379 674 q 235 642 268 674 q 201 568 201 611 q 225 504 201 533 q 303 447 249 475 l 394 400 q 512 319 472 361 q 551 200 551 276 q 514 85 551 133 q 416 12 476 38 q 288 -14 356 -14 z "},"ś":{"ha":622,"x_min":79,"x_max":551,"o":"m 288 -14 q 185 1 233 -14 q 79 43 136 15 l 79 219 l 132 219 q 190 92 143 135 q 304 49 236 49 q 404 81 368 49 q 440 161 440 114 q 412 235 440 208 q 336 286 383 261 l 246 335 q 122 427 156 383 q 89 532 89 471 q 123 638 89 593 q 216 710 157 683 q 350 736 275 736 q 450 725 406 736 q 531 697 494 714 l 531 536 l 479 536 q 458 599 474 567 q 410 652 442 631 q 328 674 379 674 q 235 642 268 674 q 201 568 201 611 q 225 504 201 533 q 303 447 249 475 l 394 400 q 512 319 472 361 q 551 200 551 276 q 514 85 551 133 q 416 12 476 38 q 288 -14 356 -14 m 206 786 l 181 819 l 294 956 q 323 986 310 972 q 350 1014 336 1000 q 394 1028 369 1031 q 435 1006 418 1026 q 449 963 451 986 q 428 921 447 939 q 397 898 413 907 q 361 878 381 889 l 206 786 z "},"š":{"ha":622,"x_min":79,"x_max":551,"o":"m 288 -14 q 185 1 233 -14 q 79 43 136 15 l 79 219 l 132 219 q 190 92 143 135 q 304 49 236 49 q 404 81 368 49 q 440 161 440 114 q 412 235 440 208 q 336 286 383 261 l 246 335 q 122 427 156 383 q 89 532 89 471 q 123 638 89 593 q 216 710 157 683 q 350 736 275 736 q 450 725 406 736 q 531 697 494 714 l 531 536 l 479 536 q 458 599 474 567 q 410 652 442 631 q 328 674 379 674 q 235 642 268 674 q 201 568 201 611 q 225 504 201 533 q 303 447 249 475 l 394 400 q 512 319 472 361 q 551 200 551 276 q 514 85 551 133 q 416 12 476 38 q 288 -14 356 -14 m 271 821 l 118 1001 l 140 1022 l 313 921 l 315 921 l 488 1022 l 510 1001 l 358 821 l 271 821 z "},"ş":{"ha":622,"x_min":79,"x_max":551,"o":"m 288 -14 q 185 1 233 -14 q 79 43 136 15 l 79 219 l 132 219 q 190 92 143 135 q 304 49 236 49 q 404 81 368 49 q 440 161 440 114 q 412 235 440 208 q 336 286 383 261 l 246 335 q 122 427 156 383 q 89 532 89 471 q 123 638 89 593 q 216 710 157 683 q 350 736 275 736 q 450 725 406 736 q 531 697 494 714 l 531 536 l 479 536 q 458 599 474 567 q 410 652 442 631 q 328 674 379 674 q 235 642 268 674 q 201 568 201 611 q 225 504 201 533 q 303 447 249 475 l 394 400 q 512 319 472 361 q 551 200 551 276 q 514 85 551 133 q 416 12 476 38 q 288 -14 356 -14 m 244 -357 q 171 -341 200 -357 q 142 -301 142 -325 q 161 -265 142 -279 q 203 -262 181 -251 l 235 -278 q 265 -295 254 -287 q 286 -303 276 -303 q 327 -290 306 -303 q 349 -242 349 -276 q 306 -169 349 -193 q 192 -149 264 -146 l 190 -146 l 318 13 l 365 1 l 290 -92 q 395 -126 357 -97 q 433 -211 433 -154 q 408 -283 433 -250 q 339 -337 382 -317 q 244 -357 296 -357 z "},"ŝ":{"ha":622,"x_min":79,"x_max":551,"o":"m 288 -14 q 185 1 233 -14 q 79 43 136 15 l 79 219 l 132 219 q 190 92 143 135 q 304 49 236 49 q 404 81 368 49 q 440 161 440 114 q 412 235 440 208 q 336 286 383 261 l 246 335 q 122 427 156 383 q 89 532 89 471 q 123 638 89 593 q 216 710 157 683 q 350 736 275 736 q 450 725 406 736 q 531 697 494 714 l 531 536 l 479 536 q 458 599 474 567 q 410 652 442 631 q 328 674 379 674 q 235 642 268 674 q 201 568 201 611 q 225 504 201 533 q 303 447 249 475 l 394 400 q 512 319 472 361 q 551 200 551 276 q 514 85 551 133 q 416 12 476 38 q 288 -14 356 -14 m 140 818 l 118 839 l 271 1019 l 358 1019 l 510 839 l 488 818 l 315 919 l 313 919 l 140 818 z "},"ș":{"ha":622,"x_min":79,"x_max":551,"o":"m 288 -14 q 185 1 233 -14 q 79 43 136 15 l 79 219 l 132 219 q 190 92 143 135 q 304 49 236 49 q 404 81 368 49 q 440 161 440 114 q 412 235 440 208 q 336 286 383 261 l 246 335 q 122 427 156 383 q 89 532 89 471 q 123 638 89 593 q 216 710 157 683 q 350 736 275 736 q 450 725 406 736 q 531 697 494 714 l 531 536 l 479 536 q 458 599 474 567 q 410 652 442 631 q 328 674 379 674 q 235 642 268 674 q 201 568 201 611 q 225 504 201 533 q 303 447 249 475 l 394 400 q 512 319 472 361 q 551 200 551 276 q 514 85 551 133 q 416 12 476 38 q 288 -14 356 -14 m 254 -357 l 228 -319 q 313 -251 288 -283 q 339 -167 339 -218 l 375 -133 q 353 -188 375 -167 q 300 -210 332 -210 q 247 -189 269 -210 q 225 -135 225 -168 q 249 -79 225 -101 q 307 -57 272 -57 q 378 -90 354 -57 q 401 -165 401 -124 q 363 -274 401 -229 q 254 -357 325 -319 z "},"ß":{"ha":969,"x_min":43,"x_max":933,"o":"m 676 -14 q 571 -3 629 -14 q 475 28 513 7 l 475 201 l 526 201 q 589 81 542 114 q 692 49 636 49 q 788 81 753 49 q 824 158 824 114 q 794 241 824 213 q 718 296 764 269 l 632 347 q 519 435 553 394 q 485 535 485 475 q 507 617 485 582 q 561 681 529 653 q 622 731 593 708 q 685 798 663 761 q 707 879 707 835 q 652 999 707 953 q 511 1046 597 1046 q 349 983 407 1046 q 292 818 292 921 l 292 149 q 314 81 292 100 q 397 56 336 63 l 417 53 l 417 0 l 56 0 l 56 53 l 88 57 q 149 76 131 61 q 167 124 167 90 l 167 629 l 43 629 l 43 663 l 78 722 l 167 722 l 167 753 q 197 897 167 831 q 282 1012 228 963 q 407 1089 336 1061 q 557 1117 478 1117 q 689 1096 626 1117 q 791 1029 751 1075 q 831 910 831 983 q 809 817 831 854 q 754 753 788 781 q 685 699 721 726 q 622 640 650 671 q 594 569 594 608 q 623 507 594 531 q 699 456 651 483 l 776 410 q 892 325 851 367 q 933 208 933 283 q 896 87 933 136 q 800 12 858 38 q 676 -14 742 -14 z "},"t":{"ha":568,"x_min":43,"x_max":563,"o":"m 317 -14 q 181 31 232 -14 q 131 175 131 75 l 131 629 l 43 629 l 43 683 q 204 839 143 739 l 257 839 l 257 725 l 257 685 l 257 221 q 276 138 257 165 q 326 101 294 110 q 396 93 357 93 q 471 104 432 93 q 538 129 510 115 l 563 101 q 449 19 514 53 q 317 -14 385 -14 m 196 629 l 196 722 l 547 722 l 547 690 l 513 629 l 196 629 z "},"ť":{"ha":568,"x_min":43,"x_max":563,"o":"m 382 783 l 354 821 q 441 890 415 857 q 467 974 467 922 l 503 1007 q 481 952 503 974 q 428 931 460 931 q 375 951 397 931 q 353 1006 353 972 q 376 1061 353 1039 q 435 1083 400 1083 q 506 1050 482 1083 q 529 975 529 1017 q 491 866 529 911 q 382 783 453 821 m 317 -14 q 181 31 232 -14 q 131 175 131 75 l 131 629 l 43 629 l 43 683 q 204 839 143 739 l 257 839 l 257 725 l 257 685 l 257 221 q 276 138 257 165 q 326 101 294 110 q 396 93 357 93 q 471 104 432 93 q 538 129 510 115 l 563 101 q 449 19 514 53 q 317 -14 385 -14 m 196 629 l 196 722 l 547 722 l 547 690 l 513 629 l 196 629 z "},"ţ":{"ha":568,"x_min":43,"x_max":563,"o":"m 317 -14 q 181 31 232 -14 q 131 175 131 75 l 131 629 l 43 629 l 43 683 q 204 839 143 739 l 257 839 l 257 725 l 257 685 l 257 221 q 276 138 257 165 q 326 101 294 110 q 396 93 357 93 q 471 104 432 93 q 538 129 510 115 l 563 101 q 449 19 514 53 q 317 -14 385 -14 m 196 629 l 196 722 l 547 722 l 547 690 l 513 629 l 196 629 m 286 -357 q 213 -341 242 -357 q 183 -301 183 -325 q 203 -265 183 -279 q 244 -262 222 -251 l 276 -278 q 307 -295 296 -287 q 328 -303 318 -303 q 369 -290 347 -303 q 390 -242 390 -276 q 348 -169 390 -193 q 233 -149 306 -146 l 232 -146 l 360 13 l 407 1 l 332 -92 q 437 -126 399 -97 q 475 -211 475 -154 q 449 -283 475 -250 q 381 -337 424 -317 q 286 -357 338 -357 z "},"ț":{"ha":568,"x_min":43,"x_max":563,"o":"m 317 -14 q 181 31 232 -14 q 131 175 131 75 l 131 629 l 43 629 l 43 683 q 204 839 143 739 l 257 839 l 257 725 l 257 685 l 257 221 q 276 138 257 165 q 326 101 294 110 q 396 93 357 93 q 471 104 432 93 q 538 129 510 115 l 563 101 q 449 19 514 53 q 317 -14 385 -14 m 196 629 l 196 722 l 547 722 l 547 690 l 513 629 l 196 629 m 253 -357 l 226 -319 q 312 -251 286 -283 q 338 -167 338 -218 l 374 -133 q 352 -188 374 -167 q 299 -210 331 -210 q 246 -189 268 -210 q 224 -135 224 -168 q 247 -79 224 -101 q 306 -57 271 -57 q 376 -90 353 -57 q 400 -165 400 -124 q 362 -274 400 -229 q 253 -357 324 -319 z "},"u":{"ha":875,"x_min":36,"x_max":839,"o":"m 347 -14 q 194 36 250 -14 q 138 175 138 86 l 138 594 q 110 649 138 639 q 36 660 83 658 l 36 706 l 239 733 l 263 733 l 263 226 q 283 141 263 171 q 340 99 304 111 q 419 86 375 86 q 517 103 475 86 q 603 154 560 119 l 603 594 q 575 649 603 639 q 494 660 547 658 l 494 706 l 704 733 l 728 733 l 728 185 q 745 122 728 142 q 821 94 763 101 l 839 92 l 839 47 l 626 -3 l 607 -3 l 607 93 l 599 93 q 478 12 533 38 q 347 -14 424 -14 z "},"ú":{"ha":875,"x_min":36,"x_max":839,"o":"m 347 -14 q 194 36 250 -14 q 138 175 138 86 l 138 594 q 110 649 138 639 q 36 660 83 658 l 36 706 l 239 733 l 263 733 l 263 226 q 283 141 263 171 q 340 99 304 111 q 419 86 375 86 q 517 103 475 86 q 603 154 560 119 l 603 594 q 575 649 603 639 q 494 660 547 658 l 494 706 l 704 733 l 728 733 l 728 185 q 745 122 728 142 q 821 94 763 101 l 839 92 l 839 47 l 626 -3 l 607 -3 l 607 93 l 599 93 q 478 12 533 38 q 347 -14 424 -14 m 319 786 l 294 819 l 408 956 q 437 986 424 972 q 464 1014 450 1000 q 508 1028 483 1031 q 549 1006 532 1026 q 563 963 565 986 q 542 921 561 939 q 510 898 526 907 q 475 878 494 889 l 319 786 z "},"ŭ":{"ha":875,"x_min":36,"x_max":839,"o":"m 347 -14 q 194 36 250 -14 q 138 175 138 86 l 138 594 q 110 649 138 639 q 36 660 83 658 l 36 706 l 239 733 l 263 733 l 263 226 q 283 141 263 171 q 340 99 304 111 q 419 86 375 86 q 517 103 475 86 q 603 154 560 119 l 603 594 q 575 649 603 639 q 494 660 547 658 l 494 706 l 704 733 l 728 733 l 728 185 q 745 122 728 142 q 821 94 763 101 l 839 92 l 839 47 l 626 -3 l 607 -3 l 607 93 l 599 93 q 478 12 533 38 q 347 -14 424 -14 m 429 831 q 279 880 322 831 q 240 1000 236 929 l 286 1000 q 326 944 293 968 q 429 919 360 919 q 534 944 500 919 q 574 1000 568 968 l 618 1000 q 579 880 622 929 q 429 831 536 831 z "},"û":{"ha":875,"x_min":36,"x_max":839,"o":"m 347 -14 q 194 36 250 -14 q 138 175 138 86 l 138 594 q 110 649 138 639 q 36 660 83 658 l 36 706 l 239 733 l 263 733 l 263 226 q 283 141 263 171 q 340 99 304 111 q 419 86 375 86 q 517 103 475 86 q 603 154 560 119 l 603 594 q 575 649 603 639 q 494 660 547 658 l 494 706 l 704 733 l 728 733 l 728 185 q 745 122 728 142 q 821 94 763 101 l 839 92 l 839 47 l 626 -3 l 607 -3 l 607 93 l 599 93 q 478 12 533 38 q 347 -14 424 -14 m 256 818 l 233 839 l 386 1019 l 474 1019 l 625 839 l 603 818 l 431 919 l 428 919 l 256 818 z "},"ü":{"ha":875,"x_min":36,"x_max":839,"o":"m 347 -14 q 194 36 250 -14 q 138 175 138 86 l 138 594 q 110 649 138 639 q 36 660 83 658 l 36 706 l 239 733 l 263 733 l 263 226 q 283 141 263 171 q 340 99 304 111 q 419 86 375 86 q 517 103 475 86 q 603 154 560 119 l 603 594 q 575 649 603 639 q 494 660 547 658 l 494 706 l 704 733 l 728 733 l 728 185 q 745 122 728 142 q 821 94 763 101 l 839 92 l 839 47 l 626 -3 l 607 -3 l 607 93 l 599 93 q 478 12 533 38 q 347 -14 424 -14 m 568 825 q 512 847 535 825 q 489 904 489 869 q 512 960 489 939 q 568 982 535 982 q 623 960 600 982 q 646 904 646 939 q 623 847 646 869 q 568 825 600 825 m 292 825 q 235 847 258 825 q 213 904 213 869 q 235 960 213 939 q 292 982 258 982 q 347 960 324 982 q 369 904 369 939 q 347 847 369 869 q 292 825 324 825 z "},"ù":{"ha":875,"x_min":36,"x_max":839,"o":"m 347 -14 q 194 36 250 -14 q 138 175 138 86 l 138 594 q 110 649 138 639 q 36 660 83 658 l 36 706 l 239 733 l 263 733 l 263 226 q 283 141 263 171 q 340 99 304 111 q 419 86 375 86 q 517 103 475 86 q 603 154 560 119 l 603 594 q 575 649 603 639 q 494 660 547 658 l 494 706 l 704 733 l 728 733 l 728 185 q 745 122 728 142 q 821 94 763 101 l 839 92 l 839 47 l 626 -3 l 607 -3 l 607 93 l 599 93 q 478 12 533 38 q 347 -14 424 -14 m 525 786 l 369 878 q 335 898 351 889 q 303 921 318 907 q 280 963 282 939 q 296 1006 278 986 q 337 1028 313 1026 q 379 1014 361 1031 q 408 986 396 1000 q 435 956 421 972 l 550 819 l 525 786 z "},"ű":{"ha":875,"x_min":36,"x_max":839,"o":"m 347 -14 q 194 36 250 -14 q 138 175 138 86 l 138 594 q 110 649 138 639 q 36 660 83 658 l 36 706 l 239 733 l 263 733 l 263 226 q 283 141 263 171 q 340 99 304 111 q 419 86 375 86 q 517 103 475 86 q 603 154 560 119 l 603 594 q 575 649 603 639 q 494 660 547 658 l 494 706 l 704 733 l 728 733 l 728 185 q 745 122 728 142 q 821 94 763 101 l 839 92 l 839 47 l 626 -3 l 607 -3 l 607 93 l 599 93 q 478 12 533 38 q 347 -14 424 -14 m 468 786 l 443 819 l 557 956 q 585 986 572 972 q 613 1014 599 1000 q 656 1028 632 1031 q 697 1006 681 1026 q 712 963 714 986 q 690 921 710 939 q 659 898 675 907 q 624 878 643 889 l 468 786 m 218 786 l 193 819 l 307 956 q 335 986 322 972 q 363 1014 349 1000 q 406 1028 382 1031 q 447 1006 431 1026 q 462 963 464 986 q 440 921 460 939 q 409 898 425 907 q 374 878 393 889 l 218 786 z "},"ū":{"ha":875,"x_min":36,"x_max":839,"o":"m 347 -14 q 194 36 250 -14 q 138 175 138 86 l 138 594 q 110 649 138 639 q 36 660 83 658 l 36 706 l 239 733 l 263 733 l 263 226 q 283 141 263 171 q 340 99 304 111 q 419 86 375 86 q 517 103 475 86 q 603 154 560 119 l 603 594 q 575 649 603 639 q 494 660 547 658 l 494 706 l 704 733 l 728 733 l 728 185 q 745 122 728 142 q 821 94 763 101 l 839 92 l 839 47 l 626 -3 l 607 -3 l 607 93 l 599 93 q 478 12 533 38 q 347 -14 424 -14 m 236 897 l 236 978 l 622 978 l 622 897 l 236 897 z "},"ų":{"ha":875,"x_min":36,"x_max":839,"o":"m 567 -357 q 470 -323 511 -357 q 429 -224 429 -289 q 459 -124 429 -169 q 532 -47 489 -79 q 613 0 575 -15 l 706 17 q 628 -28 671 3 q 556 -101 586 -58 q 525 -199 525 -144 q 618 -287 525 -287 q 672 -279 650 -287 q 706 -265 694 -271 l 724 -286 q 668 -331 704 -306 q 567 -357 632 -357 m 347 -14 q 194 36 250 -14 q 138 175 138 86 l 138 594 q 110 649 138 639 q 36 660 83 658 l 36 706 l 239 733 l 263 733 l 263 226 q 283 141 263 171 q 340 99 304 111 q 419 86 375 86 q 517 103 475 86 q 603 154 560 119 l 603 594 q 575 649 603 639 q 494 660 547 658 l 494 706 l 704 733 l 728 733 l 728 185 q 745 122 728 142 q 821 94 763 101 l 839 92 l 839 47 l 626 -3 l 607 -3 l 607 93 l 599 93 q 478 12 533 38 q 347 -14 424 -14 z "},"ů":{"ha":875,"x_min":36,"x_max":839,"o":"m 347 -14 q 194 36 250 -14 q 138 175 138 86 l 138 594 q 110 649 138 639 q 36 660 83 658 l 36 706 l 239 733 l 263 733 l 263 226 q 283 141 263 171 q 340 99 304 111 q 419 86 375 86 q 517 103 475 86 q 603 154 560 119 l 603 594 q 575 649 603 639 q 494 660 547 658 l 494 706 l 704 733 l 728 733 l 728 185 q 745 122 728 142 q 821 94 763 101 l 839 92 l 839 47 l 626 -3 l 607 -3 l 607 93 l 599 93 q 478 12 533 38 q 347 -14 424 -14 m 429 799 q 325 838 365 799 q 285 940 285 878 q 325 1040 285 1001 q 429 1079 365 1079 q 534 1040 493 1079 q 575 940 575 1001 q 535 838 575 878 q 429 799 494 799 m 438 843 q 483 864 467 843 q 500 924 500 885 q 478 1004 500 974 q 422 1035 457 1035 q 376 1013 393 1035 q 360 953 360 992 q 381 873 360 903 q 438 843 403 843 z "},"ũ":{"ha":875,"x_min":36,"x_max":839,"o":"m 347 -14 q 194 36 250 -14 q 138 175 138 86 l 138 594 q 110 649 138 639 q 36 660 83 658 l 36 706 l 239 733 l 263 733 l 263 226 q 283 141 263 171 q 340 99 304 111 q 419 86 375 86 q 517 103 475 86 q 603 154 560 119 l 603 594 q 575 649 603 639 q 494 660 547 658 l 494 706 l 704 733 l 728 733 l 728 185 q 745 122 728 142 q 821 94 763 101 l 839 92 l 839 47 l 626 -3 l 607 -3 l 607 93 l 599 93 q 478 12 533 38 q 347 -14 424 -14 m 222 857 l 181 865 q 226 957 200 925 q 279 1001 251 989 q 332 1013 307 1013 q 387 1003 361 1013 q 429 988 413 994 l 460 974 q 503 957 486 963 q 538 951 521 951 q 600 970 578 951 q 636 1017 622 989 l 678 1008 q 633 917 658 949 q 581 873 608 885 q 526 861 553 861 q 472 870 497 861 q 429 886 446 879 l 399 900 q 355 917 372 911 q 321 922 338 922 q 259 903 282 922 q 222 857 236 885 z "},"v":{"ha":810,"x_min":8,"x_max":810,"o":"m 365 -11 l 133 572 q 94 640 115 617 q 32 667 72 663 l 8 669 l 8 722 l 349 722 l 349 669 l 315 667 q 259 639 272 664 q 261 572 246 614 l 449 69 l 406 69 l 604 572 q 609 638 621 615 q 547 667 597 661 l 518 669 l 518 722 l 810 722 l 810 669 l 785 665 q 724 638 747 660 q 681 572 700 615 l 435 -11 l 365 -11 z "},"w":{"ha":1156,"x_min":8,"x_max":1153,"o":"m 329 -11 l 131 572 q 94 639 115 617 q 32 667 72 661 l 8 669 l 8 722 l 347 722 l 347 669 l 313 667 q 256 639 269 664 q 256 572 242 614 l 415 68 l 389 68 l 569 626 l 574 500 q 544 601 558 565 q 513 651 531 636 q 461 668 494 667 l 439 669 l 439 722 l 768 722 l 768 669 l 725 667 q 665 574 640 661 l 814 68 l 790 68 l 947 572 q 951 639 961 617 q 890 667 942 661 l 861 669 l 861 722 l 1153 722 l 1153 669 l 1128 665 q 1065 638 1090 660 q 1025 572 1040 617 l 824 -11 l 728 -11 l 569 514 l 601 518 l 421 -11 l 329 -11 z "},"ẃ":{"ha":1156,"x_min":8,"x_max":1153,"o":"m 329 -11 l 131 572 q 94 639 115 617 q 32 667 72 661 l 8 669 l 8 722 l 347 722 l 347 669 l 313 667 q 256 639 269 664 q 256 572 242 614 l 415 68 l 389 68 l 569 626 l 574 500 q 544 601 558 565 q 513 651 531 636 q 461 668 494 667 l 439 669 l 439 722 l 768 722 l 768 669 l 725 667 q 665 574 640 661 l 814 68 l 790 68 l 947 572 q 951 639 961 617 q 890 667 942 661 l 861 669 l 861 722 l 1153 722 l 1153 669 l 1128 665 q 1065 638 1090 660 q 1025 572 1040 617 l 824 -11 l 728 -11 l 569 514 l 601 518 l 421 -11 l 329 -11 m 471 786 l 446 819 l 560 956 q 588 986 575 972 q 615 1014 601 1000 q 659 1028 635 1031 q 700 1006 683 1026 q 715 963 717 986 q 693 921 713 939 q 662 898 678 907 q 626 878 646 889 l 471 786 z "},"ŵ":{"ha":1156,"x_min":8,"x_max":1153,"o":"m 329 -11 l 131 572 q 94 639 115 617 q 32 667 72 661 l 8 669 l 8 722 l 347 722 l 347 669 l 313 667 q 256 639 269 664 q 256 572 242 614 l 415 68 l 389 68 l 569 626 l 574 500 q 544 601 558 565 q 513 651 531 636 q 461 668 494 667 l 439 669 l 439 722 l 768 722 l 768 669 l 725 667 q 665 574 640 661 l 814 68 l 790 68 l 947 572 q 951 639 961 617 q 890 667 942 661 l 861 669 l 861 722 l 1153 722 l 1153 669 l 1128 665 q 1065 638 1090 660 q 1025 572 1040 617 l 824 -11 l 728 -11 l 569 514 l 601 518 l 421 -11 l 329 -11 m 407 818 l 385 839 l 538 1019 l 625 1019 l 776 839 l 754 818 l 582 919 l 579 919 l 407 818 z "},"ẅ":{"ha":1156,"x_min":8,"x_max":1153,"o":"m 329 -11 l 131 572 q 94 639 115 617 q 32 667 72 661 l 8 669 l 8 722 l 347 722 l 347 669 l 313 667 q 256 639 269 664 q 256 572 242 614 l 415 68 l 389 68 l 569 626 l 574 500 q 544 601 558 565 q 513 651 531 636 q 461 668 494 667 l 439 669 l 439 722 l 768 722 l 768 669 l 725 667 q 665 574 640 661 l 814 68 l 790 68 l 947 572 q 951 639 961 617 q 890 667 942 661 l 861 669 l 861 722 l 1153 722 l 1153 669 l 1128 665 q 1065 638 1090 660 q 1025 572 1040 617 l 824 -11 l 728 -11 l 569 514 l 601 518 l 421 -11 l 329 -11 m 719 825 q 663 847 686 825 q 640 904 640 869 q 663 960 640 939 q 719 982 686 982 q 774 960 751 982 q 797 904 797 939 q 774 847 797 869 q 719 825 751 825 m 443 825 q 387 847 410 825 q 364 904 364 869 q 387 960 364 939 q 443 982 410 982 q 498 960 475 982 q 521 904 521 939 q 498 847 521 869 q 443 825 475 825 z "},"ẁ":{"ha":1156,"x_min":8,"x_max":1153,"o":"m 329 -11 l 131 572 q 94 639 115 617 q 32 667 72 661 l 8 669 l 8 722 l 347 722 l 347 669 l 313 667 q 256 639 269 664 q 256 572 242 614 l 415 68 l 389 68 l 569 626 l 574 500 q 544 601 558 565 q 513 651 531 636 q 461 668 494 667 l 439 669 l 439 722 l 768 722 l 768 669 l 725 667 q 665 574 640 661 l 814 68 l 790 68 l 947 572 q 951 639 961 617 q 890 667 942 661 l 861 669 l 861 722 l 1153 722 l 1153 669 l 1128 665 q 1065 638 1090 660 q 1025 572 1040 617 l 824 -11 l 728 -11 l 569 514 l 601 518 l 421 -11 l 329 -11 m 676 786 l 521 878 q 486 898 503 889 q 454 921 469 907 q 431 963 433 939 q 447 1006 429 986 q 488 1028 464 1026 q 531 1014 513 1031 q 560 986 547 1000 q 586 956 572 972 l 701 819 l 676 786 z "},"x":{"ha":822,"x_min":19,"x_max":796,"o":"m 449 0 l 449 53 l 483 56 q 541 83 525 58 q 524 150 557 108 l 190 572 q 151 621 169 600 q 110 654 132 642 q 60 668 89 667 l 39 669 l 39 722 l 386 722 l 386 669 l 351 665 q 307 638 321 663 q 325 574 293 614 l 658 150 q 713 87 686 114 q 776 56 740 60 l 796 53 l 796 0 l 449 0 m 19 0 l 19 53 l 40 57 q 94 74 71 63 q 136 105 117 86 q 176 150 156 124 l 361 382 l 407 335 l 258 150 q 234 87 226 113 q 282 57 242 61 l 325 53 l 325 0 l 19 0 m 457 351 l 410 399 l 539 572 q 567 636 568 611 q 526 665 567 661 l 483 669 l 483 722 l 789 722 l 789 669 l 757 665 q 681 637 711 661 q 621 572 650 613 l 457 351 z "},"y":{"ha":786,"x_min":7,"x_max":783,"o":"m 125 -343 l 125 -311 l 361 32 l 119 572 q 81 638 100 615 q 31 665 63 660 l 7 669 l 7 722 l 349 722 l 349 669 l 314 667 q 249 572 213 658 l 440 121 l 400 119 l 578 567 q 583 638 596 614 q 510 667 569 661 l 481 669 l 481 722 l 783 722 l 783 669 l 754 665 q 715 651 732 663 q 683 620 697 640 q 656 568 669 600 l 268 -343 l 125 -343 z "},"ý":{"ha":786,"x_min":7,"x_max":783,"o":"m 125 -343 l 125 -311 l 361 32 l 119 572 q 81 638 100 615 q 31 665 63 660 l 7 669 l 7 722 l 349 722 l 349 669 l 314 667 q 249 572 213 658 l 440 121 l 400 119 l 578 567 q 583 638 596 614 q 510 667 569 661 l 481 669 l 481 722 l 783 722 l 783 669 l 754 665 q 715 651 732 663 q 683 620 697 640 q 656 568 669 600 l 268 -343 l 125 -343 m 288 786 l 263 819 l 376 956 q 405 986 392 972 q 432 1014 418 1000 q 476 1028 451 1031 q 517 1006 500 1026 q 531 963 533 986 q 510 921 529 939 q 478 898 494 907 q 443 878 463 889 l 288 786 z "},"ŷ":{"ha":786,"x_min":7,"x_max":783,"o":"m 125 -343 l 125 -311 l 361 32 l 119 572 q 81 638 100 615 q 31 665 63 660 l 7 669 l 7 722 l 349 722 l 349 669 l 314 667 q 249 572 213 658 l 440 121 l 400 119 l 578 567 q 583 638 596 614 q 510 667 569 661 l 481 669 l 481 722 l 783 722 l 783 669 l 754 665 q 715 651 732 663 q 683 620 697 640 q 656 568 669 600 l 268 -343 l 125 -343 m 222 818 l 200 839 l 353 1019 l 440 1019 l 592 839 l 569 818 l 397 919 l 394 919 l 222 818 z "},"ÿ":{"ha":786,"x_min":7,"x_max":783,"o":"m 125 -343 l 125 -311 l 361 32 l 119 572 q 81 638 100 615 q 31 665 63 660 l 7 669 l 7 722 l 349 722 l 349 669 l 314 667 q 249 572 213 658 l 440 121 l 400 119 l 578 567 q 583 638 596 614 q 510 667 569 661 l 481 669 l 481 722 l 783 722 l 783 669 l 754 665 q 715 651 732 663 q 683 620 697 640 q 656 568 669 600 l 268 -343 l 125 -343 m 535 825 q 478 847 501 825 q 456 904 456 869 q 478 960 456 939 q 535 982 501 982 q 590 960 567 982 q 613 904 613 939 q 590 847 613 869 q 535 825 567 825 m 258 825 q 202 847 225 825 q 179 904 179 869 q 202 960 179 939 q 258 982 225 982 q 313 960 290 982 q 336 904 336 939 q 313 847 336 869 q 258 825 290 825 z "},"ỳ":{"ha":786,"x_min":7,"x_max":783,"o":"m 125 -343 l 125 -311 l 361 32 l 119 572 q 81 638 100 615 q 31 665 63 660 l 7 669 l 7 722 l 349 722 l 349 669 l 314 667 q 249 572 213 658 l 440 121 l 400 119 l 578 567 q 583 638 596 614 q 510 667 569 661 l 481 669 l 481 722 l 783 722 l 783 669 l 754 665 q 715 651 732 663 q 683 620 697 640 q 656 568 669 600 l 268 -343 l 125 -343 m 492 786 l 336 878 q 301 898 318 889 q 269 921 285 907 q 247 963 249 939 q 263 1006 244 986 q 303 1028 279 1026 q 346 1014 328 1031 q 375 986 363 1000 q 401 956 388 972 l 517 819 l 492 786 z "},"ỹ":{"ha":786,"x_min":7,"x_max":783,"o":"m 125 -343 l 125 -311 l 361 32 l 119 572 q 81 638 100 615 q 31 665 63 660 l 7 669 l 7 722 l 349 722 l 349 669 l 314 667 q 249 572 213 658 l 440 121 l 400 119 l 578 567 q 583 638 596 614 q 510 667 569 661 l 481 669 l 481 722 l 783 722 l 783 669 l 754 665 q 715 651 732 663 q 683 620 697 640 q 656 568 669 600 l 268 -343 l 125 -343 m 189 857 l 147 865 q 192 957 167 925 q 246 1001 218 989 q 299 1013 274 1013 q 353 1003 328 1013 q 396 988 379 994 l 426 974 q 470 957 453 963 q 504 951 488 951 q 567 970 544 951 q 603 1017 589 989 l 644 1008 q 600 917 625 949 q 547 873 575 885 q 493 861 519 861 q 438 870 464 861 q 396 886 413 879 l 365 900 q 322 917 339 911 q 288 922 304 922 q 226 903 249 922 q 189 857 203 885 z "},"z":{"ha":721,"x_min":63,"x_max":660,"o":"m 638 -8 q 530 -2 581 -4 q 451 0 479 0 l 63 0 l 63 36 l 524 718 l 540 661 l 288 654 q 171 615 211 653 q 122 499 131 578 l 68 499 l 92 731 q 184 725 142 728 q 278 722 226 722 l 639 722 l 639 686 l 189 19 l 168 64 l 415 68 q 515 86 478 69 q 574 141 553 103 q 606 246 594 179 l 660 246 l 638 -8 z "},"ź":{"ha":721,"x_min":63,"x_max":660,"o":"m 638 -8 q 530 -2 581 -4 q 451 0 479 0 l 63 0 l 63 36 l 524 718 l 540 661 l 288 654 q 171 615 211 653 q 122 499 131 578 l 68 499 l 92 731 q 184 725 142 728 q 278 722 226 722 l 639 722 l 639 686 l 189 19 l 168 64 l 415 68 q 515 86 478 69 q 574 141 553 103 q 606 246 594 179 l 660 246 l 638 -8 m 251 786 l 226 819 l 340 956 q 369 986 356 972 q 396 1014 382 1000 q 440 1028 415 1031 q 481 1006 464 1026 q 495 963 497 986 q 474 921 493 939 q 442 898 458 907 q 407 878 426 889 l 251 786 z "},"ž":{"ha":721,"x_min":63,"x_max":660,"o":"m 638 -8 q 530 -2 581 -4 q 451 0 479 0 l 63 0 l 63 36 l 524 718 l 540 661 l 288 654 q 171 615 211 653 q 122 499 131 578 l 68 499 l 92 731 q 184 725 142 728 q 278 722 226 722 l 639 722 l 639 686 l 189 19 l 168 64 l 415 68 q 515 86 478 69 q 574 141 553 103 q 606 246 594 179 l 660 246 l 638 -8 m 318 821 l 165 1001 l 188 1022 l 360 921 l 363 921 l 535 1022 l 557 1001 l 406 821 l 318 821 z "},"ż":{"ha":721,"x_min":63,"x_max":660,"o":"m 638 -8 q 530 -2 581 -4 q 451 0 479 0 l 63 0 l 63 36 l 524 718 l 540 661 l 288 654 q 171 615 211 653 q 122 499 131 578 l 68 499 l 92 731 q 184 725 142 728 q 278 722 226 722 l 639 722 l 639 686 l 189 19 l 168 64 l 415 68 q 515 86 478 69 q 574 141 553 103 q 606 246 594 179 l 660 246 l 638 -8 m 361 838 q 303 860 326 838 q 279 919 279 883 q 303 978 279 956 q 361 1000 326 1000 q 418 978 394 1000 q 442 919 442 956 q 418 860 442 883 q 361 838 394 838 z "},"ª":{"ha":586,"x_min":71,"x_max":529,"o":"m 206 442 q 119 471 154 442 q 85 546 85 500 q 151 665 85 611 q 360 771 217 719 l 363 847 q 344 906 364 889 q 283 924 324 924 q 213 901 240 924 q 178 836 186 878 q 157 815 176 822 q 110 807 138 807 q 79 831 71 807 q 128 905 93 871 q 211 960 164 939 q 307 981 258 981 q 408 953 367 981 q 447 871 450 926 l 436 561 q 452 513 435 525 q 529 496 469 500 l 529 468 l 493 457 q 456 447 471 450 q 426 444 440 444 q 360 511 368 444 l 354 511 q 206 442 281 442 m 244 513 q 353 564 296 513 l 358 722 q 224 651 269 690 q 179 571 179 613 q 197 528 179 544 q 244 513 214 513 z "},"º":{"ha":671,"x_min":65,"x_max":606,"o":"m 336 442 q 194 476 256 442 q 99 570 133 510 q 65 711 65 631 q 99 852 65 792 q 194 947 133 913 q 335 981 254 981 q 477 947 417 981 q 572 852 538 913 q 606 711 606 792 q 572 570 606 631 q 477 476 538 510 q 336 442 417 442 m 353 496 q 467 546 425 496 q 508 685 508 596 q 456 859 508 792 q 318 926 404 926 q 204 876 246 926 q 163 738 163 826 q 215 563 163 631 q 353 496 268 496 z "},"⁄":{"ha":246,"x_min":-214,"x_max":457,"o":"m -214 0 l 369 972 l 457 972 l -126 0 l -214 0 z "},"½":{"ha":964,"x_min":56,"x_max":897,"o":"m 68 450 l 68 486 l 113 490 q 145 504 136 493 q 154 542 154 515 l 154 860 q 138 899 154 893 q 56 906 121 906 l 56 940 l 217 978 l 235 978 l 235 535 q 242 502 235 511 q 271 490 249 493 l 306 486 l 306 450 l 68 450 m 88 0 l 671 972 l 758 972 l 175 0 l 88 0 m 569 0 l 569 33 q 681 154 628 93 q 767 274 733 215 q 800 382 800 332 q 777 450 800 428 q 714 472 754 472 q 655 453 682 472 q 611 396 628 435 l 565 406 q 631 501 586 471 q 742 531 676 531 q 808 519 772 531 q 868 478 843 507 q 893 397 893 449 q 854 274 893 333 q 755 156 815 214 q 626 36 694 97 l 622 63 l 804 63 q 851 76 839 63 q 865 104 863 89 l 897 104 l 897 0 l 569 0 z "},"⅓":{"ha":932,"x_min":56,"x_max":871,"o":"m 67 450 l 67 486 l 111 490 q 144 504 135 493 q 153 542 153 515 l 153 860 q 136 899 153 893 q 54 906 119 906 l 54 940 l 215 978 l 233 978 l 233 535 q 240 502 233 511 q 269 490 247 493 l 304 486 l 304 450 l 67 450 m 89 0 l 672 972 l 760 972 l 176 0 l 89 0 m 694 -8 q 590 18 626 -8 q 553 68 553 44 q 578 103 553 99 q 622 93 604 108 l 654 64 q 676 46 668 50 q 701 42 683 42 q 761 67 738 42 q 785 138 785 93 q 744 222 785 196 q 647 235 703 249 l 647 278 q 740 324 707 293 q 772 394 772 354 q 750 453 772 433 q 697 472 728 472 q 636 450 658 472 q 599 397 614 428 l 556 414 q 616 502 574 474 q 717 531 658 531 q 819 497 779 531 q 860 408 860 464 q 829 328 860 364 q 733 271 799 293 l 735 288 q 833 246 796 282 q 871 150 871 210 q 822 38 871 83 q 694 -8 774 -8 z "},"⅔":{"ha":1042,"x_min":51,"x_max":979,"o":"m 57 450 l 57 483 q 168 604 115 543 q 254 724 221 665 q 288 832 288 782 q 265 900 288 878 q 201 922 242 922 q 142 903 169 922 q 99 846 115 885 l 53 856 q 119 951 74 921 q 229 981 164 981 q 295 969 260 981 q 356 928 331 957 q 381 847 381 899 q 342 724 381 783 q 242 606 303 664 q 114 486 182 547 l 110 513 l 292 513 q 338 526 326 513 q 353 554 350 539 l 385 554 l 385 450 l 57 450 m 199 0 l 782 972 l 869 972 l 286 0 l 199 0 m 804 -8 q 699 18 736 -8 q 663 68 663 44 q 688 103 663 99 q 732 93 714 108 l 764 64 q 785 46 778 50 q 811 42 793 42 q 871 67 847 42 q 894 138 894 93 q 853 222 894 196 q 757 235 813 249 l 757 278 q 849 324 817 293 q 882 394 882 354 q 860 453 882 433 q 807 472 838 472 q 746 450 768 472 q 708 397 724 428 l 665 414 q 726 502 683 474 q 826 531 768 531 q 929 497 889 531 q 969 408 969 464 q 939 328 969 364 q 843 271 908 293 l 844 288 q 943 246 906 282 q 981 150 981 210 q 932 38 981 83 q 804 -8 883 -8 z "},"¼":{"ha":949,"x_min":56,"x_max":904,"o":"m 67 450 l 67 486 l 111 490 q 144 504 135 493 q 153 542 153 515 l 153 860 q 136 899 153 893 q 54 906 119 906 l 54 940 l 215 978 l 233 978 l 233 535 q 240 502 233 511 q 269 490 247 493 l 304 486 l 304 450 l 67 450 m 89 0 l 672 972 l 760 972 l 176 0 l 89 0 m 665 0 l 665 36 l 703 40 q 735 54 726 43 q 744 92 744 65 l 744 165 l 499 165 l 499 193 l 763 531 l 818 531 l 818 219 l 904 219 l 904 201 l 889 165 l 818 165 l 818 85 q 825 52 818 61 q 854 40 832 43 l 882 36 l 882 0 l 665 0 m 744 196 l 744 460 l 754 450 l 560 200 l 532 219 l 760 219 l 744 196 z "},"¾":{"ha":1067,"x_min":57,"x_max":1021,"o":"m 199 442 q 94 468 131 442 q 57 518 57 494 q 83 553 57 549 q 126 543 108 558 l 158 514 q 180 496 172 500 q 206 492 188 492 q 265 517 242 492 q 289 588 289 543 q 248 672 289 646 q 151 685 207 699 l 151 728 q 244 774 211 743 q 276 844 276 804 q 254 903 276 883 q 201 922 232 922 q 140 900 163 922 q 103 847 118 878 l 60 864 q 120 952 78 924 q 221 981 163 981 q 324 947 283 981 q 364 858 364 914 q 333 778 364 814 q 238 721 303 743 l 239 738 q 338 696 300 732 q 375 600 375 660 q 326 488 375 533 q 199 442 278 442 m 206 0 l 789 972 l 876 972 l 293 0 l 206 0 m 782 0 l 782 36 l 819 40 q 852 54 843 43 q 861 92 861 65 l 861 165 l 615 165 l 615 193 l 879 531 l 935 531 l 935 219 l 1021 219 l 1021 201 l 1006 165 l 935 165 l 935 85 q 942 52 935 61 q 971 40 949 43 l 999 36 l 999 0 l 782 0 m 861 196 l 861 460 l 871 450 l 676 200 l 649 219 l 876 219 l 861 196 z "},"⅕":{"ha":956,"x_min":56,"x_max":896,"o":"m 67 450 l 67 486 l 111 490 q 144 504 135 493 q 153 542 153 515 l 153 860 q 136 899 153 893 q 54 906 119 906 l 54 940 l 215 978 l 233 978 l 233 535 q 240 502 233 511 q 269 490 247 493 l 304 486 l 304 450 l 67 450 m 89 0 l 672 972 l 760 972 l 176 0 l 89 0 m 711 -8 q 603 18 640 -8 q 567 68 567 44 q 592 104 567 100 q 636 93 618 108 l 667 65 q 687 48 676 56 q 715 40 697 40 q 785 65 757 40 q 813 139 813 90 q 755 239 813 208 q 594 268 697 269 l 592 269 l 629 522 l 783 522 q 830 528 818 522 q 844 550 842 533 l 876 550 l 876 460 l 635 460 l 672 500 l 647 308 l 610 331 q 822 294 747 338 q 896 160 896 250 q 845 40 896 88 q 711 -8 794 -8 z "},"⅖":{"ha":1067,"x_min":51,"x_max":1004,"o":"m 57 450 l 57 483 q 168 604 115 543 q 254 724 221 665 q 288 832 288 782 q 265 900 288 878 q 201 922 242 922 q 142 903 169 922 q 99 846 115 885 l 53 856 q 119 951 74 921 q 229 981 164 981 q 295 969 260 981 q 356 928 331 957 q 381 847 381 899 q 342 724 381 783 q 242 606 303 664 q 114 486 182 547 l 110 513 l 292 513 q 338 526 326 513 q 353 554 350 539 l 385 554 l 385 450 l 57 450 m 199 0 l 782 972 l 869 972 l 286 0 l 199 0 m 821 -8 q 713 18 750 -8 q 676 68 676 44 q 702 104 676 100 q 746 93 728 108 l 776 65 q 797 48 786 56 q 825 40 807 40 q 894 65 867 40 q 922 139 922 90 q 865 239 922 208 q 704 268 807 269 l 701 269 l 739 522 l 893 522 q 940 528 928 522 q 954 550 951 533 l 986 550 l 986 460 l 744 460 l 782 500 l 757 308 l 719 331 q 931 294 857 338 q 1006 160 1006 250 q 955 40 1006 88 q 821 -8 904 -8 z "},"⅗":{"ha":1074,"x_min":57,"x_max":1013,"o":"m 199 442 q 94 468 131 442 q 57 518 57 494 q 83 553 57 549 q 126 543 108 558 l 158 514 q 180 496 172 500 q 206 492 188 492 q 265 517 242 492 q 289 588 289 543 q 248 672 289 646 q 151 685 207 699 l 151 728 q 244 774 211 743 q 276 844 276 804 q 254 903 276 883 q 201 922 232 922 q 140 900 163 922 q 103 847 118 878 l 60 864 q 120 952 78 924 q 221 981 163 981 q 324 947 283 981 q 364 858 364 914 q 333 778 364 814 q 238 721 303 743 l 239 738 q 338 696 300 732 q 375 600 375 660 q 326 488 375 533 q 199 442 278 442 m 206 0 l 789 972 l 876 972 l 293 0 l 206 0 m 828 -8 q 720 18 757 -8 q 683 68 683 44 q 709 104 683 100 q 753 93 735 108 l 783 65 q 803 48 793 56 q 832 40 814 40 q 901 65 874 40 q 929 139 929 90 q 872 239 929 208 q 711 268 814 269 l 708 269 l 746 522 l 900 522 q 947 528 935 522 q 961 550 958 533 l 993 550 l 993 460 l 751 460 l 789 500 l 764 308 l 726 331 q 938 294 864 338 q 1013 160 1013 250 q 962 40 1013 88 q 828 -8 911 -8 z "},"⅘":{"ha":1060,"x_min":26,"x_max":990,"o":"m 194 450 l 194 486 l 232 490 q 265 504 256 493 q 274 542 274 515 l 274 615 l 28 615 l 28 643 l 292 981 l 347 981 l 347 669 l 433 669 l 433 651 l 418 615 l 347 615 l 347 535 q 354 502 347 511 q 383 490 361 493 l 411 486 l 411 450 l 194 450 m 274 646 l 274 910 l 283 900 l 89 650 l 61 669 l 289 669 l 274 646 m 185 0 l 768 972 l 856 972 l 272 0 l 185 0 m 807 -8 q 699 18 736 -8 q 663 68 663 44 q 688 104 663 100 q 732 93 714 108 l 763 65 q 783 48 772 56 q 811 40 793 40 q 881 65 853 40 q 908 139 908 90 q 851 239 908 208 q 690 268 793 269 l 688 269 l 725 522 l 879 522 q 926 528 914 522 q 940 550 938 533 l 972 550 l 972 460 l 731 460 l 768 500 l 743 308 l 706 331 q 917 294 843 338 q 992 160 992 250 q 941 40 992 88 q 807 -8 890 -8 z "},"⅙":{"ha":914,"x_min":56,"x_max":854,"o":"m 67 450 l 67 486 l 111 490 q 144 504 135 493 q 153 542 153 515 l 153 860 q 136 899 153 893 q 54 906 119 906 l 54 940 l 215 978 l 233 978 l 233 535 q 240 502 233 511 q 269 490 247 493 l 304 486 l 304 450 l 67 450 m 89 0 l 672 972 l 760 972 l 176 0 l 89 0 m 679 -8 q 553 49 599 -8 q 507 204 507 107 q 593 426 507 339 q 825 526 679 513 l 831 486 q 665 407 725 468 q 594 253 604 346 l 599 253 q 714 308 649 308 q 814 272 774 308 q 854 163 854 235 q 806 40 854 88 q 679 -8 757 -8 m 688 42 q 747 68 724 42 q 771 144 771 94 q 745 221 771 196 q 682 246 719 246 q 637 238 661 246 q 593 210 613 229 l 593 193 q 618 78 593 115 q 688 42 643 42 z "},"⅚":{"ha":978,"x_min":49,"x_max":919,"o":"m 194 442 q 87 468 124 442 q 50 518 50 494 q 76 554 50 550 q 119 543 101 558 l 150 515 q 170 498 160 506 q 199 490 181 490 q 268 515 240 490 q 296 589 296 540 q 238 689 296 658 q 78 718 181 719 l 75 719 l 113 972 l 267 972 q 313 978 301 972 q 328 1000 325 983 l 360 1000 l 360 910 l 118 910 l 156 950 l 131 758 l 93 781 q 305 744 231 788 q 379 610 379 700 q 328 490 379 538 q 194 442 278 442 m 154 0 l 738 972 l 825 972 l 242 0 l 154 0 m 744 -8 q 618 49 664 -8 q 572 204 572 107 q 658 426 572 339 q 890 526 744 513 l 896 486 q 730 407 790 468 q 660 253 669 346 l 664 253 q 779 308 714 308 q 879 272 839 308 q 919 163 919 235 q 871 40 919 88 q 744 -8 822 -8 m 753 42 q 813 68 789 42 q 836 144 836 94 q 810 221 836 196 q 747 246 785 246 q 702 238 726 246 q 658 210 678 229 l 658 193 q 683 78 658 115 q 753 42 708 42 z "},"⅛":{"ha":981,"x_min":56,"x_max":915,"o":"m 67 450 l 67 486 l 111 490 q 144 504 135 493 q 153 542 153 515 l 153 860 q 136 899 153 893 q 54 906 119 906 l 54 940 l 215 978 l 233 978 l 233 535 q 240 502 233 511 q 269 490 247 493 l 304 486 l 304 450 l 67 450 m 89 0 l 672 972 l 760 972 l 176 0 l 89 0 m 819 272 q 893 214 871 246 q 915 136 915 182 q 866 33 915 74 q 744 -8 817 -8 q 628 27 674 -8 q 582 122 582 63 q 602 189 582 158 q 654 241 622 219 q 721 268 686 263 l 743 224 l 675 263 q 609 319 632 288 q 586 394 586 350 q 635 492 586 454 q 756 531 685 531 q 866 499 821 531 q 911 411 911 467 q 864 323 911 357 q 758 268 817 289 l 739 315 l 819 272 m 658 404 q 675 363 658 382 q 724 325 692 344 l 767 300 q 817 347 799 322 q 836 400 836 372 q 810 460 836 439 q 746 481 783 481 q 683 460 707 481 q 658 404 658 439 m 753 42 q 818 65 793 42 q 843 124 843 89 q 828 168 843 153 q 782 201 814 183 l 717 239 q 673 190 689 218 q 657 128 657 163 q 684 67 657 92 q 753 42 711 42 z "},"⅜":{"ha":1099,"x_min":57,"x_max":1032,"o":"m 199 442 q 94 468 131 442 q 57 518 57 494 q 83 553 57 549 q 126 543 108 558 l 158 514 q 180 496 172 500 q 206 492 188 492 q 265 517 242 492 q 289 588 289 543 q 248 672 289 646 q 151 685 207 699 l 151 728 q 244 774 211 743 q 276 844 276 804 q 254 903 276 883 q 201 922 232 922 q 140 900 163 922 q 103 847 118 878 l 60 864 q 120 952 78 924 q 221 981 163 981 q 324 947 283 981 q 364 858 364 914 q 333 778 364 814 q 238 721 303 743 l 239 738 q 338 696 300 732 q 375 600 375 660 q 326 488 375 533 q 199 442 278 442 m 206 0 l 789 972 l 876 972 l 293 0 l 206 0 m 936 272 q 1010 214 988 246 q 1032 136 1032 182 q 983 33 1032 74 q 861 -8 933 -8 q 744 27 790 -8 q 699 122 699 63 q 719 189 699 158 q 771 241 739 219 q 838 268 803 263 l 860 224 l 792 263 q 726 319 749 288 q 703 394 703 350 q 752 492 703 454 q 872 531 801 531 q 983 499 938 531 q 1028 411 1028 467 q 981 323 1028 357 q 875 268 933 289 l 856 315 l 936 272 m 775 404 q 792 363 775 382 q 840 325 808 344 l 883 300 q 934 347 915 322 q 953 400 953 372 q 926 460 953 439 q 863 481 900 481 q 799 460 824 481 q 775 404 775 439 m 869 42 q 935 65 910 42 q 960 124 960 89 q 945 168 960 153 q 899 201 931 183 l 833 239 q 790 190 806 218 q 774 128 774 163 q 801 67 774 92 q 869 42 828 42 z "},"⅝":{"ha":1046,"x_min":49,"x_max":981,"o":"m 194 442 q 87 468 124 442 q 50 518 50 494 q 76 554 50 550 q 119 543 101 558 l 150 515 q 170 498 160 506 q 199 490 181 490 q 268 515 240 490 q 296 589 296 540 q 238 689 296 658 q 78 718 181 719 l 75 719 l 113 972 l 267 972 q 313 978 301 972 q 328 1000 325 983 l 360 1000 l 360 910 l 118 910 l 156 950 l 131 758 l 93 781 q 305 744 231 788 q 379 610 379 700 q 328 490 379 538 q 194 442 278 442 m 154 0 l 738 972 l 825 972 l 242 0 l 154 0 m 885 272 q 958 214 936 246 q 981 136 981 182 q 931 33 981 74 q 810 -8 882 -8 q 693 27 739 -8 q 647 122 647 63 q 667 189 647 158 q 719 241 688 219 q 786 268 751 263 l 808 224 l 740 263 q 674 319 697 288 q 651 394 651 350 q 701 492 651 454 q 821 531 750 531 q 931 499 886 531 q 976 411 976 467 q 929 323 976 357 q 824 268 882 289 l 804 315 l 885 272 m 724 404 q 740 363 724 382 q 789 325 757 344 l 832 300 q 883 347 864 322 q 901 400 901 372 q 875 460 901 439 q 811 481 849 481 q 748 460 772 481 q 724 404 724 439 m 818 42 q 883 65 858 42 q 908 124 908 89 q 894 168 908 153 q 847 201 879 183 l 782 239 q 738 190 754 218 q 722 128 722 163 q 749 67 722 92 q 818 42 776 42 z "},"⅞":{"ha":954,"x_min":61,"x_max":888,"o":"m 121 450 l 121 485 l 356 954 l 375 910 l 154 910 q 108 897 119 910 q 93 867 96 883 l 61 867 l 61 972 l 397 972 l 397 932 l 200 450 l 121 450 m 61 0 l 644 972 l 732 972 l 149 0 l 61 0 m 792 272 q 865 214 843 246 q 888 136 888 182 q 838 33 888 74 q 717 -8 789 -8 q 600 27 646 -8 q 554 122 554 63 q 574 189 554 158 q 626 241 594 219 q 693 268 658 263 l 715 224 l 647 263 q 581 319 604 288 q 558 394 558 350 q 608 492 558 454 q 728 531 657 531 q 838 499 793 531 q 883 411 883 467 q 836 323 883 357 q 731 268 789 289 l 711 315 l 792 272 m 631 404 q 647 363 631 382 q 696 325 664 344 l 739 300 q 790 347 771 322 q 808 400 808 372 q 782 460 808 439 q 718 481 756 481 q 655 460 679 481 q 631 404 631 439 m 725 42 q 790 65 765 42 q 815 124 815 89 q 801 168 815 153 q 754 201 786 183 l 689 239 q 645 190 661 218 q 629 128 629 163 q 656 67 629 92 q 725 42 683 42 z "},"₀":{"ha":511,"x_min":47,"x_max":464,"o":"m 256 -217 q 101 -145 154 -217 q 47 43 47 -74 q 105 247 47 171 q 256 322 163 322 q 411 250 358 322 q 464 58 464 178 q 407 -142 464 -68 q 256 -217 350 -217 m 263 -164 q 343 -110 315 -164 q 371 42 371 -57 q 337 206 371 142 q 249 269 303 269 q 167 217 196 269 q 140 57 139 164 q 174 -103 142 -42 q 263 -164 207 -164 z "},"₁":{"ha":319,"x_min":32,"x_max":282,"o":"m 44 -208 l 44 -172 l 89 -168 q 122 -154 113 -165 q 131 -117 131 -143 l 131 201 q 114 241 131 235 q 32 247 97 247 l 32 282 l 193 319 l 211 319 l 211 -124 q 218 -156 211 -147 q 247 -168 225 -165 l 282 -172 l 282 -208 l 44 -208 z "},"₂":{"ha":415,"x_min":32,"x_max":364,"o":"m 36 -208 l 36 -175 q 147 -54 94 -115 q 233 65 200 7 q 267 174 267 124 q 244 242 267 219 q 181 264 221 264 q 122 245 149 264 q 78 188 94 226 l 32 197 q 98 292 53 263 q 208 322 143 322 q 274 310 239 322 q 335 269 310 299 q 360 189 360 240 q 321 65 360 125 q 222 -53 282 6 q 93 -172 161 -111 l 89 -146 l 271 -146 q 317 -133 306 -146 q 332 -104 329 -119 l 364 -104 l 364 -208 l 36 -208 z "},"₃":{"ha":403,"x_min":38,"x_max":356,"o":"m 179 -217 q 74 -190 111 -217 q 38 -140 38 -164 q 63 -105 38 -110 q 107 -115 89 -100 l 139 -144 q 160 -162 153 -158 q 186 -167 168 -167 q 246 -141 222 -167 q 269 -71 269 -115 q 228 14 269 -12 q 132 26 188 40 l 132 69 q 224 115 192 85 q 257 186 257 146 q 235 244 257 225 q 182 264 213 264 q 121 242 143 264 q 83 189 99 219 l 40 206 q 101 294 58 265 q 201 322 143 322 q 304 289 264 322 q 344 200 344 256 q 314 120 344 156 q 218 63 283 85 l 219 79 q 318 38 281 74 q 356 -58 356 1 q 307 -171 356 -125 q 179 -217 258 -217 z "},"₄":{"ha":469,"x_min":29,"x_max":435,"o":"m 196 -208 l 196 -172 l 233 -168 q 266 -154 257 -165 q 275 -117 275 -143 l 275 -43 l 29 -43 l 29 -15 l 293 322 l 349 322 l 349 11 l 435 11 l 435 -7 l 419 -43 l 349 -43 l 349 -124 q 356 -156 349 -147 q 385 -168 363 -165 l 413 -172 l 413 -208 l 196 -208 m 275 -12 l 275 251 l 285 242 l 90 -8 l 63 11 l 290 11 l 275 -12 z "},"₅":{"ha":406,"x_min":35,"x_max":364,"o":"m 179 -217 q 72 -190 108 -217 q 35 -140 35 -164 q 60 -104 35 -108 q 104 -115 86 -100 l 135 -143 q 155 -160 144 -153 q 183 -168 165 -168 q 253 -143 225 -168 q 281 -69 281 -118 q 223 31 281 0 q 63 60 165 61 l 60 61 l 97 314 l 251 314 q 298 319 286 314 q 313 342 310 325 l 344 342 l 344 251 l 103 251 l 140 292 l 115 100 l 78 122 q 290 85 215 129 q 364 -49 364 42 q 313 -169 364 -121 q 179 -217 263 -217 z "},"₆":{"ha":432,"x_min":44,"x_max":392,"o":"m 217 -217 q 90 -159 136 -217 q 44 -4 44 -101 q 131 217 44 131 q 363 318 217 304 l 368 278 q 202 199 263 260 q 132 44 142 138 l 136 44 q 251 100 186 100 q 351 63 311 100 q 392 -46 392 26 q 343 -169 392 -121 q 217 -217 294 -217 m 225 -167 q 285 -140 261 -167 q 308 -64 308 -114 q 283 13 308 -12 q 219 38 257 38 q 174 29 199 38 q 131 1 150 21 l 131 -15 q 156 -130 131 -93 q 225 -167 181 -167 z "},"₇":{"ha":389,"x_min":28,"x_max":364,"o":"m 88 -208 l 88 -174 l 322 296 l 342 251 l 121 251 q 74 238 86 251 q 60 208 63 225 l 28 208 l 28 314 l 364 314 l 364 274 l 167 -208 l 88 -208 z "},"₈":{"ha":433,"x_min":50,"x_max":383,"o":"m 288 64 q 361 6 339 38 q 383 -72 383 -26 q 334 -176 383 -135 q 213 -217 285 -217 q 96 -181 142 -217 q 50 -86 50 -146 q 70 -19 50 -50 q 122 33 90 11 q 189 60 154 54 l 211 15 l 143 54 q 77 110 100 79 q 54 186 54 142 q 103 284 54 246 q 224 322 153 322 q 334 290 289 322 q 379 203 379 258 q 332 115 379 149 q 226 60 285 81 l 207 107 l 288 64 m 126 196 q 143 155 126 174 q 192 117 160 136 l 235 92 q 285 139 267 114 q 304 192 304 164 q 278 251 304 231 q 214 272 251 272 q 151 251 175 272 q 126 196 126 231 m 221 -167 q 286 -143 261 -167 q 311 -85 311 -119 q 297 -40 311 -56 q 250 -7 282 -25 l 185 31 q 141 -18 157 10 q 125 -81 125 -46 q 152 -142 125 -117 q 221 -167 179 -167 z "},"₉":{"ha":433,"x_min":42,"x_max":389,"o":"m 71 -212 l 65 -172 q 232 -93 172 -154 q 301 61 292 -32 l 297 61 q 182 6 247 6 q 82 42 122 6 q 42 151 42 79 q 91 274 42 226 q 217 322 140 322 q 343 265 297 322 q 389 110 389 207 q 302 -111 389 -25 q 71 -212 215 -197 m 214 67 q 259 76 235 67 q 303 104 283 86 l 303 121 q 278 235 303 197 q 208 272 253 272 q 149 246 174 272 q 125 169 125 219 q 151 93 125 119 q 214 67 176 67 z "},"⁰":{"ha":511,"x_min":47,"x_max":464,"o":"m 256 650 q 101 722 154 650 q 47 910 47 793 q 105 1113 47 1038 q 256 1189 163 1189 q 411 1117 358 1189 q 464 925 464 1044 q 407 724 464 799 q 256 650 350 650 m 263 703 q 343 756 315 703 q 371 908 371 810 q 337 1072 371 1008 q 249 1136 303 1136 q 167 1083 196 1136 q 140 924 139 1031 q 174 764 142 825 q 263 703 207 703 z "},"¹":{"ha":317,"x_min":31,"x_max":281,"o":"m 42 658 l 42 694 l 86 699 q 119 713 110 701 q 128 750 128 724 l 128 1068 q 111 1108 128 1101 q 29 1114 94 1114 l 29 1149 l 190 1186 l 208 1186 l 208 743 q 215 710 208 719 q 244 699 222 701 l 279 694 l 279 658 l 42 658 z "},"²":{"ha":415,"x_min":32,"x_max":364,"o":"m 36 658 l 36 692 q 147 813 94 751 q 233 932 200 874 q 267 1040 267 990 q 244 1108 267 1086 q 181 1131 221 1131 q 122 1112 149 1131 q 78 1054 94 1093 l 32 1064 q 98 1159 53 1129 q 208 1189 143 1189 q 274 1177 239 1189 q 335 1136 310 1165 q 360 1056 360 1107 q 321 932 360 992 q 222 814 282 872 q 93 694 161 756 l 89 721 l 271 721 q 317 734 306 721 q 332 763 329 747 l 364 763 l 364 658 l 36 658 z "},"³":{"ha":403,"x_min":38,"x_max":356,"o":"m 179 650 q 74 676 111 650 q 38 726 38 703 q 63 762 38 757 q 107 751 89 767 l 139 722 q 160 704 153 708 q 186 700 168 700 q 246 726 222 700 q 269 796 269 751 q 228 881 269 854 q 132 893 188 907 l 132 936 q 224 982 192 951 q 257 1053 257 1013 q 235 1111 257 1092 q 182 1131 213 1131 q 121 1108 143 1131 q 83 1056 99 1086 l 40 1072 q 101 1160 58 1132 q 201 1189 143 1189 q 304 1156 264 1189 q 344 1067 344 1122 q 314 987 344 1022 q 218 929 283 951 l 219 946 q 318 904 281 940 q 356 808 356 868 q 307 696 356 742 q 179 650 258 650 z "},"⁴":{"ha":469,"x_min":29,"x_max":435,"o":"m 196 658 l 196 694 l 233 699 q 266 713 257 701 q 275 750 275 724 l 275 824 l 29 824 l 29 851 l 293 1189 l 349 1189 l 349 878 l 435 878 l 435 860 l 419 824 l 349 824 l 349 743 q 356 710 349 719 q 385 699 363 701 l 413 694 l 413 658 l 196 658 m 275 854 l 275 1118 l 285 1108 l 90 858 l 63 878 l 290 878 l 275 854 z "},"⁵":{"ha":406,"x_min":35,"x_max":364,"o":"m 179 650 q 72 676 108 650 q 35 726 35 703 q 60 763 35 758 q 104 751 86 767 l 135 724 q 155 706 144 714 q 183 699 165 699 q 253 724 225 699 q 281 797 281 749 q 223 897 281 867 q 63 926 165 928 l 60 928 l 97 1181 l 251 1181 q 298 1186 286 1181 q 313 1208 310 1192 l 344 1208 l 344 1118 l 103 1118 l 140 1158 l 115 967 l 78 989 q 290 952 215 996 q 364 818 364 908 q 313 698 364 746 q 179 650 263 650 z "},"⁶":{"ha":432,"x_min":44,"x_max":392,"o":"m 217 650 q 90 708 136 650 q 44 863 44 765 q 131 1084 44 997 q 363 1185 217 1171 l 368 1144 q 202 1065 263 1126 q 132 911 142 1004 l 136 911 q 251 967 186 967 q 351 930 311 967 q 392 821 392 893 q 343 698 392 746 q 217 650 294 650 m 225 700 q 285 726 261 700 q 308 803 308 753 q 283 879 308 854 q 219 904 257 904 q 174 896 199 904 q 131 868 150 888 l 131 851 q 156 737 131 774 q 225 700 181 700 z "},"⁷":{"ha":386,"x_min":25,"x_max":361,"o":"m 85 658 l 85 693 l 319 1163 l 339 1118 l 118 1118 q 72 1105 83 1118 q 57 1075 60 1092 l 25 1075 l 25 1181 l 361 1181 l 361 1140 l 164 658 l 85 658 z "},"⁸":{"ha":433,"x_min":50,"x_max":383,"o":"m 288 931 q 361 872 339 904 q 383 794 383 840 q 334 691 383 732 q 213 650 285 650 q 96 685 142 650 q 50 781 50 721 q 70 847 50 817 q 122 899 90 878 q 189 926 154 921 l 211 882 l 143 921 q 77 977 100 946 q 54 1053 54 1008 q 103 1151 54 1113 q 224 1189 153 1189 q 334 1157 289 1189 q 379 1069 379 1125 q 332 981 379 1015 q 226 926 285 947 l 207 974 l 288 931 m 126 1063 q 143 1022 126 1040 q 192 983 160 1003 l 235 958 q 285 1006 267 981 q 304 1058 304 1031 q 278 1118 304 1097 q 214 1139 251 1139 q 151 1118 175 1139 q 126 1063 126 1097 m 221 700 q 286 724 261 700 q 311 782 311 747 q 297 826 311 811 q 250 860 282 842 l 185 897 q 141 849 157 876 q 125 786 125 821 q 152 725 125 750 q 221 700 179 700 z "},"⁹":{"ha":433,"x_min":42,"x_max":389,"o":"m 71 654 l 65 694 q 232 774 172 713 q 301 928 292 835 l 297 928 q 182 872 247 872 q 82 909 122 872 q 42 1018 42 946 q 91 1141 42 1093 q 217 1189 140 1189 q 343 1131 297 1189 q 389 976 389 1074 q 302 756 389 842 q 71 654 215 669 m 214 933 q 259 943 235 933 q 303 971 283 953 l 303 988 q 278 1101 303 1064 q 208 1139 253 1139 q 149 1113 174 1139 q 125 1036 125 1086 q 151 960 125 986 q 214 933 176 933 z "}," ":{"ha":319,"x_min":0,"x_max":0,"o":""}," ":{"ha":319,"x_min":0,"x_max":0,"o":""},".":{"ha":333,"x_min":79,"x_max":254,"o":"m 167 -14 q 105 10 131 -14 q 79 75 79 35 q 106 135 79 111 q 167 160 132 160 q 228 135 203 160 q 254 75 254 111 q 228 10 254 35 q 167 -14 203 -14 z "},",":{"ha":356,"x_min":65,"x_max":279,"o":"m 97 -236 l 65 -194 q 151 -124 121 -157 q 192 -49 181 -90 q 204 50 204 -8 l 250 71 q 226 10 250 35 q 167 -14 203 -14 q 107 10 132 -14 q 82 71 82 35 q 108 131 82 107 q 174 154 135 154 q 251 117 222 154 q 279 21 279 81 q 235 -114 279 -53 q 97 -236 192 -175 z "},":":{"ha":369,"x_min":97,"x_max":272,"o":"m 185 -14 q 123 10 149 -14 q 97 75 97 35 q 124 135 97 111 q 185 160 150 160 q 247 135 221 160 q 272 75 272 111 q 247 10 272 35 q 185 -14 221 -14 m 185 465 q 123 490 149 465 q 97 554 97 514 q 124 615 97 590 q 185 639 150 639 q 247 615 221 639 q 272 554 272 590 q 247 490 272 514 q 185 465 221 465 z "},";":{"ha":411,"x_min":96,"x_max":310,"o":"m 128 -236 l 96 -194 q 181 -124 151 -157 q 223 -49 211 -90 q 235 50 235 -8 l 281 71 q 257 10 281 35 q 197 -14 233 -14 q 138 10 163 -14 q 113 71 113 35 q 139 131 113 107 q 204 154 165 154 q 281 117 253 154 q 310 21 310 81 q 266 -114 310 -53 q 128 -236 222 -175 m 197 465 q 135 490 161 465 q 110 554 110 514 q 136 615 110 590 q 197 639 163 639 q 259 615 233 639 q 285 554 285 590 q 259 490 285 514 q 197 465 233 465 z "},"…":{"ha":928,"x_min":79,"x_max":849,"o":"m 167 -14 q 105 10 131 -14 q 79 75 79 35 q 106 135 79 111 q 167 160 132 160 q 228 135 203 160 q 254 75 254 111 q 228 10 254 35 q 167 -14 203 -14 m 464 -14 q 402 10 428 -14 q 376 75 376 35 q 403 135 376 111 q 464 160 429 160 q 526 135 500 160 q 551 75 551 111 q 526 10 551 35 q 464 -14 500 -14 m 761 -14 q 699 10 725 -14 q 674 75 674 35 q 700 135 674 111 q 761 160 726 160 q 823 135 797 160 q 849 75 849 111 q 823 10 849 35 q 761 -14 797 -14 z "},"!":{"ha":393,"x_min":114,"x_max":283,"o":"m 168 269 q 150 506 158 396 q 132 732 142 617 q 127 790 131 757 q 122 852 124 822 q 119 897 119 882 q 139 963 119 940 q 196 986 158 986 q 252 963 232 986 q 272 897 272 940 q 270 852 272 882 q 265 790 268 822 q 260 732 263 757 q 242 506 250 617 q 224 269 233 396 l 168 269 m 199 -14 q 139 10 164 -14 q 114 72 114 33 q 139 133 114 108 q 199 157 164 157 q 258 133 233 157 q 283 72 283 110 q 258 10 283 33 q 199 -14 233 -14 z "},"¡":{"ha":374,"x_min":100,"x_max":269,"o":"m 215 453 q 233 216 225 326 q 251 -10 242 106 q 257 -67 254 -35 q 262 -129 260 -100 q 264 -175 264 -158 q 244 -241 264 -218 q 188 -264 224 -264 q 130 -241 150 -264 q 110 -175 110 -218 q 112 -129 110 -158 q 117 -67 114 -100 q 122 -10 121 -35 q 140 216 132 106 q 158 453 149 326 l 215 453 m 183 736 q 244 713 219 736 q 269 650 269 689 q 244 590 269 614 q 183 565 219 565 q 124 590 149 565 q 100 650 100 614 q 125 713 100 689 q 183 736 150 736 z "},"?":{"ha":543,"x_min":49,"x_max":483,"o":"m 204 268 q 148 374 167 328 q 129 460 129 421 q 151 541 129 506 q 221 607 174 576 l 306 663 q 364 721 347 689 q 381 789 381 753 q 353 878 381 844 q 286 911 325 911 q 256 907 274 911 q 203 885 239 903 l 149 857 q 80 860 111 839 q 49 913 49 881 q 100 966 49 946 q 221 986 151 986 q 353 954 294 986 q 448 867 413 922 q 483 744 483 813 q 458 652 483 693 q 376 574 433 611 l 299 522 q 244 470 260 496 q 228 408 228 444 q 235 361 228 390 q 256 286 243 332 l 204 268 m 233 -14 q 173 11 197 -14 q 149 72 149 36 q 173 132 149 107 q 233 157 197 157 q 294 132 269 157 q 318 72 318 107 q 294 11 318 36 q 233 -14 269 -14 z "},"¿":{"ha":525,"x_min":50,"x_max":485,"o":"m 329 454 q 385 349 367 394 q 404 263 404 303 q 382 181 404 217 q 313 115 360 146 l 228 60 q 169 2 186 33 q 153 -67 153 -29 q 181 -156 153 -122 q 247 -189 208 -189 q 278 -185 260 -189 q 331 -162 296 -181 l 385 -135 q 453 -137 422 -115 q 485 -190 485 -158 q 433 -244 485 -224 q 313 -264 381 -264 q 181 -232 240 -264 q 85 -145 121 -200 q 50 -22 50 -90 q 76 71 50 31 q 157 149 101 111 l 235 200 q 290 252 274 226 q 306 314 306 278 q 299 361 306 332 q 276 436 292 390 l 329 454 m 300 736 q 360 711 336 736 q 385 650 385 686 q 360 590 385 615 q 300 565 336 565 q 240 590 265 565 q 215 650 215 615 q 240 711 215 686 q 300 736 264 736 z "},"·":{"ha":363,"x_min":93,"x_max":269,"o":"m 182 411 q 120 435 146 411 q 94 500 94 460 q 121 560 94 536 q 182 585 147 585 q 244 560 218 585 q 269 500 269 536 q 244 435 269 460 q 182 411 218 411 z "},"•":{"ha":561,"x_min":119,"x_max":442,"o":"m 282 331 q 167 376 214 331 q 119 493 119 421 q 167 609 119 564 q 282 654 214 654 q 395 609 349 654 q 442 493 442 564 q 395 376 442 421 q 282 331 349 331 z "},"*":{"ha":631,"x_min":64,"x_max":567,"o":"m 193 511 q 156 526 171 511 q 140 561 140 542 q 154 599 140 583 q 207 651 168 615 l 275 717 l 182 728 q 131 734 158 731 q 83 750 103 738 q 64 792 64 763 q 80 831 64 815 q 119 846 96 846 q 158 835 139 846 q 208 808 178 825 l 290 761 l 272 851 q 263 899 267 879 q 260 931 260 918 q 276 970 260 954 q 315 986 292 986 q 355 970 339 986 q 371 931 371 954 q 367 899 371 918 q 358 851 364 879 l 339 761 l 422 808 q 472 835 453 825 q 511 846 492 846 q 551 831 535 846 q 567 792 567 815 q 547 750 567 763 q 500 734 528 738 q 449 728 472 731 l 356 717 l 424 651 q 476 599 461 615 q 490 561 490 583 q 474 526 490 540 q 433 511 457 511 q 386 538 401 511 q 354 600 371 564 l 315 688 l 276 600 q 244 538 260 564 q 193 511 229 511 z "},"#":{"ha":889,"x_min":35,"x_max":857,"o":"m 415 0 l 693 972 l 774 972 l 496 0 l 415 0 m 35 278 l 54 346 l 761 346 l 742 278 l 35 278 m 106 0 l 383 972 l 464 972 l 186 0 l 106 0 m 132 639 l 150 706 l 857 706 l 839 639 l 132 639 z "}}}
